<?xml version="1.0" standalone="no"?>
<!DOCTYPE svg PUBLIC "-//W3C//DTD SVG 20010904//EN"
 "http://www.w3.org/TR/2001/REC-SVG-20010904/DTD/svg10.dtd">
<svg version="1.0" xmlns="http://www.w3.org/2000/svg"
 width="576.000000pt" height="576.000000pt" viewBox="0 0 576.000000 576.000000"
 preserveAspectRatio="xMidYMid meet">
<metadata>
Created by potrace 1.14, written by Peter Selinger 2001-2017
</metadata>
<g transform="translate(0.000000,576.000000) scale(0.100000,-0.100000)"
fill="#000000" stroke="none">
<path d="M2695 5657 c-88 -50 -106 -163 -38 -236 28 -30 90 -53 138 -50 46 3
65 -8 152 -88 102 -94 187 -169 199 -176 9 -5 10 -16 4 -40 -5 -17 -11 -52
-14 -77 -3 -25 -8 -56 -11 -70 -6 -30 -17 -100 -18 -117 0 -7 -3 -13 -6 -13
-6 0 -163 102 -171 110 -4 5 -228 141 -280 170 -154 87 -400 177 -501 185 -92
7 -183 14 -269 21 -41 3 -92 7 -113 9 -43 3 -43 3 -66 45 -9 18 -36 43 -59 56
-148 83 -313 -66 -233 -210 11 -19 38 -41 70 -57 44 -22 58 -25 97 -18 53 10
75 21 109 55 15 15 32 23 43 20 9 -3 58 -7 107 -11 50 -3 110 -7 135 -10 25
-2 83 -6 130 -10 46 -3 86 -8 89 -10 2 -3 4 -58 3 -122 -1 -191 4 -172 -39
-162 -144 33 -361 28 -543 -11 -25 -5 -56 -12 -70 -14 -14 -3 -81 -19 -150
-36 -149 -37 -130 -33 -260 -60 -58 -12 -121 -25 -140 -30 -19 -5 -53 -12 -75
-14 -22 -3 -54 -10 -71 -15 -28 -8 -33 -6 -44 15 -17 31 -86 64 -135 64 -45 0
-113 -32 -137 -65 -24 -32 -36 -94 -26 -131 16 -63 98 -118 172 -115 54 1 116
39 142 84 12 21 24 38 28 37 4 -2 32 2 64 9 31 6 75 13 97 17 22 3 43 8 46 10
4 2 24 6 45 10 22 3 76 14 121 23 l82 18 51 -79 50 -79 -38 -15 c-148 -60
-380 -194 -511 -296 -61 -48 -149 -133 -261 -254 -25 -27 -68 -68 -95 -90 -28
-23 -88 -73 -134 -112 -79 -67 -87 -71 -130 -70 -60 2 -95 -6 -124 -29 -118
-88 -64 -265 84 -276 46 -4 112 16 141 43 39 36 59 121 38 160 -8 15 14 38
163 161 94 78 180 150 189 158 46 42 50 44 126 42 42 -1 78 -4 81 -6 2 -3 -16
-27 -40 -54 -59 -66 -60 -67 -100 -136 -65 -111 -89 -188 -154 -496 -2 -9 -18
-79 -35 -155 -17 -77 -33 -147 -35 -157 -2 -10 -6 -26 -9 -35 -3 -9 -7 -28
-10 -42 -2 -14 -12 -56 -21 -95 -9 -38 -18 -77 -20 -85 -27 -123 -45 -202 -49
-209 -3 -5 -19 -11 -35 -14 -39 -8 -97 -61 -110 -100 -23 -70 9 -146 77 -185
87 -49 227 6 248 98 13 60 -3 114 -45 146 -12 9 -9 33 18 155 18 79 34 153 37
164 3 17 7 34 19 85 1 3 7 32 14 65 7 33 21 94 31 135 10 41 23 100 30 131 9
45 16 58 33 63 27 7 36 -8 28 -48 -7 -38 -6 -173 3 -321 3 -60 9 -189 11 -285
3 -96 7 -240 10 -320 2 -80 7 -244 10 -365 3 -121 7 -232 9 -246 2 -20 -4 -30
-25 -43 -82 -48 -94 -175 -23 -237 51 -45 147 -60 199 -32 61 34 101 112 88
176 -7 34 -72 107 -96 107 -10 0 -17 8 -18 18 0 9 -2 71 -4 137 -2 66 -6 226
-10 355 -4 129 -8 255 -9 279 -1 42 1 46 43 73 25 15 48 28 51 28 6 0 31 -51
85 -175 15 -33 34 -76 43 -95 17 -37 66 -107 89 -127 15 -12 19 -50 28 -243 2
-63 7 -142 9 -175 3 -33 8 -105 11 -160 3 -55 8 -136 10 -180 3 -44 8 -118 10
-165 3 -47 8 -116 10 -155 12 -157 11 -162 -27 -198 -43 -40 -57 -71 -53 -124
6 -79 75 -138 165 -141 87 -4 170 70 170 151 0 53 -34 111 -79 134 -20 10 -38
19 -40 20 -4 2 -7 47 -17 213 -10 179 -12 221 -19 355 -3 72 -8 155 -10 185
-7 93 -18 323 -18 355 1 17 1 53 2 80 l1 50 78 -84 c158 -173 319 -330 392
-383 87 -63 172 -117 217 -137 11 -5 24 -15 28 -22 4 -6 10 -170 12 -363 2
-193 5 -429 6 -524 l2 -174 -25 -15 c-62 -36 -88 -129 -55 -193 56 -108 232
-117 294 -16 53 86 26 171 -73 231 -14 9 -17 58 -22 475 -6 527 -6 496 -5 692
l1 148 53 -21 c28 -12 106 -41 172 -66 66 -24 129 -48 140 -53 23 -10 175 -59
220 -70 17 -5 90 -24 164 -44 132 -34 149 -43 152 -78 2 -21 3 -27 12 -53 3
-11 8 -31 11 -45 3 -14 7 -34 10 -45 10 -45 28 -121 31 -135 2 -8 13 -55 25
-105 25 -104 29 -121 36 -155 2 -14 7 -32 10 -40 3 -8 8 -25 10 -38 3 -13 16
-69 30 -125 13 -56 31 -135 40 -174 14 -71 14 -74 -7 -102 -53 -72 -24 -173
61 -216 151 -75 311 77 223 212 -26 40 -65 65 -124 77 -22 5 -28 14 -37 58 -6
29 -32 140 -57 247 -25 106 -47 205 -50 220 -2 14 -12 53 -21 86 -8 33 -17 69
-19 80 -3 11 -9 40 -15 65 -6 25 -13 56 -16 69 -3 13 -12 51 -20 85 -8 34 -17
72 -20 86 -3 14 -9 41 -14 60 -5 19 -11 46 -14 60 -3 14 -10 43 -16 65 -6 22
-13 77 -16 123 l-6 82 38 -6 c146 -23 457 24 693 106 l84 29 31 -26 c17 -14
63 -55 102 -90 40 -35 82 -72 94 -83 36 -31 171 -152 220 -196 25 -23 92 -84
150 -135 58 -51 123 -109 145 -129 22 -20 58 -53 79 -72 38 -34 40 -39 41 -97
2 -74 21 -106 86 -139 160 -84 327 107 206 236 -43 47 -123 67 -184 48 -12 -4
-30 6 -54 27 -19 17 -68 61 -109 97 -102 90 -159 142 -184 165 -12 11 -78 70
-146 130 -69 61 -135 119 -146 130 -21 20 -33 30 -174 155 -40 36 -85 76 -100
90 -105 97 -191 174 -207 185 -22 17 -31 8 143 142 243 186 412 346 532 503
40 52 77 100 82 107 6 7 10 14 10 16 0 3 156 159 346 348 190 189 379 377 419
416 39 40 74 71 76 69 11 -10 84 -13 116 -4 101 28 149 124 107 214 -15 32
-70 74 -104 82 -107 22 -195 -30 -215 -129 -2 -9 0 -33 5 -53 l8 -37 -325
-322 c-179 -177 -374 -370 -434 -430 -59 -59 -116 -107 -126 -107 -27 0 -247
52 -257 61 -7 6 0 66 19 159 6 27 30 176 41 250 30 211 34 465 9 620 -2 14 -7
43 -9 65 -3 22 -13 72 -22 110 -8 39 -19 86 -23 105 -5 19 -13 46 -19 60 -5
14 -10 27 -10 30 0 22 -48 150 -106 285 -7 17 -30 72 -51 122 -37 90 -37 93
-20 119 34 52 23 146 -22 185 -54 48 -130 60 -196 31 -54 -24 -88 -69 -92
-124 -6 -83 41 -143 126 -162 63 -15 63 -14 139 -206 29 -74 56 -139 60 -145
16 -23 17 -53 1 -66 -9 -8 -38 -32 -66 -54 -27 -22 -59 -48 -70 -57 -99 -82
-120 -97 -126 -90 -3 4 -16 36 -29 72 -43 119 -158 366 -185 394 -5 6 -23 30
-38 54 -43 66 -189 209 -315 310 -62 50 -156 130 -208 179 -53 48 -100 89
-105 91 -5 2 -5 11 0 20 12 22 7 103 -8 130 -6 12 -28 34 -48 49 -49 38 -131
42 -188 10z m73 -921 c17 -3 44 -8 60 -11 15 -3 41 -8 57 -11 94 -16 327 -99
415 -147 19 -10 53 -29 75 -40 22 -12 42 -24 45 -28 3 -3 22 -15 42 -27 140
-86 313 -257 430 -427 42 -62 108 -190 138 -270 12 -33 26 -69 30 -80 5 -11
13 -40 19 -65 5 -25 13 -58 17 -75 4 -16 8 -37 10 -45 6 -31 18 -177 18 -225
0 -62 -14 -226 -19 -236 -3 -4 -7 -22 -9 -40 -8 -52 -44 -174 -72 -243 -30
-71 -77 -169 -84 -176 -3 -3 -19 -27 -34 -53 -75 -130 -248 -312 -403 -423
-177 -129 -469 -252 -659 -279 -21 -3 -45 -8 -53 -11 -8 -3 -53 -8 -100 -11
-354 -26 -631 27 -936 180 -44 22 -87 46 -96 53 -8 8 -19 14 -22 14 -9 0 -101
66 -161 115 -342 280 -536 679 -539 1100 -1 158 35 357 88 486 14 34 25 67 25
72 0 6 7 18 16 28 8 9 16 24 18 31 3 21 77 143 135 222 184 253 489 465 801
559 76 23 140 39 155 38 2 0 19 4 37 9 17 5 63 12 102 16 39 3 73 8 75 10 6 6
336 -4 379 -10z"/>
<path d="M2365 4580 c-11 -4 -23 -6 -27 -4 -4 3 -49 -5 -100 -16 -291 -63
-529 -190 -723 -385 -251 -252 -369 -530 -369 -870 0 -125 6 -178 33 -285 62
-250 204 -475 416 -656 51 -44 111 -86 200 -141 34 -21 158 -81 210 -101 303
-118 674 -128 1000 -25 74 23 237 97 311 141 110 65 266 201 349 307 22 28 42
52 45 55 27 25 131 220 155 290 1 3 4 12 7 20 24 68 44 148 54 215 9 58 11
302 2 360 -15 104 -86 327 -109 341 -5 3 -9 11 -9 19 0 7 -19 44 -42 82 -214
344 -571 578 -993 648 -60 10 -387 14 -410 5z m55 -297 c25 -12 55 -32 66 -45
22 -23 55 -82 51 -89 -1 -2 4 2 11 10 6 8 12 20 12 27 0 7 22 32 50 57 157
142 402 37 388 -166 l-4 -57 25 24 c36 32 107 54 166 50 72 -5 134 -38 174
-91 30 -39 35 -54 37 -107 2 -49 -2 -70 -23 -108 -15 -27 -30 -48 -35 -48 -4
0 -8 -4 -8 -8 0 -4 28 -6 63 -4 50 3 72 0 105 -17 89 -45 132 -114 128 -204
-4 -89 -60 -157 -153 -189 l-42 -14 46 -12 c31 -9 61 -27 89 -55 64 -64 80
-145 45 -223 -38 -83 -112 -127 -213 -128 -38 0 -68 -4 -68 -8 0 -4 4 -8 9 -8
18 0 53 -71 58 -119 7 -66 -11 -116 -61 -166 -57 -56 -152 -83 -221 -62 -33 9
-77 29 -85 37 -32 32 -36 29 -33 -23 2 -54 -14 -127 -29 -127 -4 0 -8 -6 -8
-12 0 -16 -87 -76 -120 -84 -57 -12 -126 -6 -173 16 -49 23 -117 95 -117 124
0 28 -15 18 -29 -19 -40 -110 -200 -161 -318 -101 -84 42 -123 108 -118 199
l3 57 -30 -25 c-104 -88 -300 -44 -357 80 -32 69 -15 173 37 221 20 19 20 19
-53 20 -60 1 -81 6 -119 28 -119 69 -148 213 -64 311 25 29 107 75 134 75 22
0 13 9 -14 15 -94 18 -166 107 -166 205 0 71 32 130 93 170 50 34 90 43 158
39 l49 -4 -32 42 c-107 140 2 326 191 326 59 0 105 -15 153 -50 l23 -16 -6 46
c-14 101 52 192 165 228 40 13 121 4 170 -18z"/>
<path d="M2526 4020 c-36 -81 -112 -131 -208 -134 -61 -3 -125 21 -171 62 -19
16 -19 16 -12 -7 11 -37 12 -101 1 -101 -5 0 -7 -3 -3 -6 18 -18 -63 -116
-113 -137 -53 -22 -131 -29 -169 -15 -24 9 -24 8 3 -19 39 -39 56 -75 60 -130
3 -47 -16 -107 -46 -144 -19 -23 -109 -79 -119 -74 -4 3 -10 1 -14 -5 -3 -5 7
-13 22 -16 66 -17 128 -74 150 -139 22 -66 -1 -151 -52 -199 l-24 -22 59 4
c165 12 288 -121 246 -268 -6 -22 -5 -23 6 -8 48 58 183 82 267 46 65 -27 128
-101 122 -140 0 -5 3 -8 7 -8 4 0 13 15 20 34 16 43 63 92 107 111 84 35 200
23 255 -28 l25 -23 0 66 c0 57 5 74 30 116 48 76 155 121 243 100 12 -2 22 -1
22 5 0 5 -4 9 -9 9 -15 0 -61 102 -61 134 0 91 66 182 148 207 l44 13 -42 16
c-140 55 -192 203 -110 316 l30 43 -52 -4 c-98 -6 -196 51 -232 135 -9 22 -13
58 -11 93 3 51 2 55 -12 42 -52 -53 -152 -73 -236 -48 -58 17 -132 86 -144
133 l-8 32 -19 -42z m150 -373 c271 -101 346 -400 148 -588 -198 -185 -524
-132 -640 106 -25 52 -29 71 -29 146 0 74 4 93 28 141 51 100 141 174 249 202
65 17 188 14 244 -7z"/>
</g>
</svg>
