<svg width="146" height="53" viewBox="0 0 146 53" fill="none" xmlns="http://www.w3.org/2000/svg">
<path d="M5.57914 24H1.38859V4.95652H5.57914V24ZM12.5717 24H8.38111V10.5853H12.5717V24ZM8.13315 7.12619C8.13315 6.53108 8.34805 6.04342 8.77785 5.66321C9.20765 5.28301 9.76557 5.0929 10.4516 5.0929C11.1376 5.0929 11.6955 5.28301 12.1253 5.66321C12.5551 6.04342 12.77 6.53108 12.77 7.12619C12.77 7.7213 12.5551 8.20896 12.1253 8.58916C11.6955 8.96937 11.1376 9.15948 10.4516 9.15948C9.76557 9.15948 9.20765 8.96937 8.77785 8.58916C8.34805 8.20896 8.13315 7.7213 8.13315 7.12619ZM18.9939 10.5853L19.1303 12.1598C20.056 10.9448 21.333 10.3373 22.9613 10.3373C24.3581 10.3373 25.3996 10.7547 26.0856 11.5895C26.7799 12.4243 27.1394 13.6807 27.1642 15.3585V24H22.9737V15.5321C22.9737 14.8543 22.8373 14.3584 22.5645 14.0443C22.2918 13.722 21.7959 13.5608 21.0768 13.5608C20.2585 13.5608 19.651 13.8832 19.2542 14.5279V24H15.0761V10.5853H18.9939ZM35.9793 24.248C33.9212 24.248 32.2557 23.6363 30.9828 22.413C29.71 21.1815 29.0735 19.5821 29.0735 17.615V17.2678C29.0735 15.8958 29.3256 14.6849 29.8298 13.6352C30.3423 12.5855 31.0862 11.7755 32.0615 11.2052C33.0368 10.6266 34.194 10.3373 35.5329 10.3373C37.4175 10.3373 38.9052 10.9241 39.9963 12.0978C41.0873 13.2632 41.6328 14.8915 41.6328 16.9827V18.6068H33.3261C33.4749 19.359 33.8013 19.95 34.3055 20.3798C34.8097 20.8096 35.4627 21.0245 36.2644 21.0245C37.5869 21.0245 38.6201 20.5616 39.364 19.6359L41.2733 21.8923C40.7525 22.6114 40.0128 23.1859 39.054 23.6157C38.1035 24.0372 37.0786 24.248 35.9793 24.248ZM35.5082 13.5608C34.2849 13.5608 33.5575 14.3708 33.3261 15.9908H37.5414V15.6685C37.558 14.999 37.3885 14.4824 37.0331 14.1187C36.6777 13.7468 36.1694 13.5608 35.5082 13.5608ZM50.8818 24C50.733 23.7272 50.6008 23.3264 50.4851 22.7974C49.7164 23.7644 48.6419 24.248 47.2616 24.248C45.9969 24.248 44.9224 23.8678 44.038 23.1073C43.1536 22.3387 42.7114 21.3757 42.7114 20.2186C42.7114 18.7639 43.2487 17.6646 44.3232 16.9207C45.3977 16.1768 46.9599 15.8049 49.0097 15.8049H50.2991V15.0982C50.2991 13.8666 49.766 13.2508 48.6997 13.2508C47.7079 13.2508 47.212 13.7385 47.212 14.7138H43.0338C43.0338 13.4162 43.5834 12.3623 44.6827 11.5523C45.7903 10.7423 47.1996 10.3373 48.9105 10.3373C50.6214 10.3373 51.9728 10.7547 52.9647 11.5895C53.9565 12.4243 54.4648 13.5691 54.4896 15.0238V20.9625C54.5062 22.194 54.6963 23.1363 55.06 23.7892V24H50.8818ZM48.2658 21.2724C48.7865 21.2724 49.2163 21.1608 49.5552 20.9377C49.9023 20.7145 50.1503 20.4624 50.2991 20.1814V18.0365H49.0841C47.6294 18.0365 46.902 18.6895 46.902 19.9954C46.902 20.3756 47.0301 20.6856 47.2863 20.9253C47.5426 21.1567 47.8691 21.2724 48.2658 21.2724ZM64.9288 14.3667L63.5526 14.2675C62.2385 14.2675 61.3954 14.6808 61.0234 15.5073V24H56.8453V10.5853H60.7631L60.8995 12.3086C61.602 10.9944 62.5815 10.3373 63.8378 10.3373C64.2841 10.3373 64.6726 10.3869 65.0032 10.4861L64.9288 14.3667ZM70.384 10.5853L70.5204 12.1598C71.4709 10.9448 72.7479 10.3373 74.3514 10.3373C76.0458 10.3373 77.1906 11.0109 77.7857 12.3582C78.6949 11.0109 80.0091 10.3373 81.7283 10.3373C84.4476 10.3373 85.8444 11.9821 85.9188 15.2717V24H81.7283V15.5321C81.7283 14.8461 81.6125 14.346 81.3811 14.0319C81.1497 13.7178 80.7281 13.5608 80.1165 13.5608C79.29 13.5608 78.6742 13.9286 78.2692 14.6642L78.2816 14.8378V24H74.091V15.5569C74.091 14.8543 73.9795 14.346 73.7563 14.0319C73.5331 13.7178 73.1075 13.5608 72.4793 13.5608C71.6775 13.5608 71.0659 13.9286 70.6444 14.6642V24H66.4662V10.5853H70.384ZM87.7785 17.1686C87.7785 15.8297 88.0389 14.6394 88.5596 13.598C89.0803 12.5483 89.8284 11.7424 90.8037 11.1804C91.779 10.6183 92.9237 10.3373 94.2379 10.3373C96.2464 10.3373 97.8293 10.9613 98.9864 12.2094C100.144 13.4492 100.722 15.1395 100.722 17.2802V17.429C100.722 19.5202 100.139 21.1815 98.974 22.413C97.8169 23.6363 96.2464 24.248 94.2627 24.248C92.3534 24.248 90.8202 23.6776 89.663 22.537C88.5059 21.3881 87.8819 19.8342 87.7909 17.8753L87.7785 17.1686ZM91.9567 17.429C91.9567 18.6688 92.1509 19.578 92.5394 20.1566C92.9279 20.7352 93.5023 21.0245 94.2627 21.0245C95.7505 21.0245 96.5109 19.8797 96.544 17.5902V17.1686C96.544 14.7634 95.7753 13.5608 94.2379 13.5608C92.8411 13.5608 92.0848 14.5981 91.9691 16.6727L91.9567 17.429ZM107.43 7.25017V10.5853H109.636V13.4864H107.43V19.6235C107.43 20.1277 107.52 20.4789 107.702 20.6773C107.884 20.8757 108.244 20.9749 108.781 20.9749C109.194 20.9749 109.541 20.9501 109.822 20.9005V23.8884C109.07 24.1281 108.285 24.248 107.467 24.248C106.029 24.248 104.966 23.9091 104.28 23.2313C103.594 22.5536 103.251 21.5245 103.251 20.1442V13.4864H101.54V10.5853H103.251V7.25017H107.43ZM115.699 24H111.508V10.5853H115.699V24ZM111.261 7.12619C111.261 6.53108 111.475 6.04342 111.905 5.66321C112.335 5.28301 112.893 5.0929 113.579 5.0929C114.265 5.0929 114.823 5.28301 115.253 5.66321C115.683 6.04342 115.897 6.53108 115.897 7.12619C115.897 7.7213 115.683 8.20896 115.253 8.58916C114.823 8.96937 114.265 9.15948 113.579 9.15948C112.893 9.15948 112.335 8.96937 111.905 8.58916C111.475 8.20896 111.261 7.7213 111.261 7.12619ZM117.757 17.1686C117.757 15.8297 118.017 14.6394 118.538 13.598C119.059 12.5483 119.807 11.7424 120.782 11.1804C121.758 10.6183 122.902 10.3373 124.217 10.3373C126.225 10.3373 127.808 10.9613 128.965 12.2094C130.122 13.4492 130.701 15.1395 130.701 17.2802V17.429C130.701 19.5202 130.118 21.1815 128.953 22.413C127.795 23.6363 126.225 24.248 124.241 24.248C122.332 24.248 120.799 23.6776 119.642 22.537C118.484 21.3881 117.86 19.8342 117.77 17.8753L117.757 17.1686ZM121.935 17.429C121.935 18.6688 122.13 19.578 122.518 20.1566C122.906 20.7352 123.481 21.0245 124.241 21.0245C125.729 21.0245 126.49 19.8797 126.523 17.5902V17.1686C126.523 14.7634 125.754 13.5608 124.217 13.5608C122.82 13.5608 122.063 14.5981 121.948 16.6727L121.935 17.429ZM136.379 10.5853L136.515 12.1598C137.441 10.9448 138.718 10.3373 140.346 10.3373C141.743 10.3373 142.785 10.7547 143.471 11.5895C144.165 12.4243 144.525 13.6807 144.549 15.3585V24H140.359V15.5321C140.359 14.8543 140.222 14.3584 139.95 14.0443C139.677 13.722 139.181 13.5608 138.462 13.5608C137.644 13.5608 137.036 13.8832 136.639 14.5279V24H132.461V10.5853H136.379Z" fill="white"/>
<path d="M6.89024 46.0061C6.89024 47.1388 6.63953 48.0387 6.13809 48.7058C5.63666 49.3684 4.96509 49.6997 4.1234 49.6997C3.12949 49.6997 2.36838 49.3505 1.84008 48.6521V52.3591H1.04092V42.2991H1.78636L1.82665 43.3266C2.35047 42.5521 3.10934 42.1648 4.10325 42.1648C4.97181 42.1648 5.65233 42.4939 6.14481 43.152C6.64176 43.8101 6.89024 44.7235 6.89024 45.892V46.0061ZM6.08437 45.8651C6.08437 44.9384 5.89409 44.2064 5.51354 43.6691C5.13298 43.1319 4.60245 42.8632 3.92193 42.8632C3.42945 42.8632 3.00637 42.9819 2.65268 43.2192C2.29899 43.4564 2.02812 43.8012 1.84008 44.2534V47.7388C2.0326 48.1551 2.30794 48.473 2.66611 48.6924C3.02427 48.9118 3.44736 49.0215 3.93536 49.0215C4.6114 49.0215 5.13746 48.7528 5.51354 48.2156C5.89409 47.6739 6.08437 46.8904 6.08437 45.8651ZM13.2634 49.5654C13.1828 49.3371 13.1313 48.9991 13.1089 48.5514C12.8269 48.9185 12.4665 49.2028 12.0277 49.4043C11.5934 49.6012 11.1323 49.6997 10.6443 49.6997C9.94586 49.6997 9.37951 49.505 8.94523 49.1155C8.51543 48.726 8.30053 48.2335 8.30053 47.638C8.30053 46.9307 8.59378 46.371 9.18027 45.9591C9.77125 45.5472 10.5928 45.3413 11.6449 45.3413H13.1022V44.5153C13.1022 43.9959 12.941 43.5885 12.6187 43.293C12.3008 42.9931 11.8352 42.8431 11.2218 42.8431C10.6622 42.8431 10.1988 42.9863 9.83169 43.2729C9.46457 43.5594 9.28101 43.9041 9.28101 44.3071L8.47513 44.3004C8.47513 43.7228 8.74376 43.2236 9.28101 42.8028C9.81826 42.3775 10.4786 42.1648 11.2621 42.1648C12.0725 42.1648 12.7105 42.3685 13.1761 42.7759C13.6462 43.1789 13.8879 43.743 13.9014 44.4683V47.9067C13.9014 48.6096 13.9752 49.1356 14.123 49.4848V49.5654H13.2634ZM10.7383 48.9879C11.2756 48.9879 11.7546 48.858 12.1754 48.5984C12.6008 48.3387 12.9097 47.9917 13.1022 47.5575V45.9591H11.6651C10.8637 45.9681 10.2369 46.1158 9.78468 46.4024C9.3325 46.6844 9.1064 47.0739 9.1064 47.5709C9.1064 47.9783 9.25639 48.3163 9.55635 48.5849C9.86079 48.8536 10.2548 48.9879 10.7383 48.9879ZM18.9784 42.7826C19.9007 42.7826 20.6483 43.0848 21.2214 43.6892C21.7945 44.2892 22.081 45.0861 22.081 46.08V46.2546C22.081 46.9128 21.9489 47.506 21.6848 48.0343C21.4251 48.5581 21.049 48.9677 20.5566 49.2632C20.0686 49.5542 19.5067 49.6997 18.8709 49.6997C17.9128 49.6997 17.1361 49.3819 16.5406 48.7461C15.9496 48.1059 15.6541 47.253 15.6541 46.1875V45.5428C15.6541 44.0385 15.9407 42.8364 16.5137 41.9365C17.0868 41.0366 17.9016 40.4993 18.9582 40.3247C19.6253 40.2173 20.0932 40.0718 20.3618 39.8882C20.6349 39.7046 20.7715 39.4539 20.7715 39.136H21.4632C21.4632 39.5121 21.3848 39.8233 21.2281 40.0695C21.0714 40.3158 20.8364 40.515 20.523 40.6672C20.2096 40.815 19.7305 40.9403 19.0858 41.0433C18.3471 41.1597 17.7517 41.4753 17.2995 41.9902C16.8518 42.5006 16.5608 43.1856 16.4264 44.0452C16.713 43.6691 17.0711 43.3647 17.5009 43.1319C17.9352 42.899 18.4277 42.7826 18.9784 42.7826ZM16.46 46.0867V46.2546C16.46 47.0739 16.6816 47.741 17.1249 48.2559C17.5681 48.7663 18.1501 49.0215 18.8709 49.0215C19.5962 49.0215 20.1782 48.764 20.617 48.2492C21.0558 47.7298 21.2751 47.0493 21.2751 46.2076V46.033C21.2751 45.2764 21.0513 44.6585 20.6036 44.1795C20.1603 43.7004 19.5783 43.4609 18.8575 43.4609C18.1367 43.4609 17.5569 43.7049 17.1182 44.1929C16.6794 44.6764 16.46 45.3077 16.46 46.0867ZM23.1824 45.8248C23.1824 45.1264 23.3167 44.4974 23.5853 43.9377C23.8584 43.3781 24.2412 42.9438 24.7337 42.6349C25.2306 42.3215 25.7925 42.1648 26.4193 42.1648C27.3864 42.1648 28.1699 42.5051 28.7698 43.1856C29.3697 43.8616 29.6697 44.7593 29.6697 45.8785V46.0464C29.6697 46.7493 29.5331 47.3828 29.26 47.947C28.9914 48.5066 28.6108 48.9386 28.1184 49.2431C27.6259 49.5475 27.064 49.6997 26.4327 49.6997C25.4702 49.6997 24.6867 49.3617 24.0823 48.6857C23.4823 48.0052 23.1824 47.1053 23.1824 45.986V45.8248ZM23.9883 46.0464C23.9883 46.915 24.2121 47.6291 24.6598 48.1887C25.112 48.7439 25.703 49.0215 26.4327 49.0215C27.158 49.0215 27.7445 48.7439 28.1922 48.1887C28.6444 47.6291 28.8705 46.8926 28.8705 45.9793V45.8248C28.8705 45.2697 28.7675 44.7615 28.5616 44.3004C28.3557 43.8392 28.0669 43.4833 27.6953 43.2326C27.3237 42.9774 26.8984 42.8498 26.4193 42.8498C25.703 42.8498 25.1187 43.1319 24.6665 43.696C24.2143 44.2556 23.9883 44.9898 23.9883 45.8987V46.0464ZM36.4055 42.9841H33.7595V49.5654H32.9536V42.9841H30.4084V42.2991H36.4055V42.9841ZM42.2078 49.5654C42.1272 49.3371 42.0757 48.9991 42.0533 48.5514C41.7713 48.9185 41.4109 49.2028 40.9721 49.4043C40.5378 49.6012 40.0767 49.6997 39.5887 49.6997C38.8903 49.6997 38.3239 49.505 37.8896 49.1155C37.4598 48.726 37.2449 48.2335 37.2449 47.638C37.2449 46.9307 37.5382 46.371 38.1247 45.9591C38.7156 45.5472 39.5372 45.3413 40.5893 45.3413H42.0466V44.5153C42.0466 43.9959 41.8854 43.5885 41.5631 43.293C41.2452 42.9931 40.7796 42.8431 40.1662 42.8431C39.6066 42.8431 39.1432 42.9863 38.7761 43.2729C38.409 43.5594 38.2254 43.9041 38.2254 44.3071L37.4195 44.3004C37.4195 43.7228 37.6882 43.2236 38.2254 42.8028C38.7627 42.3775 39.423 42.1648 40.2065 42.1648C41.0169 42.1648 41.6549 42.3685 42.1205 42.7759C42.5906 43.1789 42.8323 43.743 42.8458 44.4683V47.9067C42.8458 48.6096 42.9196 49.1356 43.0674 49.4848V49.5654H42.2078ZM39.6827 48.9879C40.2199 48.9879 40.699 48.858 41.1198 48.5984C41.5452 48.3387 41.8541 47.9917 42.0466 47.5575V45.9591H40.6095C39.8081 45.9681 39.1813 46.1158 38.7291 46.4024C38.2769 46.6844 38.0508 47.0739 38.0508 47.5709C38.0508 47.9783 38.2008 48.3163 38.5007 48.5849C38.8052 48.8536 39.1992 48.9879 39.6827 48.9879ZM47.8086 49.6997C47.1908 49.6997 46.6311 49.5475 46.1297 49.2431C45.6327 48.9386 45.2455 48.5156 44.9679 47.9738C44.6903 47.4276 44.5515 46.8165 44.5515 46.1405V45.8517C44.5515 45.1533 44.6858 44.5242 44.9545 43.9646C45.2276 43.405 45.6059 42.9662 46.0894 42.6483C46.5729 42.326 47.0968 42.1648 47.6609 42.1648C48.5429 42.1648 49.2413 42.467 49.7561 43.0714C50.2755 43.6713 50.5352 44.4929 50.5352 45.536V45.986H45.3507V46.1405C45.3507 46.9642 45.5857 47.6515 46.0558 48.2022C46.5304 48.7484 47.1259 49.0215 47.8422 49.0215C48.272 49.0215 48.6503 48.9431 48.9771 48.7864C49.3084 48.6297 49.6084 48.379 49.877 48.0343L50.3807 48.4171C49.7897 49.2722 48.9324 49.6997 47.8086 49.6997ZM47.6609 42.8498C47.0565 42.8498 46.5461 43.0714 46.1297 43.5146C45.7178 43.9579 45.4671 44.5533 45.3776 45.301H49.736V45.2137C49.7136 44.5153 49.5144 43.9467 49.1383 43.5079C48.7622 43.0692 48.2698 42.8498 47.6609 42.8498ZM56.1226 48.4775L59.0103 42.2991H60.0042V49.5654H59.1983V43.6019L56.4046 49.5654H55.8338L52.9864 43.4676V49.5654H52.1872V42.2991H53.2416L56.1226 48.4775ZM68.1906 49.0215C68.7502 49.0215 69.2181 48.8648 69.5941 48.5514C69.9747 48.2335 70.1806 47.8238 70.212 47.3224H70.9843C70.9619 47.7656 70.8231 48.1708 70.5679 48.5379C70.3127 48.9006 69.9725 49.1849 69.5471 49.3908C69.1263 49.5968 68.6741 49.6997 68.1906 49.6997C67.237 49.6997 66.4803 49.3684 65.9207 48.7058C65.3655 48.0432 65.088 47.1523 65.088 46.033V45.7912C65.088 45.0749 65.2133 44.4414 65.464 43.8907C65.7147 43.34 66.0729 42.9147 66.5385 42.6147C67.0086 42.3148 67.5571 42.1648 68.1839 42.1648C68.9808 42.1648 69.6367 42.4021 70.1515 42.8767C70.6709 43.3512 70.9485 43.9758 70.9843 44.7503H70.212C70.1762 44.1817 69.9702 43.7228 69.5941 43.3736C69.2225 43.0244 68.7524 42.8498 68.1839 42.8498C67.4586 42.8498 66.8945 43.1117 66.4915 43.6355C66.0931 44.1593 65.8938 44.8936 65.8938 45.8383V46.0733C65.8938 47.0001 66.0931 47.7231 66.4915 48.2424C66.8945 48.7618 67.4608 49.0215 68.1906 49.0215ZM81.9375 49.5654H75.8128V48.9476L79.1639 45.1465C79.7191 44.5063 80.1041 43.978 80.319 43.5617C80.5339 43.1453 80.6414 42.7401 80.6414 42.3461C80.6414 41.7283 80.46 41.2403 80.0974 40.8821C79.7348 40.5195 79.2356 40.3381 78.5998 40.3381C77.9417 40.3381 77.4089 40.5486 77.0015 40.9694C76.5985 41.3903 76.3971 41.9365 76.3971 42.608H75.5979C75.5979 42.0573 75.721 41.5559 75.9673 41.1037C76.218 40.6515 76.5717 40.2979 77.0283 40.0427C77.4895 39.783 78.0133 39.6532 78.5998 39.6532C79.4952 39.6532 80.1937 39.8882 80.6951 40.3583C81.201 40.8284 81.454 41.4686 81.454 42.279C81.454 42.7356 81.3107 43.2348 81.0242 43.7766C80.7421 44.3183 80.2429 44.9943 79.5266 45.8047L76.8 48.8872H81.9375V49.5654ZM89.3381 45.489C89.3381 46.868 89.0852 47.9156 88.5792 48.632C88.0733 49.3438 87.3279 49.6997 86.3429 49.6997C85.3759 49.6997 84.6349 49.3505 84.1201 48.6521C83.6052 47.9492 83.341 46.9284 83.3276 45.5898V43.837C83.3276 42.4625 83.5828 41.4216 84.0932 40.7142C84.6036 40.0068 85.349 39.6532 86.3295 39.6532C87.2966 39.6532 88.0353 39.9956 88.5457 40.6806C89.0561 41.3612 89.3202 42.3663 89.3381 43.696V45.489ZM88.5322 43.7363C88.5322 42.617 88.3487 41.7708 87.9815 41.1977C87.6189 40.6247 87.0682 40.3381 86.3295 40.3381C85.6042 40.3381 85.058 40.618 84.6909 41.1776C84.3238 41.7372 84.1357 42.5633 84.1268 43.6557V45.5763C84.1268 46.6911 84.3148 47.544 84.6909 48.135C85.0714 48.726 85.6221 49.0215 86.3429 49.0215C87.0593 49.0215 87.601 48.7327 87.9681 48.1551C88.3397 47.5776 88.5278 46.7314 88.5322 45.6166V43.7363ZM96.9671 45.489C96.9671 46.868 96.7141 47.9156 96.2082 48.632C95.7023 49.3438 94.9569 49.6997 93.9719 49.6997C93.0048 49.6997 92.2639 49.3505 91.749 48.6521C91.2342 47.9492 90.97 46.9284 90.9566 45.5898V43.837C90.9566 42.4625 91.2118 41.4216 91.7222 40.7142C92.2326 40.0068 92.978 39.6532 93.9585 39.6532C94.9255 39.6532 95.6642 39.9956 96.1746 40.6806C96.685 41.3612 96.9492 42.3663 96.9671 43.696V45.489ZM96.1612 43.7363C96.1612 42.617 95.9776 41.7708 95.6105 41.1977C95.2479 40.6247 94.6972 40.3381 93.9585 40.3381C93.2332 40.3381 92.687 40.618 92.3199 41.1776C91.9527 41.7372 91.7647 42.5633 91.7557 43.6557V45.5763C91.7557 46.6911 91.9438 47.544 92.3199 48.135C92.7004 48.726 93.2511 49.0215 93.9719 49.0215C94.6882 49.0215 95.23 48.7327 95.5971 48.1551C95.9687 47.5776 96.1567 46.7314 96.1612 45.6166V43.7363ZM104.824 49.5654H98.6997V48.9476L102.051 45.1465C102.606 44.5063 102.991 43.978 103.206 43.5617C103.421 43.1453 103.528 42.7401 103.528 42.3461C103.528 41.7283 103.347 41.2403 102.984 40.8821C102.622 40.5195 102.122 40.3381 101.487 40.3381C100.829 40.3381 100.296 40.5486 99.8884 40.9694C99.4854 41.3903 99.284 41.9365 99.284 42.608H98.4848C98.4848 42.0573 98.6079 41.5559 98.8542 41.1037C99.1049 40.6515 99.4586 40.2979 99.9152 40.0427C100.376 39.783 100.9 39.6532 101.487 39.6532C102.382 39.6532 103.081 39.8882 103.582 40.3583C104.088 40.8284 104.341 41.4686 104.341 42.279C104.341 42.7356 104.198 43.2348 103.911 43.7766C103.629 44.3183 103.13 44.9943 102.413 45.8047L99.6869 48.8872H104.824V49.5654ZM114.327 42.9908H110.654V49.5654H109.848V42.2991H114.327V42.9908ZM115.025 45.8248C115.025 45.1264 115.16 44.4974 115.428 43.9377C115.701 43.3781 116.084 42.9438 116.577 42.6349C117.074 42.3215 117.636 42.1648 118.262 42.1648C119.229 42.1648 120.013 42.5051 120.613 43.1856C121.213 43.8616 121.513 44.7593 121.513 45.8785V46.0464C121.513 46.7493 121.376 47.3828 121.103 47.947C120.834 48.5066 120.454 48.9386 119.961 49.2431C119.469 49.5475 118.907 49.6997 118.276 49.6997C117.313 49.6997 116.53 49.3617 115.925 48.6857C115.325 48.0052 115.025 47.1053 115.025 45.986V45.8248ZM115.831 46.0464C115.831 46.915 116.055 47.6291 116.503 48.1887C116.955 48.7439 117.546 49.0215 118.276 49.0215C119.001 49.0215 119.588 48.7439 120.035 48.1887C120.487 47.6291 120.714 46.8926 120.714 45.9793V45.8248C120.714 45.2697 120.611 44.7615 120.405 44.3004C120.199 43.8392 119.91 43.4833 119.538 43.2326C119.167 42.9774 118.741 42.8498 118.262 42.8498C117.546 42.8498 116.962 43.1319 116.51 43.696C116.057 44.2556 115.831 44.9898 115.831 45.8987V46.0464ZM122.527 48.8872L122.883 48.4238C123.447 47.6582 123.771 46.5389 123.856 45.066L123.984 42.2991H128.275V48.8872H129.028V51.701H128.228V49.5654H122.769V51.701H121.996L122.003 48.8872H122.527ZM123.454 48.8872H127.469V43.0513H124.75L124.662 44.9384C124.582 46.671 124.179 47.9873 123.454 48.8872ZM135.166 49.5654C135.085 49.3371 135.034 48.9991 135.011 48.5514C134.729 48.9185 134.369 49.2028 133.93 49.4043C133.496 49.6012 133.035 49.6997 132.547 49.6997C131.848 49.6997 131.282 49.505 130.847 49.1155C130.418 48.726 130.203 48.2335 130.203 47.638C130.203 46.9307 130.496 46.371 131.083 45.9591C131.673 45.5472 132.495 45.3413 133.547 45.3413H135.004V44.5153C135.004 43.9959 134.843 43.5885 134.521 43.293C134.203 42.9931 133.737 42.8431 133.124 42.8431C132.564 42.8431 132.101 42.9863 131.734 43.2729C131.367 43.5594 131.183 43.9041 131.183 44.3071L130.377 44.3004C130.377 43.7228 130.646 43.2236 131.183 42.8028C131.72 42.3775 132.381 42.1648 133.164 42.1648C133.975 42.1648 134.613 42.3685 135.078 42.7759C135.548 43.1789 135.79 43.743 135.804 44.4683V47.9067C135.804 48.6096 135.877 49.1356 136.025 49.4848V49.5654H135.166ZM132.641 48.9879C133.178 48.9879 133.657 48.858 134.078 48.5984C134.503 48.3387 134.812 47.9917 135.004 47.5575V45.9591H133.567C132.766 45.9681 132.139 46.1158 131.687 46.4024C131.235 46.6844 131.009 47.0739 131.009 47.5709C131.009 47.9783 131.159 48.3163 131.459 48.5849C131.763 48.8536 132.157 48.9879 132.641 48.9879Z" fill="white"/>
</svg>
