<svg width="242" height="71" viewBox="0 0 242 71" fill="none" xmlns="http://www.w3.org/2000/svg">
<path fill-rule="evenodd" clip-rule="evenodd" d="M52.8663 14.4533C55.0377 21.4067 54.3812 25.7 53.0683 32.6533L56.5526 33.4467L67.5107 22.62C67.3592 22.34 67.3087 22.06 67.3087 21.7333C67.3087 20.66 68.2176 19.82 69.3791 19.82C70.591 19.82 71.5 20.66 71.5 21.7333C71.5 22.8533 70.591 23.6933 69.3791 23.6933C69.0761 23.6933 68.7226 23.6467 68.4701 23.5067L58.1181 33.7733C55.4922 37.7867 52.0583 40.4467 48.17 43.34L49.3314 44.3667L51.6543 46.4667L62.2084 55.8933C62.4609 55.8 62.7639 55.7067 63.1174 55.7067C64.2788 55.7067 65.2383 56.5933 65.2383 57.6667C65.2383 58.74 64.2788 59.6267 63.1174 59.6267C61.9559 59.6267 60.9964 58.74 60.9964 57.6667C60.9964 57.3867 61.0469 57.1533 61.1479 56.92L50.2909 47.2133C47.4125 48.4733 42.5142 49.36 40.0903 48.8933L40.1913 50.62L43.8272 66.2067H43.8777C45.0391 66.2067 45.9986 67.0467 45.9986 68.12C45.9986 69.24 45.0391 70.08 43.8777 70.08C42.7162 70.08 41.7568 69.24 41.7568 68.12C41.7568 67.6067 42.0092 67.0933 42.4132 66.72L39.3834 53.8867C35.2425 52.9067 32.3642 51.9267 28.2738 50.2467L28.2233 53.9333L28.3748 66.6733C29.2333 66.9067 29.8393 67.6533 29.8393 68.54C29.8393 69.6133 28.8798 70.5 27.7184 70.5C26.5569 70.5 25.5974 69.6133 25.5974 68.54C25.5974 67.7467 26.1024 67.0933 26.8094 66.7667L26.6579 53.5133C22.0626 50.9467 21.6586 49.9667 17.6188 45.6733L17.5683 47.3533L18.3257 61.1667C19.2347 61.4 19.8912 62.1467 19.8912 63.0333C19.8912 64.1533 18.9317 64.9933 17.7703 64.9933C16.6088 64.9933 15.6494 64.1533 15.6494 63.0333C15.6494 62.2867 16.1038 61.6333 16.8108 61.3067L15.9018 45.9533C14.3869 44.3667 14.3869 43.3867 13.0235 40.68C12.8215 40.82 11.9125 41.38 11.8115 41.4267L12.1145 51.7867C12.973 52.0667 13.5789 52.7667 13.5789 53.6533C13.5789 54.7267 12.6195 55.6133 11.458 55.6133C10.2966 55.6133 9.33713 54.7267 9.33713 53.6533C9.33713 52.86 9.84211 52.16 10.5491 51.88L10.0946 36.7133C9.8926 34.8 9.9431 32.7933 10.0441 31.58L9.38762 31.7667L7.21622 41.52C7.6707 41.8467 8.02418 42.4067 8.02418 43.0133C8.02418 44.1333 7.06472 44.9733 5.90327 44.9733C4.74182 44.9733 3.78236 44.1333 3.78236 43.0133C3.78236 41.9867 4.64083 41.1467 5.70128 41.1L8.32717 29.5733C8.42817 28.92 8.57966 28.3133 8.73115 27.66L8.93314 27.0533C9.48862 25.42 10.3976 23.9267 11.761 22.6667L9.69061 22.5733L4.53983 26.8667C4.69132 27.1467 4.74182 27.4267 4.74182 27.7533C4.74182 28.8267 3.78236 29.7133 2.62091 29.7133C1.45946 29.7133 0.5 28.8267 0.5 27.7533C0.5 26.68 1.45946 25.7933 2.62091 25.7933C2.9239 25.7933 3.17639 25.84 3.37838 25.9333L7.5192 22.4333C9.08464 19.8667 14.4374 16.4133 17.5178 15.4333L16.2553 13.4267L10.3471 14.5933C10.1451 15.4333 9.28663 16.04 8.32717 16.04C7.16572 16.04 6.20626 15.1533 6.20626 14.08C6.20626 13.0067 7.16572 12.12 8.32717 12.12C9.13514 12.12 9.84211 12.54 10.1956 13.1933L15.3969 12.12C19.7902 11.0933 22.7191 9.97333 27.4154 10.9533V7.26667L21.2546 6.8C20.9011 7.36 20.2447 7.78 19.4367 7.78C18.2752 7.78 17.3158 6.89333 17.3158 5.82C17.3158 4.74667 18.2752 3.86 19.4367 3.86C20.4467 3.86 21.3051 4.51333 21.5071 5.4L27.5164 5.86667C31.7582 6.94 35.293 9.32 38.7774 11.7L39.4339 7.78L35.495 4.28C35.293 4.32667 35.0405 4.37333 34.7881 4.37333C33.5761 4.37333 32.6671 3.53333 32.6671 2.41333C32.6671 1.34 33.5761 0.5 34.7881 0.5C35.9495 0.5 36.8585 1.34 36.8585 2.41333C36.8585 2.74 36.808 3.06667 36.6565 3.3L39.9388 6.24C44.6856 9.78667 45.7966 11.8867 47.766 17.3L51.2504 14.4533L49.2304 9.50667C49.1294 9.50667 49.0789 9.50667 48.978 9.50667C47.8165 9.50667 46.9075 8.66667 46.9075 7.54667C46.9075 6.47333 47.8165 5.63333 48.978 5.63333C50.1899 5.63333 51.0989 6.47333 51.0989 7.54667C51.0989 8.06 50.8969 8.52667 50.5939 8.85333L52.4623 13.4733C52.5633 13.6133 52.8158 14.3133 52.8663 14.4533ZM31.6067 12.12C42.6152 12.12 51.5533 20.3333 51.5533 30.5067C51.5533 40.68 42.6152 48.94 31.6067 48.94C20.5982 48.94 11.7105 40.68 11.7105 30.5067C11.7105 20.3333 20.5982 12.12 31.6067 12.12Z" fill="#306C80"/>
<path fill-rule="evenodd" clip-rule="evenodd" d="M31.7624 14.1113C41.448 14.1113 49.2475 21.2774 49.2475 30.1296C49.2475 39.0286 41.448 46.1947 31.7624 46.1947C22.1278 46.1947 14.2773 39.0286 14.2773 30.1296C14.2773 21.2774 22.1278 14.1113 31.7624 14.1113ZM28.9077 17.6241C27.3274 17.6241 26.002 18.8419 26.002 20.2938C26.002 20.6685 26.104 21.0432 26.2569 21.3711C25.7471 20.7153 24.8805 20.2938 23.912 20.2938C22.3317 20.2938 21.0063 21.4647 21.0063 22.9167C21.0063 23.8066 21.4651 24.556 22.1788 25.0243C21.8219 24.9307 21.4651 24.837 21.0573 24.837C19.426 24.837 18.1516 26.0079 18.1516 27.5067C18.1516 28.9586 19.426 30.1764 21.0573 30.1764C22.6376 30.1764 23.9629 28.9586 23.9629 27.5067C23.9629 26.6168 23.5042 25.8674 22.7905 25.399C23.1473 25.5395 23.5042 25.5864 23.912 25.5864C25.4923 25.5864 26.8177 24.4155 26.8177 22.9167C26.8177 22.542 26.7157 22.1673 26.5628 21.8394C27.0725 22.4951 27.9391 22.9635 28.9077 22.9635C30.386 22.9635 31.5585 21.9331 31.7624 20.6685C31.9663 21.9331 33.1898 22.9635 34.6171 22.9635C35.5857 22.9635 36.4523 22.542 37.013 21.8394C36.8091 22.1673 36.7581 22.542 36.7581 22.9635C36.7581 24.4155 38.0326 25.5864 39.6128 25.5864C40.0207 25.5864 40.3775 25.5395 40.7343 25.399C40.0716 25.8674 39.6128 26.6636 39.6128 27.5067C39.6128 28.9586 40.8873 30.1764 42.5185 30.1764C44.0988 30.1764 45.3732 28.9586 45.3732 27.5067C45.3732 26.0548 44.0988 24.837 42.5185 24.837C42.1107 24.837 41.7029 24.9307 41.397 25.0712C42.0597 24.556 42.5185 23.8066 42.5185 22.9635C42.5185 21.4647 41.2441 20.2938 39.6128 20.2938C38.6443 20.2938 37.8287 20.7153 37.2679 21.3711C37.4208 21.0432 37.5228 20.6685 37.5228 20.2938C37.5228 18.8419 36.2484 17.6241 34.6171 17.6241C33.1898 17.6241 31.9663 18.6545 31.7624 19.9191C31.6095 18.6545 30.386 17.6241 28.9077 17.6241ZM28.9077 42.6819C27.3274 42.6819 26.002 41.511 26.002 40.0122C26.002 39.6375 26.104 39.2628 26.2569 38.9349C25.7471 39.5906 24.8805 40.059 23.912 40.059C22.3317 40.059 21.0063 38.8412 21.0063 37.3893C21.0063 36.4994 21.4651 35.75 22.1788 35.2816C21.8219 35.4221 21.4651 35.469 21.0573 35.469C19.426 35.469 18.1516 34.2981 18.1516 32.7993C18.1516 31.3473 19.426 30.1764 21.0573 30.1764C22.6376 30.1764 23.9629 31.3473 23.9629 32.7993C23.9629 33.6892 23.5042 34.4386 22.7905 34.9069C23.1473 34.8133 23.5042 34.7196 23.912 34.7196C25.4923 34.7196 26.8177 35.8905 26.8177 37.3893C26.8177 37.764 26.7157 38.1387 26.5628 38.4666C27.0725 37.8108 27.9391 37.3893 28.9077 37.3893C30.386 37.3893 31.6095 38.3729 31.7624 39.6843C31.9663 38.3729 33.1898 37.3893 34.6171 37.3893C35.5857 37.3893 36.4523 37.8108 37.013 38.4666C36.8091 38.1387 36.7581 37.764 36.7581 37.3893C36.7581 35.9374 38.0326 34.7196 39.6128 34.7196C40.0207 34.7196 40.3775 34.8133 40.7343 34.9538C40.0716 34.4386 39.6128 33.6892 39.6128 32.8461C39.6128 31.3473 40.8873 30.1764 42.5185 30.1764C44.0988 30.1764 45.3732 31.3473 45.3732 32.8461C45.3732 34.2981 44.0988 35.469 42.5185 35.469C42.1107 35.469 41.7029 35.4221 41.397 35.2816C42.0597 35.75 42.5185 36.5462 42.5185 37.3893C42.5185 38.8412 41.2441 40.059 39.6128 40.059C38.6443 40.059 37.8287 39.5906 37.2679 38.9349C37.4208 39.2628 37.5228 39.6375 37.5228 40.059C37.5228 41.511 36.2484 42.6819 34.6171 42.6819C33.1898 42.6819 31.9663 41.6983 31.7624 40.3869C31.5585 41.6983 30.386 42.6819 28.9077 42.6819ZM31.7624 25.6332C34.4642 25.6332 36.7072 27.6472 36.7072 30.1296C36.7072 32.6588 34.4642 34.6728 31.7624 34.6728C29.0606 34.6728 26.8686 32.6588 26.8686 30.1296C26.8686 27.6472 29.0606 25.6332 31.7624 25.6332Z" fill="#306C80"/>
<path d="M101.092 14.2392V33.2827H96.901V14.2392H101.092ZM108.084 19.868V33.2827H103.894V19.868H108.084ZM103.646 16.4089C103.646 15.8138 103.86 15.3261 104.29 14.9459C104.72 14.5657 105.278 14.3756 105.964 14.3756C106.65 14.3756 107.208 14.5657 107.638 14.9459C108.068 15.3261 108.282 15.8138 108.282 16.4089C108.282 17.004 108.068 17.4917 107.638 17.8719C107.208 18.2521 106.65 18.4422 105.964 18.4422C105.278 18.4422 104.72 18.2521 104.29 17.8719C103.86 17.4917 103.646 17.004 103.646 16.4089ZM114.767 22.7319V33.2827H110.588V19.868H114.506L114.767 22.7319ZM114.271 26.1166L113.291 26.1414C113.291 25.1165 113.415 24.2032 113.663 23.4014C113.911 22.5914 114.262 21.9054 114.717 21.3433C115.172 20.7813 115.713 20.3556 116.341 20.0663C116.978 19.7688 117.684 19.62 118.461 19.62C119.081 19.62 119.647 19.7109 120.16 19.8928C120.681 20.0746 121.127 20.368 121.499 20.773C121.879 21.178 122.168 21.7153 122.367 22.3848C122.573 23.046 122.677 23.8643 122.677 24.8396V33.2827H118.474V24.8272C118.474 24.29 118.399 23.8808 118.251 23.5998C118.102 23.3105 117.887 23.1121 117.606 23.0047C117.325 22.8972 116.982 22.8435 116.577 22.8435C116.147 22.8435 115.783 22.9262 115.486 23.0915C115.188 23.2568 114.948 23.4882 114.767 23.7858C114.593 24.0751 114.465 24.4181 114.382 24.8148C114.308 25.2116 114.271 25.6455 114.271 26.1166ZM131.492 33.5307C130.401 33.5307 129.425 33.3612 128.566 33.0224C127.706 32.6752 126.979 32.1999 126.384 31.5966C125.797 30.9932 125.346 30.2989 125.032 29.5137C124.726 28.7285 124.574 27.8978 124.574 27.0217V26.5505C124.574 25.567 124.71 24.6578 124.983 23.823C125.255 22.9799 125.66 22.2443 126.198 21.6161C126.735 20.9879 127.409 20.5003 128.219 20.1531C129.029 19.7977 129.971 19.62 131.045 19.62C131.996 19.62 132.847 19.7729 133.599 20.0787C134.352 20.3846 134.988 20.8226 135.509 21.3929C136.038 21.9633 136.439 22.6534 136.711 23.4634C136.992 24.2734 137.133 25.1826 137.133 26.191V27.8895H126.173V25.2735H133.054V24.9512C133.062 24.5049 132.984 24.1247 132.818 23.8106C132.661 23.4965 132.43 23.2568 132.124 23.0915C131.818 22.9262 131.446 22.8435 131.008 22.8435C130.554 22.8435 130.177 22.9427 129.88 23.1411C129.591 23.3394 129.363 23.6122 129.198 23.9593C129.041 24.2982 128.929 24.6908 128.863 25.1372C128.797 25.5835 128.764 26.0546 128.764 26.5505V27.0217C128.764 27.5176 128.83 27.9681 128.962 28.3731C129.103 28.7781 129.301 29.1252 129.558 29.4145C129.822 29.6955 130.136 29.9146 130.5 30.0716C130.872 30.2287 131.293 30.3072 131.764 30.3072C132.335 30.3072 132.897 30.1997 133.451 29.9848C134.004 29.7699 134.48 29.4145 134.876 28.9186L136.773 31.175C136.501 31.5635 136.112 31.9396 135.608 32.3033C135.112 32.6669 134.517 32.9645 133.823 33.1959C133.128 33.4191 132.351 33.5307 131.492 33.5307ZM145.799 29.9104V24.3809C145.799 24.0007 145.745 23.6742 145.638 23.4014C145.53 23.1287 145.361 22.9179 145.13 22.7691C144.898 22.6121 144.588 22.5336 144.2 22.5336C143.886 22.5336 143.617 22.5873 143.394 22.6947C143.171 22.8022 143.001 22.9634 142.886 23.1783C142.77 23.3932 142.712 23.6659 142.712 23.9965H138.534C138.534 23.3766 138.67 22.8022 138.943 22.2732C139.224 21.736 139.621 21.269 140.133 20.8722C140.654 20.4755 141.274 20.1697 141.993 19.9548C142.72 19.7316 143.53 19.62 144.423 19.62C145.489 19.62 146.44 19.7977 147.274 20.1531C148.118 20.5085 148.783 21.0417 149.271 21.7525C149.758 22.455 150.002 23.3394 150.002 24.4057V29.898C150.002 30.7742 150.052 31.4395 150.151 31.8941C150.25 32.3405 150.391 32.7331 150.572 33.0719V33.2827H146.382C146.183 32.8694 146.035 32.3653 145.935 31.7701C145.845 31.1668 145.799 30.5469 145.799 29.9104ZM146.307 25.0876L146.332 27.3192H144.485C144.096 27.3192 143.766 27.373 143.493 27.4804C143.229 27.5879 143.014 27.7366 142.848 27.9267C142.691 28.1086 142.576 28.3152 142.501 28.5466C142.435 28.7781 142.402 29.0219 142.402 29.2781C142.402 29.5261 142.46 29.7493 142.576 29.9476C142.7 30.1377 142.865 30.2865 143.072 30.394C143.278 30.5014 143.51 30.5551 143.766 30.5551C144.229 30.5551 144.621 30.4683 144.944 30.2948C145.274 30.1129 145.526 29.8939 145.7 29.6377C145.873 29.3814 145.96 29.1418 145.96 28.9186L146.878 30.6295C146.712 30.9601 146.522 31.2949 146.307 31.6338C146.101 31.9726 145.84 32.2867 145.526 32.576C145.221 32.857 144.844 33.0885 144.398 33.2703C143.952 33.4439 143.41 33.5307 142.774 33.5307C141.947 33.5307 141.187 33.3612 140.493 33.0224C139.807 32.6835 139.257 32.2123 138.844 31.609C138.43 30.9973 138.224 30.2948 138.224 29.5013C138.224 28.807 138.348 28.1871 138.596 27.6416C138.852 27.0961 139.236 26.6332 139.749 26.253C140.261 25.8728 140.914 25.5835 141.708 25.3851C142.501 25.1868 143.435 25.0876 144.51 25.0876H146.307ZM156.536 23.1907V33.2827H152.358V19.868H156.263L156.536 23.1907ZM160.503 19.7688L160.429 23.6494C160.264 23.6329 160.04 23.6122 159.759 23.5874C159.478 23.5626 159.243 23.5502 159.053 23.5502C158.565 23.5502 158.143 23.6081 157.788 23.7238C157.441 23.8312 157.152 23.9965 156.92 24.2197C156.697 24.4346 156.532 24.7074 156.424 25.038C156.325 25.3686 156.28 25.7529 156.288 26.191L155.532 25.6951C155.532 24.7942 155.618 23.9759 155.792 23.2403C155.974 22.4964 156.23 21.8558 156.561 21.3186C156.891 20.773 157.292 20.3556 157.763 20.0663C158.234 19.7688 158.763 19.62 159.35 19.62C159.557 19.62 159.759 19.6324 159.958 19.6572C160.164 19.682 160.346 19.7192 160.503 19.7688ZM166.157 22.7071V33.2827H161.979V19.868H165.896L166.157 22.7071ZM165.648 26.1166L164.694 26.1414C164.694 25.1992 164.805 24.3313 165.029 23.5378C165.252 22.7443 165.582 22.0542 166.02 21.4673C166.458 20.8805 166.996 20.4259 167.632 20.1035C168.277 19.7812 169.021 19.62 169.864 19.62C170.451 19.62 170.984 19.7109 171.463 19.8928C171.943 20.0663 172.356 20.3432 172.703 20.7234C173.05 21.0954 173.315 21.583 173.496 22.1864C173.687 22.7815 173.782 23.4965 173.782 24.3313V33.2827H169.603V24.8644C169.603 24.2941 169.537 23.8643 169.405 23.575C169.281 23.2857 169.099 23.0915 168.86 22.9923C168.62 22.8931 168.326 22.8435 167.979 22.8435C167.616 22.8435 167.289 22.9262 167 23.0915C166.711 23.2568 166.463 23.4882 166.256 23.7858C166.058 24.0751 165.905 24.4181 165.797 24.8148C165.698 25.2116 165.648 25.6455 165.648 26.1166ZM173.31 26.1166L172.145 26.1414C172.145 25.1992 172.248 24.3313 172.455 23.5378C172.67 22.7443 172.988 22.0542 173.41 21.4673C173.839 20.8805 174.373 20.4259 175.009 20.1035C175.645 19.7812 176.385 19.62 177.228 19.62C177.84 19.62 178.402 19.7109 178.914 19.8928C179.427 20.0746 179.869 20.368 180.241 20.773C180.613 21.178 180.902 21.7153 181.109 22.3848C181.316 23.046 181.419 23.8643 181.419 24.8396V33.2827H177.228V24.8396C177.228 24.2858 177.162 23.8684 177.03 23.5874C176.906 23.2981 176.724 23.1039 176.484 23.0047C176.245 22.8972 175.96 22.8435 175.629 22.8435C175.232 22.8435 174.889 22.9262 174.6 23.0915C174.311 23.2568 174.067 23.4882 173.868 23.7858C173.678 24.0751 173.538 24.4181 173.447 24.8148C173.356 25.2116 173.31 25.6455 173.31 26.1166ZM183.291 26.7117V26.4514C183.291 25.4678 183.431 24.5627 183.712 23.7362C183.993 22.9014 184.407 22.1782 184.952 21.5665C185.498 20.9549 186.171 20.4796 186.973 20.1407C187.775 19.7936 188.701 19.62 189.75 19.62C190.808 19.62 191.738 19.7936 192.54 20.1407C193.35 20.4796 194.028 20.9549 194.573 21.5665C195.119 22.1782 195.532 22.9014 195.813 23.7362C196.094 24.5627 196.235 25.4678 196.235 26.4514V26.7117C196.235 27.687 196.094 28.5921 195.813 29.4269C195.532 30.2534 195.119 30.9767 194.573 31.5966C194.028 32.2082 193.354 32.6835 192.552 33.0224C191.751 33.3612 190.825 33.5307 189.775 33.5307C188.725 33.5307 187.796 33.3612 186.986 33.0224C186.176 32.6835 185.498 32.2082 184.952 31.5966C184.407 30.9767 183.993 30.2534 183.712 29.4269C183.431 28.5921 183.291 27.687 183.291 26.7117ZM187.469 26.4514V26.7117C187.469 27.2159 187.506 27.687 187.581 28.1251C187.655 28.5632 187.779 28.9475 187.953 29.2781C188.126 29.6005 188.362 29.8526 188.659 30.0344C188.957 30.2163 189.329 30.3072 189.775 30.3072C190.213 30.3072 190.577 30.2163 190.866 30.0344C191.164 29.8526 191.399 29.6005 191.573 29.2781C191.746 28.9475 191.87 28.5632 191.945 28.1251C192.019 27.687 192.056 27.2159 192.056 26.7117V26.4514C192.056 25.9637 192.019 25.505 191.945 25.0752C191.87 24.6371 191.746 24.2528 191.573 23.9222C191.399 23.5833 191.164 23.3188 190.866 23.1287C190.569 22.9386 190.197 22.8435 189.75 22.8435C189.312 22.8435 188.944 22.9386 188.647 23.1287C188.358 23.3188 188.126 23.5833 187.953 23.9222C187.779 24.2528 187.655 24.6371 187.581 25.0752C187.506 25.505 187.469 25.9637 187.469 26.4514ZM205.161 19.868V22.7691H197.078V19.868H205.161ZM198.776 16.5329H202.954V28.9062C202.954 29.2616 202.996 29.5385 203.078 29.7369C203.161 29.927 203.301 30.0633 203.5 30.146C203.706 30.2204 203.979 30.2576 204.318 30.2576C204.558 30.2576 204.756 30.2534 204.913 30.2452C205.07 30.2287 205.219 30.208 205.36 30.1832V33.1711C205.004 33.2868 204.632 33.3736 204.244 33.4315C203.855 33.4976 203.442 33.5307 203.004 33.5307C202.111 33.5307 201.347 33.3902 200.71 33.1091C200.082 32.8281 199.603 32.3859 199.272 31.7825C198.941 31.1792 198.776 30.394 198.776 29.4269V16.5329ZM211.236 19.868V33.2827H207.046V19.868H211.236ZM206.798 16.4089C206.798 15.8138 207.013 15.3261 207.442 14.9459C207.872 14.5657 208.43 14.3756 209.116 14.3756C209.802 14.3756 210.36 14.5657 210.79 14.9459C211.22 15.3261 211.435 15.8138 211.435 16.4089C211.435 17.004 211.22 17.4917 210.79 17.8719C210.36 18.2521 209.802 18.4422 209.116 18.4422C208.43 18.4422 207.872 18.2521 207.442 17.8719C207.013 17.4917 206.798 17.004 206.798 16.4089ZM213.294 26.7117V26.4514C213.294 25.4678 213.435 24.5627 213.716 23.7362C213.997 22.9014 214.41 22.1782 214.956 21.5665C215.501 20.9549 216.175 20.4796 216.977 20.1407C217.778 19.7936 218.704 19.62 219.754 19.62C220.812 19.62 221.742 19.7936 222.543 20.1407C223.353 20.4796 224.031 20.9549 224.577 21.5665C225.122 22.1782 225.535 22.9014 225.816 23.7362C226.097 24.5627 226.238 25.4678 226.238 26.4514V26.7117C226.238 27.687 226.097 28.5921 225.816 29.4269C225.535 30.2534 225.122 30.9767 224.577 31.5966C224.031 32.2082 223.357 32.6835 222.556 33.0224C221.754 33.3612 220.828 33.5307 219.779 33.5307C218.729 33.5307 217.799 33.3612 216.989 33.0224C216.179 32.6835 215.501 32.2082 214.956 31.5966C214.41 30.9767 213.997 30.2534 213.716 29.4269C213.435 28.5921 213.294 27.687 213.294 26.7117ZM217.472 26.4514V26.7117C217.472 27.2159 217.51 27.687 217.584 28.1251C217.658 28.5632 217.782 28.9475 217.956 29.2781C218.13 29.6005 218.365 29.8526 218.663 30.0344C218.96 30.2163 219.332 30.3072 219.779 30.3072C220.217 30.3072 220.58 30.2163 220.87 30.0344C221.167 29.8526 221.403 29.6005 221.576 29.2781C221.75 28.9475 221.874 28.5632 221.948 28.1251C222.023 27.687 222.06 27.2159 222.06 26.7117V26.4514C222.06 25.9637 222.023 25.505 221.948 25.0752C221.874 24.6371 221.75 24.2528 221.576 23.9222C221.403 23.5833 221.167 23.3188 220.87 23.1287C220.572 22.9386 220.2 22.8435 219.754 22.8435C219.316 22.8435 218.948 22.9386 218.65 23.1287C218.361 23.3188 218.13 23.5833 217.956 23.9222C217.782 24.2528 217.658 24.6371 217.584 25.0752C217.51 25.505 217.472 25.9637 217.472 26.4514ZM232.201 22.7319V33.2827H228.023V19.868H231.941L232.201 22.7319ZM231.705 26.1166L230.726 26.1414C230.726 25.1165 230.85 24.2032 231.098 23.4014C231.346 22.5914 231.697 21.9054 232.152 21.3433C232.606 20.7813 233.148 20.3556 233.776 20.0663C234.412 19.7688 235.119 19.62 235.896 19.62C236.516 19.62 237.082 19.7109 237.595 19.8928C238.115 20.0746 238.562 20.368 238.934 20.773C239.314 21.178 239.603 21.7153 239.801 22.3848C240.008 23.046 240.111 23.8643 240.111 24.8396V33.2827H235.908V24.8272C235.908 24.29 235.834 23.8808 235.685 23.5998C235.537 23.3105 235.322 23.1121 235.041 23.0047C234.76 22.8972 234.417 22.8435 234.012 22.8435C233.582 22.8435 233.218 22.9262 232.921 23.0915C232.623 23.2568 232.383 23.4882 232.201 23.7858C232.028 24.0751 231.9 24.4181 231.817 24.8148C231.743 25.2116 231.705 25.6455 231.705 26.1166Z" fill="#306C80"/>
<path d="M97.3468 52.9787V61.6418H96.5409V51.5818H97.2931L97.3468 52.9787ZM102.397 55.1478V55.2889C102.397 55.8306 102.334 56.3275 102.209 56.7797C102.084 57.2319 101.902 57.6237 101.665 57.955C101.432 58.2818 101.143 58.5347 100.799 58.7138C100.454 58.8929 100.062 58.9825 99.6234 58.9825C99.1891 58.9825 98.8019 58.9153 98.4616 58.781C98.1213 58.6467 97.8281 58.4564 97.5818 58.2102C97.3401 57.9594 97.1453 57.6684 96.9976 57.3371C96.8543 57.0013 96.7536 56.6342 96.6954 56.2358V54.3755C96.7625 53.9368 96.8722 53.5383 97.0244 53.1801C97.1767 52.822 97.3714 52.5131 97.6087 52.2534C97.8505 51.9937 98.137 51.7945 98.4683 51.6557C98.7996 51.5169 99.1779 51.4475 99.6033 51.4475C100.046 51.4475 100.44 51.5348 100.785 51.7094C101.134 51.8796 101.428 52.128 101.665 52.4549C101.907 52.7772 102.088 53.1667 102.209 53.6234C102.334 54.0756 102.397 54.5837 102.397 55.1478ZM101.591 55.2889V55.1478C101.591 54.7225 101.546 54.3285 101.457 53.9659C101.372 53.6032 101.24 53.2876 101.061 53.019C100.886 52.7459 100.662 52.5332 100.389 52.381C100.12 52.2288 99.8002 52.1527 99.4286 52.1527C99.0436 52.1527 98.7146 52.2176 98.4414 52.3474C98.1728 52.4728 97.949 52.6407 97.7699 52.8511C97.5908 53.057 97.4498 53.2831 97.3468 53.5294C97.2438 53.7756 97.1677 54.0174 97.1185 54.2546V56.3969C97.2035 56.7372 97.3401 57.0528 97.5281 57.3438C97.7162 57.6304 97.9669 57.8609 98.2803 58.0356C98.5981 58.2057 98.9854 58.2907 99.4421 58.2907C99.8092 58.2907 100.127 58.2146 100.396 58.0624C100.664 57.9102 100.886 57.6975 101.061 57.4244C101.24 57.1513 101.372 56.8335 101.457 56.4708C101.546 56.1082 101.591 55.7142 101.591 55.2889ZM108.602 57.5453V53.798C108.602 53.4533 108.531 53.1555 108.387 52.9048C108.244 52.6541 108.034 52.4616 107.756 52.3273C107.478 52.1929 107.136 52.1258 106.729 52.1258C106.352 52.1258 106.017 52.1929 105.721 52.3273C105.43 52.4571 105.2 52.6339 105.029 52.8578C104.864 53.0772 104.781 53.3212 104.781 53.5898L103.975 53.5831C103.975 53.31 104.042 53.0458 104.177 52.7906C104.311 52.5354 104.501 52.3071 104.747 52.1056C104.994 51.9042 105.287 51.7452 105.627 51.6288C105.972 51.508 106.35 51.4475 106.762 51.4475C107.281 51.4475 107.738 51.5348 108.132 51.7094C108.531 51.884 108.842 52.1459 109.066 52.4952C109.289 52.8444 109.401 53.2831 109.401 53.8114V57.3237C109.401 57.5744 109.419 57.8341 109.455 58.1027C109.495 58.3713 109.551 58.593 109.623 58.7676V58.8481H108.77C108.716 58.687 108.674 58.4855 108.643 58.2437C108.616 57.9975 108.602 57.7647 108.602 57.5453ZM108.79 54.6173L108.804 55.2351H107.226C106.814 55.2351 106.444 55.2732 106.117 55.3493C105.795 55.4209 105.522 55.5284 105.298 55.6716C105.074 55.8104 104.902 55.9783 104.781 56.1753C104.665 56.3723 104.606 56.5962 104.606 56.8469C104.606 57.1066 104.671 57.3438 104.801 57.5587C104.935 57.7736 105.124 57.946 105.365 58.0758C105.612 58.2012 105.903 58.2639 106.238 58.2639C106.686 58.2639 107.08 58.1811 107.42 58.0154C107.765 57.8498 108.049 57.6326 108.273 57.364C108.497 57.0954 108.647 56.8021 108.723 56.4842L109.072 56.9476C109.014 57.1715 108.907 57.402 108.75 57.6393C108.598 57.8721 108.398 58.0915 108.152 58.2975C107.906 58.4989 107.615 58.6646 107.279 58.7944C106.948 58.9198 106.572 58.9825 106.151 58.9825C105.676 58.9825 105.262 58.8929 104.909 58.7138C104.559 58.5347 104.286 58.2907 104.089 57.9818C103.897 57.6684 103.801 57.3147 103.801 56.9208C103.801 56.5626 103.877 56.2425 104.029 55.9604C104.181 55.6739 104.4 55.4321 104.687 55.2351C104.978 55.0337 105.327 54.8814 105.735 54.7785C106.147 54.671 106.608 54.6173 107.118 54.6173H108.79ZM116.271 48.4188H116.963C116.963 48.7545 116.903 49.0344 116.782 49.2582C116.665 49.4821 116.5 49.6634 116.285 49.8022C116.07 49.941 115.817 50.0507 115.526 50.1312C115.239 50.2074 114.926 50.2723 114.586 50.326C114.169 50.3887 113.787 50.5252 113.437 50.7357C113.093 50.9461 112.797 51.2349 112.551 51.602C112.305 51.9646 112.119 52.4146 111.994 52.9518C111.873 53.4846 111.823 54.1091 111.846 54.8255V55.45H111.154V54.8255C111.154 54.0375 111.23 53.3391 111.382 52.7302C111.539 52.1168 111.761 51.593 112.047 51.1587C112.338 50.7245 112.683 50.3797 113.082 50.1245C113.484 49.8649 113.93 49.6947 114.418 49.6141C114.875 49.5425 115.237 49.4552 115.506 49.3522C115.779 49.2493 115.974 49.1217 116.09 48.9694C116.211 48.8172 116.271 48.6337 116.271 48.4188ZM114.485 52.0586C114.96 52.0586 115.387 52.1392 115.768 52.3004C116.148 52.4616 116.473 52.6899 116.742 52.9854C117.015 53.2764 117.223 53.6211 117.366 54.0196C117.514 54.4136 117.588 54.8456 117.588 55.3157V55.5306C117.588 56.0321 117.512 56.4932 117.359 56.914C117.212 57.3349 116.997 57.6998 116.715 58.0087C116.437 58.3176 116.099 58.5571 115.701 58.7273C115.307 58.8974 114.866 58.9825 114.378 58.9825C113.885 58.9825 113.442 58.8974 113.048 58.7273C112.654 58.5571 112.316 58.3176 112.034 58.0087C111.752 57.6998 111.535 57.3349 111.382 56.914C111.23 56.4932 111.154 56.0321 111.154 55.5306V55.3157C111.154 55.1859 111.168 55.0583 111.194 54.9329C111.226 54.8076 111.264 54.6845 111.309 54.5636C111.353 54.4382 111.398 54.3151 111.443 54.1942C111.6 53.7868 111.821 53.4241 112.108 53.1063C112.394 52.7839 112.737 52.5287 113.135 52.3407C113.538 52.1527 113.988 52.0586 114.485 52.0586ZM114.364 52.7436C113.84 52.7436 113.399 52.8645 113.041 53.1063C112.688 53.3436 112.419 53.6592 112.235 54.0532C112.052 54.4427 111.96 54.8635 111.96 55.3157V55.5306C111.96 55.9022 112.012 56.2537 112.114 56.585C112.217 56.9163 112.37 57.2118 112.571 57.4714C112.777 57.7266 113.03 57.9281 113.33 58.0758C113.63 58.2236 113.979 58.2975 114.378 58.2975C114.772 58.2975 115.119 58.2236 115.419 58.0758C115.719 57.9281 115.969 57.7266 116.171 57.4714C116.372 57.2118 116.524 56.9163 116.627 56.585C116.73 56.2537 116.782 55.9022 116.782 55.5306V55.3157C116.782 54.9755 116.73 54.6509 116.627 54.342C116.524 54.033 116.37 53.7599 116.164 53.5226C115.963 53.2809 115.71 53.0906 115.405 52.9518C115.105 52.813 114.758 52.7436 114.364 52.7436ZM118.689 55.3292V55.1075C118.689 54.5792 118.765 54.0912 118.917 53.6435C119.07 53.1958 119.287 52.8085 119.569 52.4817C119.855 52.1549 120.198 51.9019 120.596 51.7229C120.995 51.5393 121.438 51.4475 121.926 51.4475C122.419 51.4475 122.864 51.5393 123.262 51.7229C123.661 51.9019 124.003 52.1549 124.29 52.4817C124.576 52.8085 124.796 53.1958 124.948 53.6435C125.1 54.0912 125.176 54.5792 125.176 55.1075V55.3292C125.176 55.8574 125.1 56.3455 124.948 56.7932C124.796 57.2364 124.576 57.6214 124.29 57.9482C124.008 58.2751 123.668 58.5303 123.269 58.7138C122.871 58.8929 122.427 58.9825 121.939 58.9825C121.447 58.9825 121.002 58.8929 120.603 58.7138C120.205 58.5303 119.862 58.2751 119.576 57.9482C119.289 57.6214 119.07 57.2364 118.917 56.7932C118.765 56.3455 118.689 55.8574 118.689 55.3292ZM119.488 55.1075V55.3292C119.488 55.7276 119.542 56.1059 119.649 56.4641C119.757 56.8178 119.914 57.1334 120.12 57.411C120.325 57.6841 120.581 57.899 120.885 58.0557C121.19 58.2124 121.541 58.2907 121.939 58.2907C122.333 58.2907 122.68 58.2124 122.98 58.0557C123.285 57.899 123.54 57.6841 123.746 57.411C123.952 57.1334 124.106 56.8178 124.209 56.4641C124.317 56.1059 124.371 55.7276 124.371 55.3292V55.1075C124.371 54.7136 124.317 54.3397 124.209 53.986C124.106 53.6323 123.95 53.3167 123.739 53.0391C123.533 52.7615 123.278 52.5422 122.974 52.381C122.669 52.2198 122.32 52.1392 121.926 52.1392C121.532 52.1392 121.183 52.2198 120.878 52.381C120.578 52.5422 120.323 52.7615 120.113 53.0391C119.907 53.3167 119.75 53.6323 119.643 53.986C119.54 54.3397 119.488 54.7136 119.488 55.1075ZM129.26 51.5818V58.8481H128.46V51.5818H129.26ZM131.905 51.5818V52.2668H125.908V51.5818H131.905ZM137.547 57.5453V53.798C137.547 53.4533 137.475 53.1555 137.332 52.9048C137.188 52.6541 136.978 52.4616 136.7 52.3273C136.423 52.1929 136.08 52.1258 135.673 52.1258C135.297 52.1258 134.961 52.1929 134.666 52.3273C134.375 52.4571 134.144 52.6339 133.974 52.8578C133.808 53.0772 133.725 53.3212 133.725 53.5898L132.92 53.5831C132.92 53.31 132.987 53.0458 133.121 52.7906C133.255 52.5354 133.446 52.3071 133.692 52.1056C133.938 51.9042 134.231 51.7452 134.572 51.6288C134.916 51.508 135.295 51.4475 135.707 51.4475C136.226 51.4475 136.683 51.5348 137.077 51.7094C137.475 51.884 137.786 52.1459 138.01 52.4952C138.234 52.8444 138.346 53.2831 138.346 53.8114V57.3237C138.346 57.5744 138.364 57.8341 138.399 58.1027C138.44 58.3713 138.496 58.593 138.567 58.7676V58.8481H137.714C137.661 58.687 137.618 58.4855 137.587 58.2437C137.56 57.9975 137.547 57.7647 137.547 57.5453ZM137.735 54.6173L137.748 55.2351H136.17C135.758 55.2351 135.389 55.2732 135.062 55.3493C134.739 55.4209 134.466 55.5284 134.243 55.6716C134.019 55.8104 133.846 55.9783 133.725 56.1753C133.609 56.3723 133.551 56.5962 133.551 56.8469C133.551 57.1066 133.616 57.3438 133.746 57.5587C133.88 57.7736 134.068 57.946 134.31 58.0758C134.556 58.2012 134.847 58.2639 135.183 58.2639C135.63 58.2639 136.024 58.1811 136.365 58.0154C136.709 57.8498 136.994 57.6326 137.218 57.364C137.441 57.0954 137.591 56.8021 137.667 56.4842L138.017 56.9476C137.958 57.1715 137.851 57.402 137.694 57.6393C137.542 57.8721 137.343 58.0915 137.097 58.2975C136.85 58.4989 136.559 58.6646 136.224 58.7944C135.892 58.9198 135.516 58.9825 135.095 58.9825C134.621 58.9825 134.207 58.8929 133.853 58.7138C133.504 58.5347 133.231 58.2907 133.034 57.9818C132.841 57.6684 132.745 57.3147 132.745 56.9208C132.745 56.5626 132.821 56.2425 132.973 55.9604C133.125 55.6739 133.345 55.4321 133.631 55.2351C133.922 55.0337 134.272 54.8814 134.679 54.7785C135.091 54.671 135.552 54.6173 136.062 54.6173H137.735ZM143.309 58.9825C142.834 58.9825 142.398 58.8952 141.999 58.7205C141.605 58.5459 141.26 58.2997 140.965 57.9818C140.674 57.664 140.448 57.2879 140.287 56.8536C140.13 56.4148 140.052 55.9358 140.052 55.4165V55.1277C140.052 54.568 140.134 54.0621 140.3 53.6099C140.466 53.1578 140.694 52.7705 140.985 52.4481C141.276 52.1258 141.607 51.8796 141.979 51.7094C142.355 51.5348 142.749 51.4475 143.161 51.4475C143.622 51.4475 144.032 51.5303 144.39 51.696C144.748 51.8572 145.048 52.0877 145.29 52.3877C145.536 52.6832 145.722 53.0346 145.847 53.4421C145.972 53.845 146.035 54.2905 146.035 54.7785V55.2687H140.535V54.5837H145.236V54.4897C145.227 54.0823 145.144 53.7017 144.988 53.348C144.835 52.9899 144.607 52.6989 144.303 52.475C143.998 52.2512 143.618 52.1392 143.161 52.1392C142.821 52.1392 142.507 52.2109 142.221 52.3541C141.939 52.4974 141.695 52.7033 141.489 52.972C141.287 53.2361 141.131 53.5517 141.019 53.9189C140.911 54.2815 140.857 54.6845 140.857 55.1277V55.4165C140.857 55.8194 140.916 56.1955 141.032 56.5447C141.153 56.8894 141.323 57.1939 141.542 57.458C141.766 57.7222 142.03 57.9281 142.335 58.0758C142.639 58.2236 142.975 58.2975 143.342 58.2975C143.772 58.2975 144.153 58.2191 144.484 58.0624C144.815 57.9012 145.113 57.6483 145.377 57.3035L145.881 57.6931C145.724 57.9259 145.527 58.1408 145.29 58.3378C145.057 58.5347 144.777 58.6914 144.45 58.8079C144.123 58.9243 143.743 58.9825 143.309 58.9825ZM151.636 57.7468L154.524 51.5818H155.323L151.918 58.8481H151.354L147.956 51.5818H148.755L151.636 57.7468ZM148.507 51.5818V58.8481H147.707V51.5818H148.507ZM154.712 58.8481V51.5818H155.518V58.8481H154.712ZM163.717 58.2907C164.058 58.2907 164.376 58.2281 164.671 58.1027C164.971 57.9729 165.217 57.7826 165.41 57.5319C165.607 57.2767 165.719 56.9655 165.746 56.5984H166.511C166.489 57.0595 166.348 57.4714 166.088 57.8341C165.833 58.1923 165.497 58.4743 165.081 58.6803C164.669 58.8817 164.214 58.9825 163.717 58.9825C163.212 58.9825 162.764 58.8907 162.374 58.7071C161.989 58.5236 161.667 58.2684 161.407 57.9415C161.148 57.6102 160.951 57.2252 160.816 56.7864C160.686 56.3432 160.622 55.8664 160.622 55.356V55.074C160.622 54.5636 160.686 54.089 160.816 53.6502C160.951 53.207 161.148 52.822 161.407 52.4952C161.667 52.1638 161.989 51.9064 162.374 51.7229C162.759 51.5393 163.205 51.4475 163.711 51.4475C164.23 51.4475 164.696 51.5527 165.108 51.7631C165.524 51.9736 165.855 52.2713 166.101 52.6563C166.352 53.0414 166.489 53.498 166.511 54.0263H165.746C165.723 53.6368 165.62 53.301 165.437 53.019C165.253 52.7369 165.011 52.5198 164.711 52.3676C164.411 52.2153 164.078 52.1392 163.711 52.1392C163.299 52.1392 162.947 52.2198 162.656 52.381C162.365 52.5377 162.128 52.7548 161.945 53.0324C161.765 53.3055 161.633 53.6189 161.548 53.9726C161.463 54.3218 161.421 54.6889 161.421 55.074V55.356C161.421 55.7455 161.461 56.1171 161.542 56.4708C161.627 56.82 161.759 57.1312 161.938 57.4043C162.121 57.6774 162.359 57.8945 162.65 58.0557C162.945 58.2124 163.301 58.2907 163.717 58.2907ZM177.478 58.1564V58.8481H171.36V58.2236L174.563 54.5904C174.962 54.1382 175.28 53.742 175.517 53.4018C175.754 53.057 175.924 52.7436 176.027 52.4616C176.135 52.175 176.188 51.8975 176.188 51.6288C176.188 51.2349 176.11 50.8879 175.953 50.5879C175.801 50.2879 175.573 50.0529 175.268 49.8828C174.964 49.7126 174.588 49.6276 174.14 49.6276C173.692 49.6276 173.303 49.7238 172.972 49.9163C172.64 50.1089 172.385 50.3775 172.206 50.7222C172.031 51.0625 171.944 51.4498 171.944 51.884H171.145C171.145 51.3468 171.264 50.8543 171.501 50.4066C171.743 49.9589 172.087 49.603 172.535 49.3388C172.983 49.0702 173.518 48.9359 174.14 48.9359C174.731 48.9359 175.239 49.0411 175.665 49.2515C176.09 49.4574 176.417 49.7552 176.645 50.1447C176.878 50.5342 176.994 51.0043 176.994 51.555C176.994 51.8505 176.941 52.1482 176.833 52.4481C176.73 52.7481 176.587 53.0481 176.403 53.348C176.224 53.6435 176.018 53.9368 175.785 54.2278C175.557 54.5188 175.318 54.8053 175.067 55.0874L172.34 58.1564H177.478ZM184.878 53.1197V54.765C184.878 55.4814 184.811 56.1059 184.677 56.6387C184.543 57.167 184.346 57.6058 184.086 57.955C183.831 58.2997 183.517 58.5571 183.146 58.7273C182.779 58.8974 182.358 58.9825 181.883 58.9825C181.507 58.9825 181.162 58.9287 180.849 58.8213C180.536 58.7138 180.256 58.5504 180.01 58.331C179.768 58.1072 179.562 57.8274 179.392 57.4916C179.222 57.1558 179.092 56.7618 179.002 56.3096C178.913 55.853 178.868 55.3381 178.868 54.765V53.1197C178.868 52.3989 178.935 51.7766 179.069 51.2528C179.208 50.7289 179.405 50.2947 179.66 49.9499C179.92 49.6052 180.236 49.35 180.607 49.1843C180.979 49.0142 181.4 48.9291 181.87 48.9291C182.246 48.9291 182.591 48.9851 182.904 49.097C183.222 49.2045 183.502 49.3657 183.743 49.5806C183.99 49.7955 184.196 50.0708 184.361 50.4066C184.531 50.7379 184.659 51.1296 184.744 51.5818C184.834 52.034 184.878 52.5466 184.878 53.1197ZM184.079 54.8591V53.019C184.079 52.5757 184.048 52.1728 183.985 51.8102C183.927 51.4475 183.84 51.1296 183.723 50.8565C183.607 50.5834 183.459 50.3551 183.28 50.1715C183.105 49.988 182.9 49.8514 182.662 49.7619C182.429 49.6679 182.165 49.6209 181.87 49.6209C181.507 49.6209 181.187 49.6947 180.909 49.8425C180.636 49.9857 180.408 50.2006 180.224 50.4872C180.041 50.7692 179.902 51.1229 179.808 51.5482C179.719 51.9736 179.674 52.4638 179.674 53.019V54.8591C179.674 55.2978 179.703 55.6985 179.761 56.0612C179.819 56.4193 179.909 56.7372 180.03 57.0148C180.151 57.2924 180.298 57.5274 180.473 57.7199C180.652 57.908 180.858 58.0512 181.091 58.1497C181.328 58.2437 181.592 58.2907 181.883 58.2907C182.255 58.2907 182.577 58.2169 182.85 58.0691C183.123 57.9169 183.352 57.6953 183.535 57.4043C183.719 57.1088 183.855 56.7484 183.945 56.3231C184.034 55.8933 184.079 55.4053 184.079 54.8591ZM192.507 53.1197V54.765C192.507 55.4814 192.44 56.1059 192.306 56.6387C192.172 57.167 191.975 57.6058 191.715 57.955C191.46 58.2997 191.146 58.5571 190.775 58.7273C190.408 58.8974 189.987 58.9825 189.512 58.9825C189.136 58.9825 188.791 58.9287 188.478 58.8213C188.165 58.7138 187.885 58.5504 187.639 58.331C187.397 58.1072 187.191 57.8274 187.021 57.4916C186.851 57.1558 186.721 56.7618 186.631 56.3096C186.542 55.853 186.497 55.3381 186.497 54.765V53.1197C186.497 52.3989 186.564 51.7766 186.698 51.2528C186.837 50.7289 187.034 50.2947 187.289 49.9499C187.549 49.6052 187.865 49.35 188.236 49.1843C188.608 49.0142 189.029 48.9291 189.499 48.9291C189.875 48.9291 190.22 48.9851 190.533 49.097C190.851 49.2045 191.131 49.3657 191.372 49.5806C191.619 49.7955 191.825 50.0708 191.99 50.4066C192.16 50.7379 192.288 51.1296 192.373 51.5818C192.463 52.034 192.507 52.5466 192.507 53.1197ZM191.708 54.8591V53.019C191.708 52.5757 191.677 52.1728 191.614 51.8102C191.556 51.4475 191.469 51.1296 191.352 50.8565C191.236 50.5834 191.088 50.3551 190.909 50.1715C190.734 49.988 190.528 49.8514 190.291 49.7619C190.058 49.6679 189.794 49.6209 189.499 49.6209C189.136 49.6209 188.816 49.6947 188.538 49.8425C188.265 49.9857 188.037 50.2006 187.853 50.4872C187.67 50.7692 187.531 51.1229 187.437 51.5482C187.348 51.9736 187.303 52.4638 187.303 53.019V54.8591C187.303 55.2978 187.332 55.6985 187.39 56.0612C187.448 56.4193 187.538 56.7372 187.659 57.0148C187.78 57.2924 187.927 57.5274 188.102 57.7199C188.281 57.908 188.487 58.0512 188.72 58.1497C188.957 58.2437 189.221 58.2907 189.512 58.2907C189.884 58.2907 190.206 58.2169 190.479 58.0691C190.752 57.9169 190.981 57.6953 191.164 57.4043C191.348 57.1088 191.484 56.7484 191.574 56.3231C191.663 55.8933 191.708 55.4053 191.708 54.8591ZM200.365 58.1564V58.8481H194.247V58.2236L197.45 54.5904C197.849 54.1382 198.166 53.742 198.404 53.4018C198.641 53.057 198.811 52.7436 198.914 52.4616C199.022 52.175 199.075 51.8975 199.075 51.6288C199.075 51.2349 198.997 50.8879 198.84 50.5879C198.688 50.2879 198.46 50.0529 198.155 49.8828C197.851 49.7126 197.475 49.6276 197.027 49.6276C196.579 49.6276 196.19 49.7238 195.858 49.9163C195.527 50.1089 195.272 50.3775 195.093 50.7222C194.918 51.0625 194.831 51.4498 194.831 51.884H194.032C194.032 51.3468 194.15 50.8543 194.388 50.4066C194.63 49.9589 194.974 49.603 195.422 49.3388C195.87 49.0702 196.405 48.9359 197.027 48.9359C197.618 48.9359 198.126 49.0411 198.551 49.2515C198.977 49.4574 199.304 49.7552 199.532 50.1447C199.765 50.5342 199.881 51.0043 199.881 51.555C199.881 51.8505 199.827 52.1482 199.72 52.4481C199.617 52.7481 199.474 53.0481 199.29 53.348C199.111 53.6435 198.905 53.9368 198.672 54.2278C198.444 54.5188 198.204 54.8053 197.954 55.0874L195.227 58.1564H200.365ZM209.887 51.5818V52.2803H206.207V58.8481H205.408V51.5818H209.887ZM210.586 55.3292V55.1075C210.586 54.5792 210.662 54.0912 210.814 53.6435C210.966 53.1958 211.184 52.8085 211.466 52.4817C211.752 52.1549 212.095 51.9019 212.493 51.7229C212.892 51.5393 213.335 51.4475 213.823 51.4475C214.315 51.4475 214.761 51.5393 215.159 51.7229C215.558 51.9019 215.9 52.1549 216.187 52.4817C216.473 52.8085 216.693 53.1958 216.845 53.6435C216.997 54.0912 217.073 54.5792 217.073 55.1075V55.3292C217.073 55.8574 216.997 56.3455 216.845 56.7932C216.693 57.2364 216.473 57.6214 216.187 57.9482C215.905 58.2751 215.564 58.5303 215.166 58.7138C214.767 58.8929 214.324 58.9825 213.836 58.9825C213.344 58.9825 212.898 58.8929 212.5 58.7138C212.101 58.5303 211.759 58.2751 211.472 57.9482C211.186 57.6214 210.966 57.2364 210.814 56.7932C210.662 56.3455 210.586 55.8574 210.586 55.3292ZM211.385 55.1075V55.3292C211.385 55.7276 211.439 56.1059 211.546 56.4641C211.654 56.8178 211.81 57.1334 212.016 57.411C212.222 57.6841 212.477 57.899 212.782 58.0557C213.086 58.2124 213.438 58.2907 213.836 58.2907C214.23 58.2907 214.577 58.2124 214.877 58.0557C215.182 57.899 215.437 57.6841 215.643 57.411C215.849 57.1334 216.003 56.8178 216.106 56.4641C216.214 56.1059 216.267 55.7276 216.267 55.3292V55.1075C216.267 54.7136 216.214 54.3397 216.106 53.986C216.003 53.6323 215.846 53.3167 215.636 53.0391C215.43 52.7615 215.175 52.5422 214.87 52.381C214.566 52.2198 214.217 52.1392 213.823 52.1392C213.429 52.1392 213.08 52.2198 212.775 52.381C212.475 52.5422 212.22 52.7615 212.01 53.0391C211.804 53.3167 211.647 53.6323 211.539 53.986C211.437 54.3397 211.385 54.7136 211.385 55.1075ZM219.545 51.5818H220.344L220.223 54.2009C220.191 54.8994 220.113 55.506 219.988 56.0209C219.867 56.5313 219.717 56.9678 219.538 57.3304C219.359 57.6886 219.162 57.9908 218.947 58.237C218.736 58.4788 218.522 58.6825 218.302 58.8481H217.866L217.879 58.1631L218.081 58.1564C218.21 57.9997 218.345 57.8229 218.483 57.6259C218.627 57.4244 218.763 57.1782 218.893 56.8872C219.023 56.5962 219.135 56.2335 219.229 55.7992C219.323 55.365 219.386 54.8322 219.417 54.2009L219.545 51.5818ZM219.806 51.5818H223.829V58.8481H223.03V52.334H219.806V51.5818ZM217.557 58.1564H224.588V60.9837H223.782V58.8481H218.322V60.9837H217.557V58.1564ZM230.558 57.5453V53.798C230.558 53.4533 230.487 53.1555 230.343 52.9048C230.2 52.6541 229.99 52.4616 229.712 52.3273C229.434 52.1929 229.092 52.1258 228.684 52.1258C228.308 52.1258 227.973 52.1929 227.677 52.3273C227.386 52.4571 227.156 52.6339 226.985 52.8578C226.82 53.0772 226.737 53.3212 226.737 53.5898L225.931 53.5831C225.931 53.31 225.998 53.0458 226.133 52.7906C226.267 52.5354 226.457 52.3071 226.703 52.1056C226.95 51.9042 227.243 51.7452 227.583 51.6288C227.928 51.508 228.306 51.4475 228.718 51.4475C229.237 51.4475 229.694 51.5348 230.088 51.7094C230.487 51.884 230.798 52.1459 231.022 52.4952C231.245 52.8444 231.357 53.2831 231.357 53.8114V57.3237C231.357 57.5744 231.375 57.8341 231.411 58.1027C231.451 58.3713 231.507 58.593 231.579 58.7676V58.8481H230.726C230.672 58.687 230.63 58.4855 230.598 58.2437C230.572 57.9975 230.558 57.7647 230.558 57.5453ZM230.746 54.6173L230.76 55.2351H229.181C228.77 55.2351 228.4 55.2732 228.073 55.3493C227.751 55.4209 227.478 55.5284 227.254 55.6716C227.03 55.8104 226.858 55.9783 226.737 56.1753C226.621 56.3723 226.562 56.5962 226.562 56.8469C226.562 57.1066 226.627 57.3438 226.757 57.5587C226.891 57.7736 227.079 57.946 227.321 58.0758C227.567 58.2012 227.858 58.2639 228.194 58.2639C228.642 58.2639 229.036 58.1811 229.376 58.0154C229.721 57.8498 230.005 57.6326 230.229 57.364C230.453 57.0954 230.603 56.8021 230.679 56.4842L231.028 56.9476C230.97 57.1715 230.863 57.402 230.706 57.6393C230.554 57.8721 230.354 58.0915 230.108 58.2975C229.862 58.4989 229.571 58.6646 229.235 58.7944C228.904 58.9198 228.528 58.9825 228.107 58.9825C227.632 58.9825 227.218 58.8929 226.865 58.7138C226.515 58.5347 226.242 58.2907 226.045 57.9818C225.853 57.6684 225.756 57.3147 225.756 56.9208C225.756 56.5626 225.833 56.2425 225.985 55.9604C226.137 55.6739 226.356 55.4321 226.643 55.2351C226.934 55.0337 227.283 54.8814 227.691 54.7785C228.102 54.671 228.564 54.6173 229.074 54.6173H230.746Z" fill="#848A93"/>
</svg>
