<svg width="161" height="43" viewBox="0 0 161 43" fill="none" xmlns="http://www.w3.org/2000/svg">
<path fill-rule="evenodd" clip-rule="evenodd" d="M31.7148 8.45061C33.0299 12.6618 32.6323 15.262 31.8371 19.4731L33.9474 19.9536L40.5839 13.3966C40.4922 13.227 40.4616 13.0575 40.4616 12.8596C40.4616 12.2096 41.0121 11.7008 41.7155 11.7008C42.4495 11.7008 43 12.2096 43 12.8596C43 13.5379 42.4495 14.0467 41.7155 14.0467C41.532 14.0467 41.3179 14.0184 41.165 13.9336L34.8954 20.1515C33.3051 22.5821 31.2255 24.1931 28.8706 25.9454L29.574 26.5671L30.9808 27.839L37.3727 33.5481C37.5256 33.4916 37.7091 33.435 37.9232 33.435C38.6266 33.435 39.2077 33.972 39.2077 34.6221C39.2077 35.2721 38.6266 35.8091 37.9232 35.8091C37.2198 35.8091 36.6387 35.2721 36.6387 34.6221C36.6387 34.4525 36.6693 34.3112 36.7304 34.1699L30.155 28.2912C28.4118 29.0543 25.4452 29.5913 23.9772 29.3086L24.0384 30.3544L26.2404 39.7942H26.271C26.9744 39.7942 27.5555 40.3029 27.5555 40.953C27.5555 41.6313 26.9744 42.14 26.271 42.14C25.5676 42.14 24.9865 41.6313 24.9865 40.953C24.9865 40.6421 25.1394 40.3312 25.3841 40.1051L23.5491 32.3328C21.0413 31.7393 19.298 31.1457 16.8208 30.1283L16.7902 32.361L16.8819 40.0768C17.4018 40.2181 17.7688 40.6703 17.7688 41.2073C17.7688 41.8574 17.1878 42.3944 16.4844 42.3944C15.7809 42.3944 15.1999 41.8574 15.1999 41.2073C15.1999 40.7269 15.5057 40.3312 15.9339 40.1333L15.8421 32.1067C13.059 30.5522 12.8144 29.9587 10.3677 27.3585L10.3371 28.376L10.7959 36.7418C11.3464 36.8831 11.744 37.3353 11.744 37.8723C11.744 38.5506 11.1629 39.0593 10.4595 39.0593C9.75605 39.0593 9.17496 38.5506 9.17496 37.8723C9.17496 37.4201 9.45021 37.0244 9.87838 36.8266L9.32788 27.5281C8.41038 26.5671 8.41038 25.9736 7.58464 24.3344C7.4623 24.4192 6.91181 24.7583 6.85064 24.7866L7.03414 31.0609C7.55405 31.2305 7.92105 31.6545 7.92105 32.1915C7.92105 32.8415 7.33997 33.3785 6.63656 33.3785C5.93314 33.3785 5.35206 32.8415 5.35206 32.1915C5.35206 31.711 5.65789 31.287 6.08606 31.1175L5.81081 21.932C5.68848 20.7732 5.71906 19.5579 5.78023 18.8231L5.38265 18.9362L4.06757 24.8431C4.34282 25.0409 4.5569 25.3801 4.5569 25.7475C4.5569 26.4258 3.97582 26.9346 3.2724 26.9346C2.56899 26.9346 1.98791 26.4258 1.98791 25.7475C1.98791 25.1257 2.50782 24.617 3.15007 24.5887L4.7404 17.6078C4.80156 17.2121 4.89331 16.8447 4.98506 16.449L5.1074 16.0816C5.44381 15.0924 5.99431 14.188 6.82006 13.4249L5.56614 13.3684L2.44666 15.9685C2.53841 16.1381 2.56899 16.3077 2.56899 16.5055C2.56899 17.1556 1.98791 17.6926 1.28449 17.6926C0.581081 17.6926 0 17.1556 0 16.5055C0 15.8555 0.581081 15.3185 1.28449 15.3185C1.46799 15.3185 1.62091 15.3468 1.74324 15.4033L4.25107 13.2836C5.19915 11.7291 8.44097 9.63765 10.3065 9.04413L9.54196 7.82883L5.96373 8.5354C5.84139 9.04413 5.32148 9.41155 4.7404 9.41155C4.03698 9.41155 3.4559 8.87455 3.4559 8.22451C3.4559 7.57446 4.03698 7.03747 4.7404 7.03747C5.22973 7.03747 5.65789 7.29183 5.87198 7.68751L9.02205 7.03747C11.6828 6.41568 13.4566 5.73737 16.3009 6.33089V4.09812L12.5697 3.81549C12.3556 4.15465 11.958 4.40901 11.4687 4.40901C10.7653 4.40901 10.1842 3.87202 10.1842 3.22197C10.1842 2.57192 10.7653 2.03493 11.4687 2.03493C12.0804 2.03493 12.6003 2.43061 12.7226 2.96761L16.362 3.25023C18.931 3.90028 21.0718 5.34169 23.1821 6.7831L23.5797 4.40901L21.1942 2.2893C21.0718 2.31756 20.9189 2.34582 20.766 2.34582C20.032 2.34582 19.4815 1.83709 19.4815 1.15878C19.4815 0.508732 20.032 0 20.766 0C21.4694 0 22.0199 0.508732 22.0199 1.15878C22.0199 1.35662 21.9893 1.55446 21.8976 1.69577L23.8855 3.47634C26.7603 5.62432 27.4331 6.89615 28.6259 10.1746L30.7361 8.45061L29.5128 5.45474C29.4516 5.45474 29.4211 5.45474 29.3599 5.45474C28.6565 5.45474 28.106 4.94601 28.106 4.2677C28.106 3.61765 28.6565 3.10892 29.3599 3.10892C30.0939 3.10892 30.6444 3.61765 30.6444 4.2677C30.6444 4.57859 30.522 4.86122 30.3385 5.05906L31.4701 7.85709C31.5313 7.94188 31.6842 8.36582 31.7148 8.45061ZM18.8393 7.03747C25.5064 7.03747 30.9196 12.0117 30.9196 18.1731C30.9196 24.3344 25.5064 29.3369 18.8393 29.3369C12.1721 29.3369 6.78947 24.3344 6.78947 18.1731C6.78947 12.0117 12.1721 7.03747 18.8393 7.03747Z" fill="white"/>
<path fill-rule="evenodd" clip-rule="evenodd" d="M18.9333 8.24365C24.7992 8.24365 29.5228 12.5837 29.5228 17.9448C29.5228 23.3344 24.7992 27.6744 18.9333 27.6744C13.0982 27.6744 8.34375 23.3344 8.34375 17.9448C8.34375 12.5837 13.0982 8.24365 18.9333 8.24365ZM17.2044 10.3711C16.2473 10.3711 15.4446 11.1086 15.4446 11.988C15.4446 12.2149 15.5064 12.4418 15.599 12.6404C15.2902 12.2433 14.7654 11.988 14.1788 11.988C13.2217 11.988 12.419 12.6971 12.419 13.5765C12.419 14.1154 12.6969 14.5693 13.1291 14.8529C12.913 14.7962 12.6969 14.7395 12.4499 14.7395C11.462 14.7395 10.6901 15.4486 10.6901 16.3563C10.6901 17.2357 11.462 17.9732 12.4499 17.9732C13.407 17.9732 14.2097 17.2357 14.2097 16.3563C14.2097 15.8174 13.9318 15.3635 13.4996 15.0799C13.7157 15.165 13.9318 15.1933 14.1788 15.1933C15.1359 15.1933 15.9386 14.4842 15.9386 13.5765C15.9386 13.3495 15.8768 13.1226 15.7842 12.9241C16.093 13.3212 16.6178 13.6048 17.2044 13.6048C18.0997 13.6048 18.8098 12.9808 18.9333 12.2149C19.0568 12.9808 19.7978 13.6048 20.6622 13.6048C21.2488 13.6048 21.7736 13.3495 22.1132 12.9241C21.9898 13.1226 21.9589 13.3495 21.9589 13.6048C21.9589 14.4842 22.7307 15.1933 23.6878 15.1933C23.9348 15.1933 24.1509 15.165 24.367 15.0799C23.9656 15.3635 23.6878 15.8458 23.6878 16.3563C23.6878 17.2357 24.4596 17.9732 25.4476 17.9732C26.4046 17.9732 27.1765 17.2357 27.1765 16.3563C27.1765 15.477 26.4046 14.7395 25.4476 14.7395C25.2006 14.7395 24.9536 14.7962 24.7684 14.8813C25.1697 14.5693 25.4476 14.1154 25.4476 13.6048C25.4476 12.6971 24.6757 11.988 23.6878 11.988C23.1012 11.988 22.6072 12.2433 22.2676 12.6404C22.3602 12.4418 22.422 12.2149 22.422 11.988C22.422 11.1086 21.6501 10.3711 20.6622 10.3711C19.7978 10.3711 19.0568 10.9952 18.9333 11.761C18.8407 10.9952 18.0997 10.3711 17.2044 10.3711ZM17.2044 25.5469C16.2473 25.5469 15.4446 24.8378 15.4446 23.9301C15.4446 23.7032 15.5064 23.4762 15.599 23.2777C15.2902 23.6748 14.7654 23.9584 14.1788 23.9584C13.2217 23.9584 12.419 23.2209 12.419 22.3416C12.419 21.8026 12.6969 21.3488 13.1291 21.0651C12.913 21.1502 12.6969 21.1786 12.4499 21.1786C11.462 21.1786 10.6901 20.4694 10.6901 19.5617C10.6901 18.6824 11.462 17.9732 12.4499 17.9732C13.407 17.9732 14.2097 18.6824 14.2097 19.5617C14.2097 20.1007 13.9318 20.5545 13.4996 20.8382C13.7157 20.7814 13.9318 20.7247 14.1788 20.7247C15.1359 20.7247 15.9386 21.4339 15.9386 22.3416C15.9386 22.5685 15.8768 22.7954 15.7842 22.994C16.093 22.5969 16.6178 22.3416 17.2044 22.3416C18.0997 22.3416 18.8407 22.9373 18.9333 23.7315C19.0568 22.9373 19.7978 22.3416 20.6622 22.3416C21.2488 22.3416 21.7736 22.5969 22.1132 22.994C21.9898 22.7954 21.9589 22.5685 21.9589 22.3416C21.9589 21.4622 22.7307 20.7247 23.6878 20.7247C23.9348 20.7247 24.1509 20.7814 24.367 20.8665C23.9656 20.5545 23.6878 20.1007 23.6878 19.5901C23.6878 18.6824 24.4596 17.9732 25.4476 17.9732C26.4046 17.9732 27.1765 18.6824 27.1765 19.5901C27.1765 20.4694 26.4046 21.1786 25.4476 21.1786C25.2006 21.1786 24.9536 21.1502 24.7684 21.0651C25.1697 21.3488 25.4476 21.831 25.4476 22.3416C25.4476 23.2209 24.6757 23.9584 23.6878 23.9584C23.1012 23.9584 22.6072 23.6748 22.2676 23.2777C22.3602 23.4762 22.422 23.7032 22.422 23.9584C22.422 24.8378 21.6501 25.5469 20.6622 25.5469C19.7978 25.5469 19.0568 24.9513 18.9333 24.157C18.8098 24.9513 18.0997 25.5469 17.2044 25.5469ZM18.9333 15.2217C20.5696 15.2217 21.928 16.4414 21.928 17.9448C21.928 19.4766 20.5696 20.6964 18.9333 20.6964C17.297 20.6964 15.9695 19.4766 15.9695 17.9448C15.9695 16.4414 17.297 15.2217 18.9333 15.2217Z" fill="white"/>
<path d="M54.9639 3.19727V16.6973H51.9932V3.19727H54.9639ZM59.9209 7.1875V16.6973H56.9502V7.1875H59.9209ZM56.7744 4.73535C56.7744 4.31348 56.9268 3.96777 57.2314 3.69824C57.5361 3.42871 57.9316 3.29395 58.418 3.29395C58.9043 3.29395 59.2998 3.42871 59.6045 3.69824C59.9092 3.96777 60.0615 4.31348 60.0615 4.73535C60.0615 5.15723 59.9092 5.50293 59.6045 5.77246C59.2998 6.04199 58.9043 6.17676 58.418 6.17676C57.9316 6.17676 57.5361 6.04199 57.2314 5.77246C56.9268 5.50293 56.7744 5.15723 56.7744 4.73535ZM64.6582 9.21777V16.6973H61.6963V7.1875H64.4736L64.6582 9.21777ZM64.3066 11.6172L63.6123 11.6348C63.6123 10.9082 63.7002 10.2607 63.876 9.69238C64.0518 9.11816 64.3008 8.63184 64.623 8.2334C64.9453 7.83496 65.3291 7.5332 65.7744 7.32812C66.2256 7.11719 66.7266 7.01172 67.2773 7.01172C67.7168 7.01172 68.1182 7.07617 68.4814 7.20508C68.8506 7.33398 69.167 7.54199 69.4307 7.8291C69.7002 8.11621 69.9053 8.49707 70.0459 8.97168C70.1924 9.44043 70.2656 10.0205 70.2656 10.7119V16.6973H67.2861V10.7031C67.2861 10.3223 67.2334 10.0322 67.1279 9.83301C67.0225 9.62793 66.8701 9.4873 66.6709 9.41113C66.4717 9.33496 66.2285 9.29688 65.9414 9.29688C65.6367 9.29688 65.3789 9.35547 65.168 9.47266C64.957 9.58984 64.7871 9.75391 64.6582 9.96484C64.5352 10.1699 64.4443 10.4131 64.3857 10.6943C64.333 10.9756 64.3066 11.2832 64.3066 11.6172ZM76.5146 16.873C75.7412 16.873 75.0498 16.7529 74.4404 16.5127C73.8311 16.2666 73.3154 15.9297 72.8936 15.502C72.4775 15.0742 72.1582 14.582 71.9355 14.0254C71.7188 13.4688 71.6104 12.8799 71.6104 12.2588V11.9248C71.6104 11.2275 71.707 10.583 71.9004 9.99121C72.0938 9.39355 72.3809 8.87207 72.7617 8.42676C73.1426 7.98145 73.6201 7.63574 74.1943 7.38965C74.7686 7.1377 75.4365 7.01172 76.1982 7.01172C76.8721 7.01172 77.4756 7.12012 78.0088 7.33691C78.542 7.55371 78.9932 7.86426 79.3623 8.26855C79.7373 8.67285 80.0215 9.16211 80.2148 9.73633C80.4141 10.3105 80.5137 10.9551 80.5137 11.6699V12.874H72.7441V11.0195H77.6221V10.791C77.6279 10.4746 77.5723 10.2051 77.4551 9.98242C77.3438 9.75977 77.1797 9.58984 76.9629 9.47266C76.7461 9.35547 76.4824 9.29688 76.1719 9.29688C75.8496 9.29688 75.583 9.36719 75.3721 9.50781C75.167 9.64844 75.0059 9.8418 74.8887 10.0879C74.7773 10.3281 74.6982 10.6064 74.6514 10.9229C74.6045 11.2393 74.5811 11.5732 74.5811 11.9248V12.2588C74.5811 12.6104 74.6279 12.9297 74.7217 13.2168C74.8213 13.5039 74.9619 13.75 75.1436 13.9551C75.3311 14.1543 75.5537 14.3096 75.8115 14.4209C76.0752 14.5322 76.374 14.5879 76.708 14.5879C77.1123 14.5879 77.5107 14.5117 77.9033 14.3594C78.2959 14.207 78.6328 13.9551 78.9141 13.6035L80.2588 15.2031C80.0654 15.4785 79.79 15.7451 79.4326 16.0029C79.0811 16.2607 78.6592 16.4717 78.167 16.6357C77.6748 16.7939 77.124 16.873 76.5146 16.873ZM86.6572 14.3066V10.3867C86.6572 10.1172 86.6191 9.88574 86.543 9.69238C86.4668 9.49902 86.3467 9.34961 86.1826 9.24414C86.0186 9.13281 85.7988 9.07715 85.5234 9.07715C85.3008 9.07715 85.1104 9.11523 84.9521 9.19141C84.7939 9.26758 84.6738 9.38184 84.5918 9.53418C84.5098 9.68652 84.4688 9.87988 84.4688 10.1143H81.5068C81.5068 9.6748 81.6035 9.26758 81.7969 8.89258C81.9961 8.51172 82.2773 8.18066 82.6406 7.89941C83.0098 7.61816 83.4492 7.40137 83.959 7.24902C84.4746 7.09082 85.0488 7.01172 85.6816 7.01172C86.4375 7.01172 87.1113 7.1377 87.7031 7.38965C88.3008 7.6416 88.7725 8.01953 89.1182 8.52344C89.4639 9.02148 89.6367 9.64844 89.6367 10.4043V14.2979C89.6367 14.9189 89.6719 15.3906 89.7422 15.7129C89.8125 16.0293 89.9121 16.3076 90.041 16.5479V16.6973H87.0703C86.9297 16.4043 86.8242 16.0469 86.7539 15.625C86.6895 15.1973 86.6572 14.7578 86.6572 14.3066ZM87.0176 10.8877L87.0352 12.4697H85.7256C85.4502 12.4697 85.2158 12.5078 85.0225 12.584C84.835 12.6602 84.6826 12.7656 84.5654 12.9004C84.4541 13.0293 84.3721 13.1758 84.3193 13.3398C84.2725 13.5039 84.249 13.6768 84.249 13.8584C84.249 14.0342 84.29 14.1924 84.3721 14.333C84.46 14.4678 84.5771 14.5732 84.7236 14.6494C84.8701 14.7256 85.0342 14.7637 85.2158 14.7637C85.5439 14.7637 85.8223 14.7021 86.0508 14.5791C86.2852 14.4502 86.4639 14.2949 86.5869 14.1133C86.71 13.9316 86.7715 13.7617 86.7715 13.6035L87.4219 14.8164C87.3047 15.0508 87.1699 15.2881 87.0176 15.5283C86.8711 15.7686 86.6865 15.9912 86.4639 16.1963C86.2471 16.3955 85.9805 16.5596 85.6641 16.6885C85.3477 16.8115 84.9639 16.873 84.5127 16.873C83.9268 16.873 83.3877 16.7529 82.8955 16.5127C82.4092 16.2725 82.0195 15.9385 81.7266 15.5107C81.4336 15.0771 81.2871 14.5791 81.2871 14.0166C81.2871 13.5244 81.375 13.085 81.5508 12.6982C81.7324 12.3115 82.0049 11.9834 82.3682 11.7139C82.7314 11.4443 83.1943 11.2393 83.7568 11.0986C84.3193 10.958 84.9814 10.8877 85.7432 10.8877H87.0176ZM94.2686 9.54297V16.6973H91.3066V7.1875H94.0752L94.2686 9.54297ZM97.0811 7.11719L97.0283 9.86816C96.9111 9.85645 96.7529 9.8418 96.5537 9.82422C96.3545 9.80664 96.1875 9.79785 96.0527 9.79785C95.707 9.79785 95.4082 9.83887 95.1562 9.9209C94.9102 9.99707 94.7051 10.1143 94.541 10.2725C94.3828 10.4248 94.2656 10.6182 94.1895 10.8525C94.1191 11.0869 94.0869 11.3594 94.0928 11.6699L93.5566 11.3184C93.5566 10.6797 93.6182 10.0996 93.7412 9.57812C93.8701 9.05078 94.0518 8.59668 94.2861 8.21582C94.5205 7.8291 94.8047 7.5332 95.1387 7.32812C95.4727 7.11719 95.8477 7.01172 96.2637 7.01172C96.4102 7.01172 96.5537 7.02051 96.6943 7.03809C96.8408 7.05566 96.9697 7.08203 97.0811 7.11719ZM101.089 9.2002V16.6973H98.127V7.1875H100.904L101.089 9.2002ZM100.729 11.6172L100.052 11.6348C100.052 10.9668 100.131 10.3516 100.289 9.78906C100.447 9.22656 100.682 8.7373 100.992 8.32129C101.303 7.90527 101.684 7.58301 102.135 7.35449C102.592 7.12598 103.119 7.01172 103.717 7.01172C104.133 7.01172 104.511 7.07617 104.851 7.20508C105.19 7.32812 105.483 7.52441 105.729 7.79395C105.976 8.05762 106.163 8.40332 106.292 8.83105C106.427 9.25293 106.494 9.75977 106.494 10.3516V16.6973H103.532V10.7295C103.532 10.3252 103.485 10.0205 103.392 9.81543C103.304 9.61035 103.175 9.47266 103.005 9.40234C102.835 9.33203 102.627 9.29688 102.381 9.29688C102.123 9.29688 101.892 9.35547 101.687 9.47266C101.481 9.58984 101.306 9.75391 101.159 9.96484C101.019 10.1699 100.91 10.4131 100.834 10.6943C100.764 10.9756 100.729 11.2832 100.729 11.6172ZM106.16 11.6172L105.334 11.6348C105.334 10.9668 105.407 10.3516 105.554 9.78906C105.706 9.22656 105.932 8.7373 106.23 8.32129C106.535 7.90527 106.913 7.58301 107.364 7.35449C107.815 7.12598 108.34 7.01172 108.938 7.01172C109.371 7.01172 109.77 7.07617 110.133 7.20508C110.496 7.33398 110.81 7.54199 111.073 7.8291C111.337 8.11621 111.542 8.49707 111.688 8.97168C111.835 9.44043 111.908 10.0205 111.908 10.7119V16.6973H108.938V10.7119C108.938 10.3193 108.891 10.0234 108.797 9.82422C108.709 9.61914 108.58 9.48145 108.41 9.41113C108.24 9.33496 108.038 9.29688 107.804 9.29688C107.522 9.29688 107.279 9.35547 107.074 9.47266C106.869 9.58984 106.696 9.75391 106.556 9.96484C106.421 10.1699 106.321 10.4131 106.257 10.6943C106.192 10.9756 106.16 11.2832 106.16 11.6172ZM113.235 12.0391V11.8545C113.235 11.1572 113.335 10.5156 113.534 9.92969C113.733 9.33789 114.026 8.8252 114.413 8.3916C114.8 7.95801 115.277 7.62109 115.846 7.38086C116.414 7.13477 117.07 7.01172 117.814 7.01172C118.564 7.01172 119.224 7.13477 119.792 7.38086C120.366 7.62109 120.847 7.95801 121.233 8.3916C121.62 8.8252 121.913 9.33789 122.112 9.92969C122.312 10.5156 122.411 11.1572 122.411 11.8545V12.0391C122.411 12.7305 122.312 13.3721 122.112 13.9639C121.913 14.5498 121.62 15.0625 121.233 15.502C120.847 15.9355 120.369 16.2725 119.801 16.5127C119.232 16.7529 118.576 16.873 117.832 16.873C117.088 16.873 116.429 16.7529 115.854 16.5127C115.28 16.2725 114.8 15.9355 114.413 15.502C114.026 15.0625 113.733 14.5498 113.534 13.9639C113.335 13.3721 113.235 12.7305 113.235 12.0391ZM116.197 11.8545V12.0391C116.197 12.3965 116.224 12.7305 116.276 13.041C116.329 13.3516 116.417 13.624 116.54 13.8584C116.663 14.0869 116.83 14.2656 117.041 14.3945C117.252 14.5234 117.516 14.5879 117.832 14.5879C118.143 14.5879 118.4 14.5234 118.605 14.3945C118.816 14.2656 118.983 14.0869 119.106 13.8584C119.229 13.624 119.317 13.3516 119.37 13.041C119.423 12.7305 119.449 12.3965 119.449 12.0391V11.8545C119.449 11.5088 119.423 11.1836 119.37 10.8789C119.317 10.5684 119.229 10.2959 119.106 10.0615C118.983 9.82129 118.816 9.63379 118.605 9.49902C118.395 9.36426 118.131 9.29688 117.814 9.29688C117.504 9.29688 117.243 9.36426 117.032 9.49902C116.827 9.63379 116.663 9.82129 116.54 10.0615C116.417 10.2959 116.329 10.5684 116.276 10.8789C116.224 11.1836 116.197 11.5088 116.197 11.8545ZM128.739 7.1875V9.24414H123.009V7.1875H128.739ZM124.213 4.82324H127.175V13.5947C127.175 13.8467 127.204 14.043 127.263 14.1836C127.321 14.3184 127.421 14.415 127.562 14.4736C127.708 14.5264 127.901 14.5527 128.142 14.5527C128.312 14.5527 128.452 14.5498 128.563 14.5439C128.675 14.5322 128.78 14.5176 128.88 14.5V16.6182C128.628 16.7002 128.364 16.7617 128.089 16.8027C127.813 16.8496 127.521 16.873 127.21 16.873C126.577 16.873 126.035 16.7734 125.584 16.5742C125.139 16.375 124.799 16.0615 124.564 15.6338C124.33 15.2061 124.213 14.6494 124.213 13.9639V4.82324ZM133.046 7.1875V16.6973H130.075V7.1875H133.046ZM129.899 4.73535C129.899 4.31348 130.052 3.96777 130.356 3.69824C130.661 3.42871 131.057 3.29395 131.543 3.29395C132.029 3.29395 132.425 3.42871 132.729 3.69824C133.034 3.96777 133.187 4.31348 133.187 4.73535C133.187 5.15723 133.034 5.50293 132.729 5.77246C132.425 6.04199 132.029 6.17676 131.543 6.17676C131.057 6.17676 130.661 6.04199 130.356 5.77246C130.052 5.50293 129.899 5.15723 129.899 4.73535ZM134.505 12.0391V11.8545C134.505 11.1572 134.604 10.5156 134.804 9.92969C135.003 9.33789 135.296 8.8252 135.683 8.3916C136.069 7.95801 136.547 7.62109 137.115 7.38086C137.684 7.13477 138.34 7.01172 139.084 7.01172C139.834 7.01172 140.493 7.13477 141.062 7.38086C141.636 7.62109 142.116 7.95801 142.503 8.3916C142.89 8.8252 143.183 9.33789 143.382 9.92969C143.581 10.5156 143.681 11.1572 143.681 11.8545V12.0391C143.681 12.7305 143.581 13.3721 143.382 13.9639C143.183 14.5498 142.89 15.0625 142.503 15.502C142.116 15.9355 141.639 16.2725 141.07 16.5127C140.502 16.7529 139.846 16.873 139.102 16.873C138.357 16.873 137.698 16.7529 137.124 16.5127C136.55 16.2725 136.069 15.9355 135.683 15.502C135.296 15.0625 135.003 14.5498 134.804 13.9639C134.604 13.3721 134.505 12.7305 134.505 12.0391ZM137.467 11.8545V12.0391C137.467 12.3965 137.493 12.7305 137.546 13.041C137.599 13.3516 137.687 13.624 137.81 13.8584C137.933 14.0869 138.1 14.2656 138.311 14.3945C138.521 14.5234 138.785 14.5879 139.102 14.5879C139.412 14.5879 139.67 14.5234 139.875 14.3945C140.086 14.2656 140.253 14.0869 140.376 13.8584C140.499 13.624 140.587 13.3516 140.64 13.041C140.692 12.7305 140.719 12.3965 140.719 12.0391V11.8545C140.719 11.5088 140.692 11.1836 140.64 10.8789C140.587 10.5684 140.499 10.2959 140.376 10.0615C140.253 9.82129 140.086 9.63379 139.875 9.49902C139.664 9.36426 139.4 9.29688 139.084 9.29688C138.773 9.29688 138.513 9.36426 138.302 9.49902C138.097 9.63379 137.933 9.82129 137.81 10.0615C137.687 10.2959 137.599 10.5684 137.546 10.8789C137.493 11.1836 137.467 11.5088 137.467 11.8545ZM147.908 9.21777V16.6973H144.946V7.1875H147.724L147.908 9.21777ZM147.557 11.6172L146.862 11.6348C146.862 10.9082 146.95 10.2607 147.126 9.69238C147.302 9.11816 147.551 8.63184 147.873 8.2334C148.195 7.83496 148.579 7.5332 149.024 7.32812C149.476 7.11719 149.977 7.01172 150.527 7.01172C150.967 7.01172 151.368 7.07617 151.731 7.20508C152.101 7.33398 152.417 7.54199 152.681 7.8291C152.95 8.11621 153.155 8.49707 153.296 8.97168C153.442 9.44043 153.516 10.0205 153.516 10.7119V16.6973H150.536V10.7031C150.536 10.3223 150.483 10.0322 150.378 9.83301C150.272 9.62793 150.12 9.4873 149.921 9.41113C149.722 9.33496 149.479 9.29688 149.191 9.29688C148.887 9.29688 148.629 9.35547 148.418 9.47266C148.207 9.58984 148.037 9.75391 147.908 9.96484C147.785 10.1699 147.694 10.4131 147.636 10.6943C147.583 10.9756 147.557 11.2832 147.557 11.6172Z" fill="white"/>
<path d="M52.4771 29.0029V35.9316H51.8325V27.8857H52.4341L52.4771 29.0029ZM56.5161 30.7378V30.8506C56.5161 31.2839 56.466 31.6813 56.3657 32.043C56.2655 32.4046 56.1204 32.7179 55.9307 32.9829C55.7445 33.2443 55.5135 33.4466 55.2378 33.5898C54.9621 33.7331 54.6488 33.8047 54.2979 33.8047C53.9505 33.8047 53.6408 33.751 53.3687 33.6436C53.0965 33.5361 52.862 33.384 52.665 33.187C52.4717 32.9865 52.3159 32.7537 52.1978 32.4888C52.0832 32.2202 52.0026 31.9266 51.9561 31.6079V30.1201C52.0098 29.7692 52.0975 29.4505 52.2192 29.1641C52.341 28.8776 52.4967 28.6305 52.6865 28.4229C52.8799 28.2152 53.109 28.0558 53.374 27.9448C53.639 27.8338 53.9416 27.7783 54.2817 27.7783C54.6362 27.7783 54.9513 27.8481 55.2271 27.9878C55.5063 28.1239 55.7409 28.3226 55.9307 28.584C56.124 28.8418 56.269 29.1533 56.3657 29.5186C56.466 29.8802 56.5161 30.2866 56.5161 30.7378ZM55.8716 30.8506V30.7378C55.8716 30.3976 55.8358 30.0825 55.7642 29.7925C55.6961 29.5024 55.5905 29.25 55.4473 29.0352C55.3076 28.8167 55.1286 28.6466 54.9102 28.5249C54.6953 28.4032 54.4393 28.3423 54.1421 28.3423C53.8341 28.3423 53.571 28.3942 53.3525 28.498C53.1377 28.5983 52.9587 28.7326 52.8154 28.9009C52.6722 29.0656 52.5594 29.2464 52.4771 29.4434C52.3947 29.6403 52.3338 29.8337 52.2944 30.0234V31.7368C52.3625 32.009 52.4717 32.2614 52.6221 32.4941C52.7725 32.7233 52.973 32.9077 53.2236 33.0474C53.4779 33.1834 53.7876 33.2515 54.1528 33.2515C54.4465 33.2515 54.7007 33.1906 54.9155 33.0688C55.1304 32.9471 55.3076 32.777 55.4473 32.5586C55.5905 32.3402 55.6961 32.0859 55.7642 31.7959C55.8358 31.5059 55.8716 31.1908 55.8716 30.8506ZM61.479 32.6553V29.6582C61.479 29.3825 61.4217 29.1444 61.3071 28.9438C61.1925 28.7433 61.0243 28.5894 60.8022 28.4819C60.5802 28.3745 60.3063 28.3208 59.9805 28.3208C59.6797 28.3208 59.4111 28.3745 59.1748 28.4819C58.9421 28.5858 58.7576 28.7272 58.6216 28.9062C58.4891 29.0817 58.4229 29.2769 58.4229 29.4917L57.7783 29.4863C57.7783 29.2679 57.832 29.0566 57.9395 28.8525C58.0469 28.6484 58.1991 28.4658 58.396 28.3047C58.5929 28.1436 58.8275 28.0164 59.0996 27.9233C59.3753 27.8267 59.6779 27.7783 60.0073 27.7783C60.4227 27.7783 60.7879 27.8481 61.103 27.9878C61.4217 28.1274 61.6706 28.3369 61.8496 28.6162C62.0286 28.8955 62.1182 29.2464 62.1182 29.6689V32.478C62.1182 32.6785 62.1325 32.8862 62.1611 33.1011C62.1934 33.3159 62.2381 33.4932 62.2954 33.6328V33.6973H61.6133C61.5703 33.5684 61.5363 33.4072 61.5112 33.2139C61.4897 33.0169 61.479 32.8307 61.479 32.6553ZM61.6294 30.3135L61.6401 30.8076H60.3779C60.0485 30.8076 59.7531 30.8381 59.4917 30.8989C59.2339 30.9562 59.0155 31.0422 58.8364 31.1567C58.6574 31.2677 58.5195 31.402 58.4229 31.5596C58.3298 31.7171 58.2832 31.8962 58.2832 32.0967C58.2832 32.3044 58.3351 32.4941 58.439 32.666C58.5464 32.8379 58.6968 32.9757 58.8901 33.0796C59.0871 33.1799 59.3198 33.23 59.5884 33.23C59.9465 33.23 60.2616 33.1637 60.5337 33.0312C60.8094 32.8988 61.0368 32.7251 61.2158 32.5103C61.3949 32.2954 61.5148 32.0609 61.5757 31.8066L61.855 32.1772C61.8084 32.3563 61.7225 32.5407 61.5972 32.7305C61.4754 32.9167 61.3161 33.0921 61.1191 33.2568C60.9222 33.418 60.6895 33.5505 60.4209 33.6543C60.1559 33.7546 59.8551 33.8047 59.5186 33.8047C59.139 33.8047 58.8078 33.7331 58.5249 33.5898C58.2456 33.4466 58.0272 33.2515 57.8696 33.0044C57.7157 32.7537 57.6387 32.4709 57.6387 32.1558C57.6387 31.8693 57.6995 31.6133 57.8213 31.3877C57.943 31.1585 58.1185 30.9652 58.3477 30.8076C58.5804 30.6465 58.8597 30.5247 59.1855 30.4424C59.515 30.3564 59.8838 30.3135 60.292 30.3135H61.6294ZM67.6128 25.356H68.166C68.166 25.6245 68.1177 25.8483 68.021 26.0273C67.9279 26.2064 67.7954 26.3514 67.6235 26.4624C67.4517 26.5734 67.2493 26.6611 67.0166 26.7256C66.7874 26.7865 66.5368 26.8384 66.2646 26.8813C65.9316 26.9315 65.6255 27.0407 65.3462 27.209C65.0705 27.3773 64.8341 27.6082 64.6372 27.9019C64.4403 28.1919 64.2917 28.5518 64.1914 28.9814C64.0947 29.4076 64.0553 29.9071 64.0732 30.48V30.9795H63.52V30.48C63.52 29.8498 63.5809 29.2912 63.7026 28.8042C63.828 28.3136 64.0052 27.8947 64.2344 27.5474C64.4671 27.2 64.7428 26.9243 65.0615 26.7202C65.3838 26.5125 65.7401 26.3765 66.1304 26.312C66.4956 26.2547 66.7856 26.1849 67.0005 26.1025C67.2189 26.0202 67.3747 25.9181 67.4678 25.7964C67.5645 25.6746 67.6128 25.5278 67.6128 25.356ZM66.1841 28.2671C66.5636 28.2671 66.9056 28.3315 67.21 28.4604C67.5143 28.5894 67.7739 28.772 67.9888 29.0083C68.2072 29.241 68.3737 29.5168 68.4883 29.8354C68.6064 30.1506 68.6655 30.4961 68.6655 30.8721V31.0439C68.6655 31.445 68.6047 31.8138 68.4829 32.1504C68.3647 32.487 68.1929 32.7788 67.9673 33.0259C67.7453 33.2729 67.4749 33.4645 67.1562 33.6006C66.8411 33.7367 66.4884 33.8047 66.0981 33.8047C65.7043 33.8047 65.3498 33.7367 65.0347 33.6006C64.7196 33.4645 64.4492 33.2729 64.2236 33.0259C63.998 32.7788 63.8244 32.487 63.7026 32.1504C63.5809 31.8138 63.52 31.445 63.52 31.0439V30.8721C63.52 30.7682 63.5308 30.6662 63.5522 30.5659C63.5773 30.4657 63.6077 30.3672 63.6436 30.2705C63.6794 30.1702 63.7152 30.0718 63.751 29.9751C63.8763 29.6493 64.0535 29.3592 64.2827 29.105C64.5119 28.8472 64.7858 28.6431 65.1045 28.4927C65.4268 28.3423 65.7866 28.2671 66.1841 28.2671ZM66.0874 28.8149C65.6685 28.8149 65.3158 28.9116 65.0293 29.105C64.7464 29.2948 64.5316 29.5472 64.3848 29.8623C64.238 30.1738 64.1646 30.5104 64.1646 30.8721V31.0439C64.1646 31.3411 64.2057 31.6222 64.2881 31.8872C64.3704 32.1522 64.4922 32.3885 64.6533 32.5962C64.818 32.8003 65.0203 32.9614 65.2603 33.0796C65.5002 33.1978 65.7795 33.2568 66.0981 33.2568C66.4132 33.2568 66.6908 33.1978 66.9307 33.0796C67.1706 32.9614 67.3711 32.8003 67.5322 32.5962C67.6934 32.3885 67.8151 32.1522 67.8975 31.8872C67.9798 31.6222 68.021 31.3411 68.021 31.0439V30.8721C68.021 30.5999 67.9798 30.3403 67.8975 30.0933C67.8151 29.8462 67.6916 29.6278 67.5269 29.438C67.3657 29.2446 67.1634 29.0924 66.9199 28.9814C66.68 28.8704 66.4025 28.8149 66.0874 28.8149ZM69.5464 30.8828V30.7056C69.5464 30.283 69.6073 29.8927 69.729 29.5347C69.8507 29.1766 70.0244 28.8669 70.25 28.6055C70.4792 28.3441 70.7531 28.1418 71.0718 27.9985C71.3905 27.8517 71.745 27.7783 72.1353 27.7783C72.5291 27.7783 72.8854 27.8517 73.2041 27.9985C73.5228 28.1418 73.7967 28.3441 74.0259 28.6055C74.255 28.8669 74.4305 29.1766 74.5522 29.5347C74.674 29.8927 74.7349 30.283 74.7349 30.7056V30.8828C74.7349 31.3053 74.674 31.6956 74.5522 32.0537C74.4305 32.4082 74.255 32.7161 74.0259 32.9775C73.8003 33.2389 73.5282 33.443 73.2095 33.5898C72.8908 33.7331 72.5363 33.8047 72.146 33.8047C71.7521 33.8047 71.3958 33.7331 71.0771 33.5898C70.7585 33.443 70.4845 33.2389 70.2554 32.9775C70.0262 32.7161 69.8507 32.4082 69.729 32.0537C69.6073 31.6956 69.5464 31.3053 69.5464 30.8828ZM70.1855 30.7056V30.8828C70.1855 31.2015 70.2285 31.5041 70.3145 31.7905C70.4004 32.0734 70.5257 32.3258 70.6904 32.5479C70.8551 32.7663 71.0592 32.9382 71.3027 33.0635C71.5462 33.1888 71.8273 33.2515 72.146 33.2515C72.4611 33.2515 72.7386 33.1888 72.9785 33.0635C73.222 32.9382 73.4261 32.7663 73.5908 32.5479C73.7555 32.3258 73.8791 32.0734 73.9614 31.7905C74.0474 31.5041 74.0903 31.2015 74.0903 30.8828V30.7056C74.0903 30.3905 74.0474 30.0915 73.9614 29.8086C73.8791 29.5257 73.7537 29.2733 73.5854 29.0513C73.4207 28.8293 73.2166 28.6538 72.9731 28.5249C72.7297 28.396 72.4504 28.3315 72.1353 28.3315C71.8201 28.3315 71.5409 28.396 71.2974 28.5249C71.0575 28.6538 70.8534 28.8293 70.6851 29.0513C70.5203 29.2733 70.395 29.5257 70.3091 29.8086C70.2267 30.0915 70.1855 30.3905 70.1855 30.7056ZM78.0005 27.8857V33.6973H77.3613V27.8857H78.0005ZM80.1167 27.8857V28.4336H75.3203V27.8857H80.1167ZM84.6284 32.6553V29.6582C84.6284 29.3825 84.5711 29.1444 84.4565 28.9438C84.342 28.7433 84.1737 28.5894 83.9517 28.4819C83.7297 28.3745 83.4557 28.3208 83.1299 28.3208C82.8291 28.3208 82.5605 28.3745 82.3242 28.4819C82.0915 28.5858 81.9071 28.7272 81.771 28.9062C81.6385 29.0817 81.5723 29.2769 81.5723 29.4917L80.9277 29.4863C80.9277 29.2679 80.9814 29.0566 81.0889 28.8525C81.1963 28.6484 81.3485 28.4658 81.5454 28.3047C81.7424 28.1436 81.9769 28.0164 82.249 27.9233C82.5247 27.8267 82.8273 27.7783 83.1567 27.7783C83.5721 27.7783 83.9373 27.8481 84.2524 27.9878C84.5711 28.1274 84.82 28.3369 84.999 28.6162C85.1781 28.8955 85.2676 29.2464 85.2676 29.6689V32.478C85.2676 32.6785 85.2819 32.8862 85.3105 33.1011C85.3428 33.3159 85.3875 33.4932 85.4448 33.6328V33.6973H84.7627C84.7197 33.5684 84.6857 33.4072 84.6606 33.2139C84.6392 33.0169 84.6284 32.8307 84.6284 32.6553ZM84.7788 30.3135L84.7896 30.8076H83.5273C83.1979 30.8076 82.9025 30.8381 82.6411 30.8989C82.3833 30.9562 82.1649 31.0422 81.9858 31.1567C81.8068 31.2677 81.6689 31.402 81.5723 31.5596C81.4792 31.7171 81.4326 31.8962 81.4326 32.0967C81.4326 32.3044 81.4845 32.4941 81.5884 32.666C81.6958 32.8379 81.8462 32.9757 82.0396 33.0796C82.2365 33.1799 82.4692 33.23 82.7378 33.23C83.0959 33.23 83.411 33.1637 83.6831 33.0312C83.9588 32.8988 84.1862 32.7251 84.3652 32.5103C84.5443 32.2954 84.6642 32.0609 84.7251 31.8066L85.0044 32.1772C84.9578 32.3563 84.8719 32.5407 84.7466 32.7305C84.6248 32.9167 84.4655 33.0921 84.2686 33.2568C84.0716 33.418 83.8389 33.5505 83.5703 33.6543C83.3053 33.7546 83.0046 33.8047 82.668 33.8047C82.2884 33.8047 81.9572 33.7331 81.6743 33.5898C81.395 33.4466 81.1766 33.2515 81.019 33.0044C80.8651 32.7537 80.7881 32.4709 80.7881 32.1558C80.7881 31.8693 80.849 31.6133 80.9707 31.3877C81.0924 31.1585 81.2679 30.9652 81.4971 30.8076C81.7298 30.6465 82.0091 30.5247 82.335 30.4424C82.6644 30.3564 83.0332 30.3135 83.4414 30.3135H84.7788ZM89.2368 33.8047C88.8573 33.8047 88.5081 33.7349 88.1895 33.5952C87.8743 33.4556 87.5986 33.2586 87.3623 33.0044C87.1296 32.7502 86.9487 32.4494 86.8198 32.1021C86.6945 31.7511 86.6318 31.368 86.6318 30.9526V30.7217C86.6318 30.2741 86.6981 29.8695 86.8306 29.5078C86.9631 29.1462 87.1457 28.8364 87.3784 28.5786C87.6112 28.3208 87.8761 28.1239 88.1733 27.9878C88.4741 27.8481 88.7892 27.7783 89.1187 27.7783C89.4875 27.7783 89.8151 27.8446 90.1016 27.9771C90.388 28.106 90.6279 28.2904 90.8213 28.5303C91.0182 28.7666 91.1668 29.0477 91.2671 29.3735C91.3674 29.6958 91.4175 30.0521 91.4175 30.4424V30.8345H87.0186V30.2866H90.7783V30.2114C90.7712 29.8856 90.7049 29.5812 90.5796 29.2983C90.4578 29.0119 90.2752 28.7791 90.0317 28.6001C89.7882 28.4211 89.4839 28.3315 89.1187 28.3315C88.8465 28.3315 88.5959 28.3888 88.3667 28.5034C88.1411 28.618 87.946 28.7827 87.7812 28.9976C87.6201 29.2088 87.4948 29.4613 87.4053 29.7549C87.3193 30.0449 87.2764 30.3672 87.2764 30.7217V30.9526C87.2764 31.2749 87.3229 31.5757 87.416 31.855C87.5127 32.1307 87.6488 32.3742 87.8242 32.5854C88.0033 32.7967 88.2145 32.9614 88.458 33.0796C88.7015 33.1978 88.9701 33.2568 89.2637 33.2568C89.6074 33.2568 89.9118 33.1942 90.1768 33.0688C90.4417 32.9399 90.6799 32.7376 90.8911 32.4619L91.2939 32.7734C91.1686 32.9596 91.0111 33.1315 90.8213 33.2891C90.6351 33.4466 90.4113 33.5719 90.1499 33.665C89.8885 33.7581 89.5841 33.8047 89.2368 33.8047ZM95.897 32.8164L98.2065 27.8857H98.8457L96.1226 33.6973H95.6714L92.9536 27.8857H93.5928L95.897 32.8164ZM93.394 27.8857V33.6973H92.7549V27.8857H93.394ZM98.3569 33.6973V27.8857H99.0015V33.6973H98.3569ZM105.56 33.2515C105.832 33.2515 106.086 33.2013 106.322 33.1011C106.562 32.9972 106.759 32.8451 106.913 32.6445C107.071 32.4404 107.16 32.1916 107.182 31.8979H107.794C107.776 32.2668 107.663 32.5962 107.456 32.8862C107.251 33.1727 106.983 33.3983 106.65 33.563C106.32 33.7241 105.957 33.8047 105.56 33.8047C105.155 33.8047 104.797 33.7313 104.485 33.5845C104.177 33.4377 103.92 33.2336 103.712 32.9722C103.504 32.7072 103.347 32.3993 103.239 32.0483C103.135 31.6938 103.083 31.3125 103.083 30.9043V30.6787C103.083 30.2705 103.135 29.891 103.239 29.54C103.347 29.1855 103.504 28.8776 103.712 28.6162C103.92 28.3512 104.177 28.1453 104.485 27.9985C104.793 27.8517 105.15 27.7783 105.554 27.7783C105.97 27.7783 106.342 27.8625 106.671 28.0308C107.004 28.1991 107.269 28.4372 107.466 28.7451C107.667 29.0531 107.776 29.4183 107.794 29.8408H107.182C107.164 29.5293 107.081 29.2607 106.935 29.0352C106.788 28.8096 106.594 28.6359 106.354 28.5142C106.115 28.3924 105.848 28.3315 105.554 28.3315C105.225 28.3315 104.944 28.396 104.711 28.5249C104.478 28.6502 104.288 28.8239 104.142 29.0459C103.998 29.2643 103.893 29.515 103.825 29.7979C103.757 30.0771 103.723 30.3708 103.723 30.6787V30.9043C103.723 31.2158 103.755 31.513 103.819 31.7959C103.887 32.0752 103.993 32.3241 104.136 32.5425C104.283 32.7609 104.473 32.9346 104.706 33.0635C104.942 33.1888 105.227 33.2515 105.56 33.2515ZM116.565 33.144V33.6973H111.672V33.1978L114.234 30.292C114.553 29.9303 114.807 29.6134 114.997 29.3413C115.186 29.0656 115.322 28.8149 115.405 28.5894C115.491 28.3602 115.534 28.1382 115.534 27.9233C115.534 27.6082 115.471 27.3307 115.346 27.0908C115.224 26.8509 115.041 26.6629 114.798 26.5269C114.554 26.3908 114.254 26.3228 113.896 26.3228C113.537 26.3228 113.226 26.3997 112.961 26.5537C112.696 26.7077 112.492 26.9225 112.349 27.1982C112.209 27.4704 112.139 27.7801 112.139 28.1274H111.5C111.5 27.6978 111.595 27.3039 111.785 26.9458C111.978 26.5877 112.254 26.3031 112.612 26.0918C112.97 25.877 113.398 25.7695 113.896 25.7695C114.368 25.7695 114.775 25.8537 115.115 26.022C115.455 26.1867 115.716 26.4248 115.899 26.7363C116.085 27.0479 116.178 27.4238 116.178 27.8643C116.178 28.1006 116.135 28.3387 116.049 28.5786C115.967 28.8185 115.852 29.0584 115.706 29.2983C115.562 29.5347 115.398 29.7692 115.211 30.002C115.029 30.2347 114.837 30.4639 114.637 30.6895L112.456 33.144H116.565ZM122.484 29.1157V30.4316C122.484 31.0046 122.43 31.5041 122.323 31.9302C122.215 32.3527 122.058 32.7036 121.85 32.9829C121.646 33.2586 121.395 33.4645 121.098 33.6006C120.805 33.7367 120.468 33.8047 120.088 33.8047C119.788 33.8047 119.512 33.7617 119.261 33.6758C119.011 33.5898 118.787 33.4591 118.59 33.2837C118.396 33.1047 118.232 32.8809 118.096 32.6123C117.96 32.3438 117.856 32.0286 117.784 31.667C117.713 31.3018 117.677 30.89 117.677 30.4316V29.1157C117.677 28.5392 117.73 28.0415 117.838 27.6226C117.949 27.2036 118.106 26.8563 118.311 26.5806C118.518 26.3049 118.771 26.1007 119.068 25.9683C119.365 25.8322 119.702 25.7642 120.078 25.7642C120.378 25.7642 120.654 25.8089 120.905 25.8984C121.159 25.9844 121.383 26.1133 121.576 26.2852C121.773 26.457 121.938 26.6772 122.07 26.9458C122.206 27.2108 122.308 27.5241 122.376 27.8857C122.448 28.2474 122.484 28.6574 122.484 29.1157ZM121.845 30.5068V29.0352C121.845 28.6807 121.82 28.3584 121.77 28.0684C121.723 27.7783 121.653 27.5241 121.56 27.3057C121.467 27.0872 121.349 26.9046 121.206 26.7578C121.066 26.611 120.901 26.5018 120.711 26.4302C120.525 26.355 120.314 26.3174 120.078 26.3174C119.788 26.3174 119.532 26.3765 119.31 26.4946C119.091 26.6092 118.909 26.7811 118.762 27.0103C118.615 27.2358 118.504 27.5187 118.429 27.8589C118.357 28.1991 118.321 28.5911 118.321 29.0352V30.5068C118.321 30.8577 118.345 31.1782 118.391 31.4683C118.438 31.7547 118.509 32.009 118.606 32.231C118.703 32.453 118.821 32.641 118.96 32.7949C119.104 32.9453 119.268 33.0599 119.455 33.1387C119.644 33.2139 119.856 33.2515 120.088 33.2515C120.386 33.2515 120.643 33.1924 120.862 33.0742C121.08 32.9525 121.263 32.7752 121.41 32.5425C121.556 32.3062 121.666 32.0179 121.737 31.6777C121.809 31.334 121.845 30.9437 121.845 30.5068ZM128.585 29.1157V30.4316C128.585 31.0046 128.532 31.5041 128.424 31.9302C128.317 32.3527 128.159 32.7036 127.952 32.9829C127.748 33.2586 127.497 33.4645 127.2 33.6006C126.906 33.7367 126.569 33.8047 126.19 33.8047C125.889 33.8047 125.613 33.7617 125.363 33.6758C125.112 33.5898 124.888 33.4591 124.691 33.2837C124.498 33.1047 124.333 32.8809 124.197 32.6123C124.061 32.3438 123.957 32.0286 123.886 31.667C123.814 31.3018 123.778 30.89 123.778 30.4316V29.1157C123.778 28.5392 123.832 28.0415 123.939 27.6226C124.05 27.2036 124.208 26.8563 124.412 26.5806C124.62 26.3049 124.872 26.1007 125.169 25.9683C125.467 25.8322 125.803 25.7642 126.179 25.7642C126.48 25.7642 126.756 25.8089 127.006 25.8984C127.261 25.9844 127.484 26.1133 127.678 26.2852C127.875 26.457 128.039 26.6772 128.172 26.9458C128.308 27.2108 128.41 27.5241 128.478 27.8857C128.55 28.2474 128.585 28.6574 128.585 29.1157ZM127.946 30.5068V29.0352C127.946 28.6807 127.921 28.3584 127.871 28.0684C127.825 27.7783 127.755 27.5241 127.662 27.3057C127.569 27.0872 127.45 26.9046 127.307 26.7578C127.167 26.611 127.003 26.5018 126.813 26.4302C126.627 26.355 126.416 26.3174 126.179 26.3174C125.889 26.3174 125.633 26.3765 125.411 26.4946C125.193 26.6092 125.01 26.7811 124.863 27.0103C124.716 27.2358 124.605 27.5187 124.53 27.8589C124.459 28.1991 124.423 28.5911 124.423 29.0352V30.5068C124.423 30.8577 124.446 31.1782 124.493 31.4683C124.539 31.7547 124.611 32.009 124.708 32.231C124.804 32.453 124.922 32.641 125.062 32.7949C125.205 32.9453 125.37 33.0599 125.556 33.1387C125.746 33.2139 125.957 33.2515 126.19 33.2515C126.487 33.2515 126.745 33.1924 126.963 33.0742C127.182 32.9525 127.364 32.7752 127.511 32.5425C127.658 32.3062 127.767 32.0179 127.839 31.6777C127.91 31.334 127.946 30.9437 127.946 30.5068ZM134.87 33.144V33.6973H129.977V33.1978L132.539 30.292C132.857 29.9303 133.111 29.6134 133.301 29.3413C133.491 29.0656 133.627 28.8149 133.709 28.5894C133.795 28.3602 133.838 28.1382 133.838 27.9233C133.838 27.6082 133.776 27.3307 133.65 27.0908C133.529 26.8509 133.346 26.6629 133.103 26.5269C132.859 26.3908 132.558 26.3228 132.2 26.3228C131.842 26.3228 131.531 26.3997 131.266 26.5537C131.001 26.7077 130.797 26.9225 130.653 27.1982C130.514 27.4704 130.444 27.7801 130.444 28.1274H129.805C129.805 27.6978 129.9 27.3039 130.089 26.9458C130.283 26.5877 130.558 26.3031 130.917 26.0918C131.275 25.877 131.702 25.7695 132.2 25.7695C132.673 25.7695 133.079 25.8537 133.419 26.022C133.76 26.1867 134.021 26.4248 134.204 26.7363C134.39 27.0479 134.483 27.4238 134.483 27.8643C134.483 28.1006 134.44 28.3387 134.354 28.5786C134.272 28.8185 134.157 29.0584 134.01 29.2983C133.867 29.5347 133.702 29.7692 133.516 30.002C133.333 30.2347 133.142 30.4639 132.941 30.6895L130.761 33.144H134.87ZM142.486 27.8857V28.4443H139.542V33.6973H138.903V27.8857H142.486ZM143.044 30.8828V30.7056C143.044 30.283 143.105 29.8927 143.227 29.5347C143.349 29.1766 143.522 28.8669 143.748 28.6055C143.977 28.3441 144.251 28.1418 144.57 27.9985C144.889 27.8517 145.243 27.7783 145.633 27.7783C146.027 27.7783 146.383 27.8517 146.702 27.9985C147.021 28.1418 147.295 28.3441 147.524 28.6055C147.753 28.8669 147.929 29.1766 148.05 29.5347C148.172 29.8927 148.233 30.283 148.233 30.7056V30.8828C148.233 31.3053 148.172 31.6956 148.05 32.0537C147.929 32.4082 147.753 32.7161 147.524 32.9775C147.298 33.2389 147.026 33.443 146.708 33.5898C146.389 33.7331 146.034 33.8047 145.644 33.8047C145.25 33.8047 144.894 33.7331 144.575 33.5898C144.257 33.443 143.983 33.2389 143.753 32.9775C143.524 32.7161 143.349 32.4082 143.227 32.0537C143.105 31.6956 143.044 31.3053 143.044 30.8828ZM143.684 30.7056V30.8828C143.684 31.2015 143.727 31.5041 143.812 31.7905C143.898 32.0734 144.024 32.3258 144.188 32.5479C144.353 32.7663 144.557 32.9382 144.801 33.0635C145.044 33.1888 145.325 33.2515 145.644 33.2515C145.959 33.2515 146.237 33.1888 146.477 33.0635C146.72 32.9382 146.924 32.7663 147.089 32.5479C147.254 32.3258 147.377 32.0734 147.459 31.7905C147.545 31.5041 147.588 31.2015 147.588 30.8828V30.7056C147.588 30.3905 147.545 30.0915 147.459 29.8086C147.377 29.5257 147.252 29.2733 147.083 29.0513C146.919 28.8293 146.715 28.6538 146.471 28.5249C146.228 28.396 145.948 28.3315 145.633 28.3315C145.318 28.3315 145.039 28.396 144.795 28.5249C144.556 28.6538 144.351 28.8293 144.183 29.0513C144.018 29.2733 143.893 29.5257 143.807 29.8086C143.725 30.0915 143.684 30.3905 143.684 30.7056ZM150.209 27.8857H150.849L150.752 29.9805C150.727 30.5391 150.664 31.0243 150.564 31.436C150.467 31.8442 150.347 32.1934 150.204 32.4834C150.061 32.7699 149.903 33.0116 149.731 33.2085C149.563 33.4019 149.391 33.5648 149.216 33.6973H148.867L148.877 33.1494L149.039 33.144C149.142 33.0187 149.25 32.8773 149.361 32.7197C149.475 32.5586 149.585 32.3617 149.688 32.1289C149.792 31.8962 149.882 31.6061 149.957 31.2588C150.032 30.9115 150.082 30.4854 150.107 29.9805L150.209 27.8857ZM150.419 27.8857H153.636V33.6973H152.997V28.4873H150.419V27.8857ZM148.62 33.144H154.243V35.4053H153.599V33.6973H149.232V35.4053H148.62V33.144ZM159.018 32.6553V29.6582C159.018 29.3825 158.961 29.1444 158.846 28.9438C158.732 28.7433 158.563 28.5894 158.341 28.4819C158.119 28.3745 157.845 28.3208 157.52 28.3208C157.219 28.3208 156.95 28.3745 156.714 28.4819C156.481 28.5858 156.297 28.7272 156.161 28.9062C156.028 29.0817 155.962 29.2769 155.962 29.4917L155.317 29.4863C155.317 29.2679 155.371 29.0566 155.479 28.8525C155.586 28.6484 155.738 28.4658 155.935 28.3047C156.132 28.1436 156.367 28.0164 156.639 27.9233C156.914 27.8267 157.217 27.7783 157.546 27.7783C157.962 27.7783 158.327 27.8481 158.642 27.9878C158.961 28.1274 159.21 28.3369 159.389 28.6162C159.568 28.8955 159.657 29.2464 159.657 29.6689V32.478C159.657 32.6785 159.672 32.8862 159.7 33.1011C159.732 33.3159 159.777 33.4932 159.834 33.6328V33.6973H159.152C159.109 33.5684 159.075 33.4072 159.05 33.2139C159.029 33.0169 159.018 32.8307 159.018 32.6553ZM159.168 30.3135L159.179 30.8076H157.917C157.588 30.8076 157.292 30.8381 157.031 30.8989C156.773 30.9562 156.555 31.0422 156.375 31.1567C156.196 31.2677 156.059 31.402 155.962 31.5596C155.869 31.7171 155.822 31.8962 155.822 32.0967C155.822 32.3044 155.874 32.4941 155.978 32.666C156.085 32.8379 156.236 32.9757 156.429 33.0796C156.626 33.1799 156.859 33.23 157.127 33.23C157.486 33.23 157.801 33.1637 158.073 33.0312C158.348 32.8988 158.576 32.7251 158.755 32.5103C158.934 32.2954 159.054 32.0609 159.115 31.8066L159.394 32.1772C159.347 32.3563 159.262 32.5407 159.136 32.7305C159.014 32.9167 158.855 33.0921 158.658 33.2568C158.461 33.418 158.229 33.5505 157.96 33.6543C157.695 33.7546 157.394 33.8047 157.058 33.8047C156.678 33.8047 156.347 33.7331 156.064 33.5898C155.785 33.4466 155.566 33.2515 155.409 33.0044C155.255 32.7537 155.178 32.4709 155.178 32.1558C155.178 31.8693 155.239 31.6133 155.36 31.3877C155.482 31.1585 155.658 30.9652 155.887 30.8076C156.119 30.6465 156.399 30.5247 156.725 30.4424C157.054 30.3564 157.423 30.3135 157.831 30.3135H159.168Z" fill="white"/>
</svg>
