<svg width="241" height="70" viewBox="0 0 241 70" fill="none" xmlns="http://www.w3.org/2000/svg">
<path fill-rule="evenodd" clip-rule="evenodd" d="M52.3663 13.9533C54.5377 20.9067 53.8812 25.2 52.5683 32.1533L56.0526 32.9467L67.0107 22.12C66.8592 21.84 66.8087 21.56 66.8087 21.2333C66.8087 20.16 67.7176 19.32 68.8791 19.32C70.091 19.32 71 20.16 71 21.2333C71 22.3533 70.091 23.1933 68.8791 23.1933C68.5761 23.1933 68.2226 23.1467 67.9701 23.0067L57.6181 33.2733C54.9922 37.2867 51.5583 39.9467 47.67 42.84L48.8314 43.8667L51.1543 45.9667L61.7084 55.3933C61.9609 55.3 62.2639 55.2067 62.6174 55.2067C63.7788 55.2067 64.7383 56.0933 64.7383 57.1667C64.7383 58.24 63.7788 59.1267 62.6174 59.1267C61.4559 59.1267 60.4964 58.24 60.4964 57.1667C60.4964 56.8867 60.5469 56.6533 60.6479 56.42L49.7909 46.7133C46.9125 47.9733 42.0142 48.86 39.5903 48.3933L39.6913 50.12L43.3272 65.7067H43.3777C44.5391 65.7067 45.4986 66.5467 45.4986 67.62C45.4986 68.74 44.5391 69.58 43.3777 69.58C42.2162 69.58 41.2568 68.74 41.2568 67.62C41.2568 67.1067 41.5092 66.5933 41.9132 66.22L38.8834 53.3867C34.7425 52.4067 31.8642 51.4267 27.7738 49.7467L27.7233 53.4333L27.8748 66.1733C28.7333 66.4067 29.3393 67.1533 29.3393 68.04C29.3393 69.1133 28.3798 70 27.2183 70C26.0569 70 25.0974 69.1133 25.0974 68.04C25.0974 67.2467 25.6024 66.5933 26.3094 66.2667L26.1579 53.0133C21.5626 50.4467 21.1586 49.4667 17.1188 45.1733L17.0683 46.8533L17.8257 60.6667C18.7347 60.9 19.3912 61.6467 19.3912 62.5333C19.3912 63.6533 18.4317 64.4933 17.2703 64.4933C16.1088 64.4933 15.1494 63.6533 15.1494 62.5333C15.1494 61.7867 15.6038 61.1333 16.3108 60.8067L15.4018 45.4533C13.8869 43.8667 13.8869 42.8867 12.5235 40.18C12.3215 40.32 11.4125 40.88 11.3115 40.9267L11.6145 51.2867C12.473 51.5667 13.0789 52.2667 13.0789 53.1533C13.0789 54.2267 12.1195 55.1133 10.958 55.1133C9.79659 55.1133 8.83713 54.2267 8.83713 53.1533C8.83713 52.36 9.34211 51.66 10.0491 51.38L9.59459 36.2133C9.3926 34.3 9.4431 32.2933 9.5441 31.08L8.88762 31.2667L6.71622 41.02C7.1707 41.3467 7.52418 41.9067 7.52418 42.5133C7.52418 43.6333 6.56472 44.4733 5.40327 44.4733C4.24182 44.4733 3.28236 43.6333 3.28236 42.5133C3.28236 41.4867 4.14083 40.6467 5.20128 40.6L7.82717 29.0733C7.92816 28.42 8.07966 27.8133 8.23115 27.16L8.43314 26.5533C8.98862 24.92 9.89758 23.4267 11.261 22.1667L9.19061 22.0733L4.03983 26.3667C4.19132 26.6467 4.24182 26.9267 4.24182 27.2533C4.24182 28.3267 3.28236 29.2133 2.12091 29.2133C0.959459 29.2133 0 28.3267 0 27.2533C0 26.18 0.959459 25.2933 2.12091 25.2933C2.4239 25.2933 2.67639 25.34 2.87838 25.4333L7.0192 21.9333C8.58464 19.3667 13.9374 15.9133 17.0178 14.9333L15.7553 12.9267L9.84708 14.0933C9.64509 14.9333 8.78663 15.54 7.82717 15.54C6.66572 15.54 5.70626 14.6533 5.70626 13.58C5.70626 12.5067 6.66572 11.62 7.82717 11.62C8.63514 11.62 9.34211 12.04 9.69559 12.6933L14.8969 11.62C19.2902 10.5933 22.2191 9.47333 26.9154 10.4533V6.76667L20.7546 6.3C20.4011 6.86 19.7447 7.28 18.9367 7.28C17.7752 7.28 16.8158 6.39333 16.8158 5.32C16.8158 4.24667 17.7752 3.36 18.9367 3.36C19.9467 3.36 20.8051 4.01333 21.0071 4.9L27.0164 5.36667C31.2582 6.44 34.793 8.82 38.2774 11.2L38.9339 7.28L34.995 3.78C34.793 3.82667 34.5405 3.87333 34.2881 3.87333C33.0761 3.87333 32.1671 3.03333 32.1671 1.91333C32.1671 0.84 33.0761 0 34.2881 0C35.4495 0 36.3585 0.84 36.3585 1.91333C36.3585 2.24 36.308 2.56667 36.1565 2.8L39.4388 5.74C44.1856 9.28667 45.2966 11.3867 47.266 16.8L50.7504 13.9533L48.7304 9.00667C48.6294 9.00667 48.5789 9.00667 48.478 9.00667C47.3165 9.00667 46.4075 8.16667 46.4075 7.04667C46.4075 5.97333 47.3165 5.13333 48.478 5.13333C49.6899 5.13333 50.5989 5.97333 50.5989 7.04667C50.5989 7.56 50.3969 8.02667 50.0939 8.35333L51.9623 12.9733C52.0633 13.1133 52.3158 13.8133 52.3663 13.9533ZM31.1067 11.62C42.1152 11.62 51.0533 19.8333 51.0533 30.0067C51.0533 40.18 42.1152 48.44 31.1067 48.44C20.0982 48.44 11.2105 40.18 11.2105 30.0067C11.2105 19.8333 20.0982 11.62 31.1067 11.62Z" fill="white"/>
<path fill-rule="evenodd" clip-rule="evenodd" d="M31.2624 13.6113C40.948 13.6113 48.7475 20.7774 48.7475 29.6296C48.7475 38.5286 40.948 45.6947 31.2624 45.6947C21.6278 45.6947 13.7773 38.5286 13.7773 29.6296C13.7773 20.7774 21.6278 13.6113 31.2624 13.6113ZM28.4077 17.1241C26.8274 17.1241 25.502 18.3419 25.502 19.7938C25.502 20.1685 25.604 20.5432 25.7569 20.8711C25.2471 20.2153 24.3805 19.7938 23.412 19.7938C21.8317 19.7938 20.5063 20.9647 20.5063 22.4167C20.5063 23.3066 20.9651 24.056 21.6788 24.5243C21.3219 24.4307 20.9651 24.337 20.5573 24.337C18.926 24.337 17.6516 25.5079 17.6516 27.0067C17.6516 28.4586 18.926 29.6764 20.5573 29.6764C22.1376 29.6764 23.4629 28.4586 23.4629 27.0067C23.4629 26.1168 23.0042 25.3674 22.2905 24.899C22.6473 25.0395 23.0042 25.0864 23.412 25.0864C24.9923 25.0864 26.3177 23.9155 26.3177 22.4167C26.3177 22.042 26.2157 21.6673 26.0628 21.3394C26.5725 21.9951 27.4391 22.4635 28.4077 22.4635C29.886 22.4635 31.0585 21.4331 31.2624 20.1685C31.4663 21.4331 32.6898 22.4635 34.1171 22.4635C35.0857 22.4635 35.9523 22.042 36.513 21.3394C36.3091 21.6673 36.2581 22.042 36.2581 22.4635C36.2581 23.9155 37.5326 25.0864 39.1129 25.0864C39.5207 25.0864 39.8775 25.0395 40.2343 24.899C39.5716 25.3674 39.1129 26.1636 39.1129 27.0067C39.1129 28.4586 40.3873 29.6764 42.0185 29.6764C43.5988 29.6764 44.8732 28.4586 44.8732 27.0067C44.8732 25.5548 43.5988 24.337 42.0185 24.337C41.6107 24.337 41.2029 24.4307 40.897 24.5712C41.5597 24.056 42.0185 23.3066 42.0185 22.4635C42.0185 20.9647 40.7441 19.7938 39.1129 19.7938C38.1443 19.7938 37.3287 20.2153 36.7679 20.8711C36.9208 20.5432 37.0228 20.1685 37.0228 19.7938C37.0228 18.3419 35.7484 17.1241 34.1171 17.1241C32.6898 17.1241 31.4663 18.1545 31.2624 19.4191C31.1095 18.1545 29.886 17.1241 28.4077 17.1241ZM28.4077 42.1819C26.8274 42.1819 25.502 41.011 25.502 39.5122C25.502 39.1375 25.604 38.7628 25.7569 38.4349C25.2471 39.0906 24.3805 39.559 23.412 39.559C21.8317 39.559 20.5063 38.3412 20.5063 36.8893C20.5063 35.9994 20.9651 35.25 21.6788 34.7816C21.3219 34.9221 20.9651 34.969 20.5573 34.969C18.926 34.969 17.6516 33.7981 17.6516 32.2993C17.6516 30.8473 18.926 29.6764 20.5573 29.6764C22.1376 29.6764 23.4629 30.8473 23.4629 32.2993C23.4629 33.1892 23.0042 33.9386 22.2905 34.4069C22.6473 34.3133 23.0042 34.2196 23.412 34.2196C24.9923 34.2196 26.3177 35.3905 26.3177 36.8893C26.3177 37.264 26.2157 37.6387 26.0628 37.9666C26.5725 37.3108 27.4391 36.8893 28.4077 36.8893C29.886 36.8893 31.1095 37.8729 31.2624 39.1843C31.4663 37.8729 32.6898 36.8893 34.1171 36.8893C35.0857 36.8893 35.9523 37.3108 36.513 37.9666C36.3091 37.6387 36.2581 37.264 36.2581 36.8893C36.2581 35.4374 37.5326 34.2196 39.1129 34.2196C39.5207 34.2196 39.8775 34.3133 40.2343 34.4538C39.5716 33.9386 39.1129 33.1892 39.1129 32.3461C39.1129 30.8473 40.3873 29.6764 42.0185 29.6764C43.5988 29.6764 44.8732 30.8473 44.8732 32.3461C44.8732 33.7981 43.5988 34.969 42.0185 34.969C41.6107 34.969 41.2029 34.9221 40.897 34.7816C41.5597 35.25 42.0185 36.0462 42.0185 36.8893C42.0185 38.3412 40.7441 39.559 39.1129 39.559C38.1443 39.559 37.3287 39.0906 36.7679 38.4349C36.9208 38.7628 37.0228 39.1375 37.0228 39.559C37.0228 41.011 35.7484 42.1819 34.1171 42.1819C32.6898 42.1819 31.4663 41.1983 31.2624 39.8869C31.0585 41.1983 29.886 42.1819 28.4077 42.1819ZM31.2624 25.1332C33.9642 25.1332 36.2072 27.1472 36.2072 29.6296C36.2072 32.1588 33.9642 34.1728 31.2624 34.1728C28.5606 34.1728 26.3686 32.1588 26.3686 29.6296C26.3686 27.1472 28.5606 25.1332 31.2624 25.1332Z" fill="white"/>
<path d="M100.592 13.7392V32.7827H96.401V13.7392H100.592ZM107.584 19.368V32.7827H103.394V19.368H107.584ZM103.146 15.9089C103.146 15.3138 103.36 14.8261 103.79 14.4459C104.22 14.0657 104.778 13.8756 105.464 13.8756C106.15 13.8756 106.708 14.0657 107.138 14.4459C107.568 14.8261 107.782 15.3138 107.782 15.9089C107.782 16.504 107.568 16.9917 107.138 17.3719C106.708 17.7521 106.15 17.9422 105.464 17.9422C104.778 17.9422 104.22 17.7521 103.79 17.3719C103.36 16.9917 103.146 16.504 103.146 15.9089ZM114.267 22.2319V32.7827H110.088V19.368H114.006L114.267 22.2319ZM113.771 25.6166L112.791 25.6414C112.791 24.6165 112.915 23.7032 113.163 22.9014C113.411 22.0914 113.762 21.4054 114.217 20.8433C114.672 20.2813 115.213 19.8556 115.841 19.5663C116.478 19.2688 117.184 19.12 117.961 19.12C118.581 19.12 119.147 19.2109 119.66 19.3928C120.181 19.5746 120.627 19.868 120.999 20.273C121.379 20.678 121.668 21.2153 121.867 21.8848C122.073 22.546 122.177 23.3643 122.177 24.3396V32.7827H117.974V24.3272C117.974 23.79 117.899 23.3808 117.751 23.0998C117.602 22.8105 117.387 22.6121 117.106 22.5047C116.825 22.3972 116.482 22.3435 116.077 22.3435C115.647 22.3435 115.283 22.4262 114.986 22.5915C114.688 22.7568 114.448 22.9882 114.267 23.2858C114.093 23.5751 113.965 23.9181 113.882 24.3148C113.808 24.7116 113.771 25.1455 113.771 25.6166ZM130.992 33.0307C129.901 33.0307 128.925 32.8612 128.066 32.5224C127.206 32.1752 126.479 31.6999 125.884 31.0966C125.297 30.4932 124.846 29.7989 124.532 29.0137C124.226 28.2285 124.074 27.3978 124.074 26.5217V26.0505C124.074 25.067 124.21 24.1578 124.483 23.323C124.755 22.4799 125.16 21.7443 125.698 21.1161C126.235 20.4879 126.909 20.0003 127.719 19.6531C128.529 19.2977 129.471 19.12 130.545 19.12C131.496 19.12 132.347 19.2729 133.099 19.5787C133.852 19.8846 134.488 20.3226 135.009 20.8929C135.538 21.4633 135.939 22.1534 136.211 22.9634C136.492 23.7734 136.633 24.6826 136.633 25.691V27.3895H125.673V24.7735H132.554V24.4512C132.562 24.0049 132.484 23.6247 132.318 23.3106C132.161 22.9965 131.93 22.7568 131.624 22.5915C131.318 22.4262 130.946 22.3435 130.508 22.3435C130.054 22.3435 129.677 22.4427 129.38 22.6411C129.091 22.8394 128.863 23.1122 128.698 23.4593C128.541 23.7982 128.429 24.1908 128.363 24.6372C128.297 25.0835 128.264 25.5546 128.264 26.0505V26.5217C128.264 27.0176 128.33 27.4681 128.462 27.8731C128.603 28.2781 128.801 28.6252 129.058 28.9145C129.322 29.1955 129.636 29.4146 130 29.5716C130.372 29.7287 130.793 29.8072 131.264 29.8072C131.835 29.8072 132.397 29.6997 132.951 29.4848C133.504 29.2699 133.98 28.9145 134.376 28.4186L136.273 30.675C136.001 31.0635 135.612 31.4396 135.108 31.8033C134.612 32.1669 134.017 32.4645 133.323 32.6959C132.628 32.9191 131.851 33.0307 130.992 33.0307ZM145.299 29.4104V23.8809C145.299 23.5007 145.245 23.1742 145.138 22.9014C145.03 22.6287 144.861 22.4179 144.63 22.2691C144.398 22.1121 144.088 22.0336 143.7 22.0336C143.386 22.0336 143.117 22.0873 142.894 22.1947C142.671 22.3022 142.501 22.4634 142.386 22.6783C142.27 22.8932 142.212 23.1659 142.212 23.4965H138.034C138.034 22.8766 138.17 22.3022 138.443 21.7732C138.724 21.236 139.121 20.769 139.633 20.3722C140.154 19.9755 140.774 19.6697 141.493 19.4548C142.22 19.2316 143.03 19.12 143.923 19.12C144.989 19.12 145.94 19.2977 146.774 19.6531C147.618 20.0085 148.283 20.5417 148.771 21.2525C149.258 21.955 149.502 22.8394 149.502 23.9057V29.398C149.502 30.2742 149.552 30.9395 149.651 31.3941C149.75 31.8405 149.891 32.2331 150.072 32.5719V32.7827H145.882C145.683 32.3694 145.535 31.8653 145.435 31.2701C145.345 30.6668 145.299 30.0469 145.299 29.4104ZM145.807 24.5876L145.832 26.8192H143.985C143.596 26.8192 143.266 26.873 142.993 26.9804C142.729 27.0879 142.514 27.2366 142.348 27.4267C142.191 27.6086 142.076 27.8152 142.001 28.0466C141.935 28.2781 141.902 28.5219 141.902 28.7781C141.902 29.0261 141.96 29.2493 142.076 29.4476C142.2 29.6377 142.365 29.7865 142.572 29.894C142.778 30.0014 143.01 30.0551 143.266 30.0551C143.729 30.0551 144.121 29.9683 144.444 29.7948C144.774 29.6129 145.026 29.3939 145.2 29.1377C145.373 28.8814 145.46 28.6418 145.46 28.4186L146.378 30.1295C146.212 30.4601 146.022 30.7949 145.807 31.1338C145.601 31.4726 145.34 31.7867 145.026 32.076C144.721 32.357 144.344 32.5885 143.898 32.7703C143.452 32.9439 142.91 33.0307 142.274 33.0307C141.447 33.0307 140.687 32.8612 139.993 32.5224C139.307 32.1835 138.757 31.7123 138.344 31.109C137.93 30.4973 137.724 29.7948 137.724 29.0013C137.724 28.307 137.848 27.6871 138.096 27.1416C138.352 26.5961 138.736 26.1332 139.249 25.753C139.761 25.3728 140.414 25.0835 141.208 24.8851C142.001 24.6868 142.935 24.5876 144.01 24.5876H145.807ZM156.036 22.6907V32.7827H151.858V19.368H155.763L156.036 22.6907ZM160.003 19.2688L159.929 23.1494C159.764 23.1329 159.54 23.1122 159.259 23.0874C158.978 23.0626 158.743 23.0502 158.553 23.0502C158.065 23.0502 157.643 23.1081 157.288 23.2238C156.941 23.3312 156.652 23.4965 156.42 23.7197C156.197 23.9346 156.032 24.2074 155.924 24.538C155.825 24.8686 155.78 25.2529 155.788 25.691L155.032 25.1951C155.032 24.2942 155.118 23.4759 155.292 22.7403C155.474 21.9964 155.73 21.3558 156.061 20.8186C156.391 20.273 156.792 19.8556 157.263 19.5663C157.734 19.2688 158.263 19.12 158.85 19.12C159.057 19.12 159.259 19.1324 159.458 19.1572C159.664 19.182 159.846 19.2192 160.003 19.2688ZM165.657 22.2071V32.7827H161.479V19.368H165.396L165.657 22.2071ZM165.148 25.6166L164.194 25.6414C164.194 24.6992 164.305 23.8313 164.529 23.0378C164.752 22.2443 165.082 21.5542 165.52 20.9673C165.958 20.3805 166.496 19.9259 167.132 19.6035C167.777 19.2812 168.521 19.12 169.364 19.12C169.951 19.12 170.484 19.2109 170.963 19.3928C171.443 19.5663 171.856 19.8432 172.203 20.2234C172.55 20.5954 172.815 21.083 172.996 21.6864C173.187 22.2815 173.282 22.9965 173.282 23.8313V32.7827H169.103V24.3644C169.103 23.7941 169.037 23.3643 168.905 23.075C168.781 22.7857 168.599 22.5915 168.36 22.4923C168.12 22.3931 167.826 22.3435 167.479 22.3435C167.116 22.3435 166.789 22.4262 166.5 22.5915C166.211 22.7568 165.963 22.9882 165.756 23.2858C165.558 23.5751 165.405 23.9181 165.297 24.3148C165.198 24.7116 165.148 25.1455 165.148 25.6166ZM172.81 25.6166L171.645 25.6414C171.645 24.6992 171.748 23.8313 171.955 23.0378C172.17 22.2443 172.488 21.5542 172.91 20.9673C173.339 20.3805 173.873 19.9259 174.509 19.6035C175.145 19.2812 175.885 19.12 176.728 19.12C177.34 19.12 177.902 19.2109 178.414 19.3928C178.927 19.5746 179.369 19.868 179.741 20.273C180.113 20.678 180.402 21.2153 180.609 21.8848C180.816 22.546 180.919 23.3643 180.919 24.3396V32.7827H176.728V24.3396C176.728 23.7858 176.662 23.3684 176.53 23.0874C176.406 22.7981 176.224 22.6039 175.984 22.5047C175.745 22.3972 175.46 22.3435 175.129 22.3435C174.732 22.3435 174.389 22.4262 174.1 22.5915C173.811 22.7568 173.567 22.9882 173.368 23.2858C173.178 23.5751 173.038 23.9181 172.947 24.3148C172.856 24.7116 172.81 25.1455 172.81 25.6166ZM182.791 26.2117V25.9514C182.791 24.9678 182.931 24.0627 183.212 23.2362C183.493 22.4014 183.907 21.6782 184.452 21.0665C184.998 20.4549 185.671 19.9796 186.473 19.6407C187.275 19.2936 188.201 19.12 189.25 19.12C190.308 19.12 191.238 19.2936 192.04 19.6407C192.85 19.9796 193.528 20.4549 194.073 21.0665C194.619 21.6782 195.032 22.4014 195.313 23.2362C195.594 24.0627 195.735 24.9678 195.735 25.9514V26.2117C195.735 27.187 195.594 28.0921 195.313 28.9269C195.032 29.7534 194.619 30.4767 194.073 31.0966C193.528 31.7082 192.854 32.1835 192.052 32.5224C191.251 32.8612 190.325 33.0307 189.275 33.0307C188.225 33.0307 187.296 32.8612 186.486 32.5224C185.676 32.1835 184.998 31.7082 184.452 31.0966C183.907 30.4767 183.493 29.7534 183.212 28.9269C182.931 28.0921 182.791 27.187 182.791 26.2117ZM186.969 25.9514V26.2117C186.969 26.7159 187.006 27.187 187.081 27.6251C187.155 28.0632 187.279 28.4475 187.453 28.7781C187.626 29.1005 187.862 29.3526 188.159 29.5344C188.457 29.7163 188.829 29.8072 189.275 29.8072C189.713 29.8072 190.077 29.7163 190.366 29.5344C190.664 29.3526 190.899 29.1005 191.073 28.7781C191.246 28.4475 191.37 28.0632 191.445 27.6251C191.519 27.187 191.556 26.7159 191.556 26.2117V25.9514C191.556 25.4637 191.519 25.005 191.445 24.5752C191.37 24.1371 191.246 23.7528 191.073 23.4222C190.899 23.0833 190.664 22.8188 190.366 22.6287C190.069 22.4386 189.697 22.3435 189.25 22.3435C188.812 22.3435 188.444 22.4386 188.147 22.6287C187.858 22.8188 187.626 23.0833 187.453 23.4222C187.279 23.7528 187.155 24.1371 187.081 24.5752C187.006 25.005 186.969 25.4637 186.969 25.9514ZM204.661 19.368V22.2691H196.578V19.368H204.661ZM198.276 16.0329H202.454V28.4062C202.454 28.7616 202.496 29.0385 202.578 29.2369C202.661 29.427 202.801 29.5633 203 29.646C203.206 29.7204 203.479 29.7576 203.818 29.7576C204.058 29.7576 204.256 29.7534 204.413 29.7452C204.57 29.7287 204.719 29.708 204.86 29.6832V32.6711C204.504 32.7868 204.132 32.8736 203.744 32.9315C203.355 32.9976 202.942 33.0307 202.504 33.0307C201.611 33.0307 200.847 32.8902 200.21 32.6091C199.582 32.3281 199.103 31.8859 198.772 31.2825C198.441 30.6792 198.276 29.894 198.276 28.9269V16.0329ZM210.736 19.368V32.7827H206.546V19.368H210.736ZM206.298 15.9089C206.298 15.3138 206.513 14.8261 206.942 14.4459C207.372 14.0657 207.93 13.8756 208.616 13.8756C209.302 13.8756 209.86 14.0657 210.29 14.4459C210.72 14.8261 210.935 15.3138 210.935 15.9089C210.935 16.504 210.72 16.9917 210.29 17.3719C209.86 17.7521 209.302 17.9422 208.616 17.9422C207.93 17.9422 207.372 17.7521 206.942 17.3719C206.513 16.9917 206.298 16.504 206.298 15.9089ZM212.794 26.2117V25.9514C212.794 24.9678 212.935 24.0627 213.216 23.2362C213.497 22.4014 213.91 21.6782 214.456 21.0665C215.001 20.4549 215.675 19.9796 216.477 19.6407C217.278 19.2936 218.204 19.12 219.254 19.12C220.312 19.12 221.242 19.2936 222.043 19.6407C222.853 19.9796 223.531 20.4549 224.077 21.0665C224.622 21.6782 225.035 22.4014 225.316 23.2362C225.597 24.0627 225.738 24.9678 225.738 25.9514V26.2117C225.738 27.187 225.597 28.0921 225.316 28.9269C225.035 29.7534 224.622 30.4767 224.077 31.0966C223.531 31.7082 222.857 32.1835 222.056 32.5224C221.254 32.8612 220.328 33.0307 219.279 33.0307C218.229 33.0307 217.299 32.8612 216.489 32.5224C215.679 32.1835 215.001 31.7082 214.456 31.0966C213.91 30.4767 213.497 29.7534 213.216 28.9269C212.935 28.0921 212.794 27.187 212.794 26.2117ZM216.972 25.9514V26.2117C216.972 26.7159 217.01 27.187 217.084 27.6251C217.158 28.0632 217.282 28.4475 217.456 28.7781C217.63 29.1005 217.865 29.3526 218.163 29.5344C218.46 29.7163 218.832 29.8072 219.279 29.8072C219.717 29.8072 220.08 29.7163 220.37 29.5344C220.667 29.3526 220.903 29.1005 221.076 28.7781C221.25 28.4475 221.374 28.0632 221.448 27.6251C221.523 27.187 221.56 26.7159 221.56 26.2117V25.9514C221.56 25.4637 221.523 25.005 221.448 24.5752C221.374 24.1371 221.25 23.7528 221.076 23.4222C220.903 23.0833 220.667 22.8188 220.37 22.6287C220.072 22.4386 219.7 22.3435 219.254 22.3435C218.816 22.3435 218.448 22.4386 218.15 22.6287C217.861 22.8188 217.63 23.0833 217.456 23.4222C217.282 23.7528 217.158 24.1371 217.084 24.5752C217.01 25.005 216.972 25.4637 216.972 25.9514ZM231.701 22.2319V32.7827H227.523V19.368H231.441L231.701 22.2319ZM231.205 25.6166L230.226 25.6414C230.226 24.6165 230.35 23.7032 230.598 22.9014C230.846 22.0914 231.197 21.4054 231.652 20.8433C232.106 20.2813 232.648 19.8556 233.276 19.5663C233.912 19.2688 234.619 19.12 235.396 19.12C236.016 19.12 236.582 19.2109 237.095 19.3928C237.615 19.5746 238.062 19.868 238.434 20.273C238.814 20.678 239.103 21.2153 239.301 21.8848C239.508 22.546 239.611 23.3643 239.611 24.3396V32.7827H235.408V24.3272C235.408 23.79 235.334 23.3808 235.185 23.0998C235.037 22.8105 234.822 22.6121 234.541 22.5047C234.26 22.3972 233.917 22.3435 233.512 22.3435C233.082 22.3435 232.718 22.4262 232.421 22.5915C232.123 22.7568 231.883 22.9882 231.701 23.2858C231.528 23.5751 231.4 23.9181 231.317 24.3148C231.243 24.7116 231.205 25.1455 231.205 25.6166Z" fill="white"/>
<path d="M96.8468 52.4787V61.1418H96.0409V51.0818H96.7931L96.8468 52.4787ZM101.897 54.6478V54.7889C101.897 55.3306 101.834 55.8275 101.709 56.2797C101.584 56.7319 101.402 57.1237 101.165 57.455C100.932 57.7818 100.643 58.0347 100.299 58.2138C99.9539 58.3929 99.5622 58.4825 99.1234 58.4825C98.6891 58.4825 98.3019 58.4153 97.9616 58.281C97.6213 58.1467 97.3281 57.9564 97.0818 57.7102C96.8401 57.4594 96.6453 57.1684 96.4976 56.8371C96.3543 56.5013 96.2536 56.1342 96.1954 55.7358V53.8755C96.2625 53.4368 96.3722 53.0383 96.5244 52.6801C96.6767 52.322 96.8714 52.0131 97.1087 51.7534C97.3505 51.4937 97.637 51.2945 97.9683 51.1557C98.2996 51.0169 98.6779 50.9475 99.1033 50.9475C99.5465 50.9475 99.9405 51.0348 100.285 51.2094C100.634 51.3796 100.928 51.628 101.165 51.9549C101.407 52.2772 101.588 52.6667 101.709 53.1234C101.834 53.5756 101.897 54.0837 101.897 54.6478ZM101.091 54.7889V54.6478C101.091 54.2225 101.046 53.8285 100.957 53.4659C100.872 53.1032 100.74 52.7876 100.561 52.519C100.386 52.2459 100.162 52.0332 99.889 51.881C99.6204 51.7288 99.3002 51.6527 98.9286 51.6527C98.5436 51.6527 98.2146 51.7176 97.9414 51.8474C97.6728 51.9728 97.449 52.1407 97.2699 52.3511C97.0908 52.557 96.9498 52.7831 96.8468 53.0294C96.7438 53.2756 96.6677 53.5174 96.6185 53.7546V55.8969C96.7035 56.2372 96.8401 56.5528 97.0281 56.8438C97.2162 57.1304 97.4669 57.3609 97.7803 57.5356C98.0981 57.7057 98.4854 57.7907 98.9421 57.7907C99.3092 57.7907 99.6271 57.7146 99.8957 57.5624C100.164 57.4102 100.386 57.1975 100.561 56.9244C100.74 56.6513 100.872 56.3335 100.957 55.9708C101.046 55.6082 101.091 55.2142 101.091 54.7889ZM108.102 57.0453V53.298C108.102 52.9533 108.031 52.6555 107.887 52.4048C107.744 52.1541 107.534 51.9616 107.256 51.8273C106.978 51.6929 106.636 51.6258 106.229 51.6258C105.852 51.6258 105.517 51.6929 105.221 51.8273C104.93 51.9571 104.7 52.1339 104.529 52.3578C104.364 52.5772 104.281 52.8212 104.281 53.0898L103.475 53.0831C103.475 52.81 103.542 52.5458 103.677 52.2906C103.811 52.0354 104.001 51.8071 104.247 51.6056C104.494 51.4042 104.787 51.2452 105.127 51.1288C105.472 51.008 105.85 50.9475 106.262 50.9475C106.781 50.9475 107.238 51.0348 107.632 51.2094C108.031 51.384 108.342 51.6459 108.566 51.9952C108.789 52.3444 108.901 52.7831 108.901 53.3114V56.8237C108.901 57.0744 108.919 57.3341 108.955 57.6027C108.995 57.8713 109.051 58.093 109.123 58.2676V58.3481H108.27C108.216 58.187 108.174 57.9855 108.143 57.7437C108.116 57.4975 108.102 57.2647 108.102 57.0453ZM108.29 54.1173L108.304 54.7351H106.726C106.314 54.7351 105.944 54.7732 105.617 54.8493C105.295 54.9209 105.022 55.0284 104.798 55.1716C104.574 55.3104 104.402 55.4783 104.281 55.6753C104.165 55.8723 104.106 56.0962 104.106 56.3469C104.106 56.6066 104.171 56.8438 104.301 57.0587C104.435 57.2736 104.624 57.446 104.865 57.5758C105.112 57.7012 105.403 57.7639 105.738 57.7639C106.186 57.7639 106.58 57.6811 106.92 57.5154C107.265 57.3498 107.549 57.1326 107.773 56.864C107.997 56.5954 108.147 56.3021 108.223 55.9842L108.572 56.4476C108.514 56.6715 108.407 56.902 108.25 57.1393C108.098 57.3721 107.898 57.5915 107.652 57.7975C107.406 57.9989 107.115 58.1646 106.779 58.2944C106.448 58.4198 106.072 58.4825 105.651 58.4825C105.176 58.4825 104.762 58.3929 104.409 58.2138C104.059 58.0347 103.786 57.7907 103.589 57.4818C103.397 57.1684 103.301 56.8147 103.301 56.4208C103.301 56.0626 103.377 55.7425 103.529 55.4604C103.681 55.1739 103.9 54.9321 104.187 54.7351C104.478 54.5337 104.827 54.3814 105.235 54.2785C105.647 54.171 106.108 54.1173 106.618 54.1173H108.29ZM115.771 47.9188H116.463C116.463 48.2545 116.403 48.5344 116.282 48.7582C116.165 48.9821 116 49.1634 115.785 49.3022C115.57 49.441 115.317 49.5507 115.026 49.6312C114.739 49.7074 114.426 49.7723 114.086 49.826C113.669 49.8887 113.287 50.0252 112.937 50.2357C112.593 50.4461 112.297 50.7349 112.051 51.102C111.805 51.4646 111.619 51.9146 111.494 52.4518C111.373 52.9846 111.323 53.6091 111.346 54.3255V54.95H110.654V54.3255C110.654 53.5375 110.73 52.8391 110.882 52.2302C111.039 51.6168 111.261 51.093 111.547 50.6587C111.838 50.2245 112.183 49.8797 112.582 49.6245C112.984 49.3649 113.43 49.1947 113.918 49.1141C114.375 49.0425 114.737 48.9552 115.006 48.8522C115.279 48.7493 115.474 48.6217 115.59 48.4694C115.711 48.3172 115.771 48.1337 115.771 47.9188ZM113.985 51.5586C114.46 51.5586 114.887 51.6392 115.268 51.8004C115.648 51.9616 115.973 52.1899 116.242 52.4854C116.515 52.7764 116.723 53.1211 116.866 53.5196C117.014 53.9136 117.088 54.3456 117.088 54.8157V55.0306C117.088 55.5321 117.012 55.9932 116.859 56.414C116.712 56.8349 116.497 57.1998 116.215 57.5087C115.937 57.8176 115.599 58.0571 115.201 58.2273C114.807 58.3974 114.366 58.4825 113.878 58.4825C113.385 58.4825 112.942 58.3974 112.548 58.2273C112.154 58.0571 111.816 57.8176 111.534 57.5087C111.252 57.1998 111.035 56.8349 110.882 56.414C110.73 55.9932 110.654 55.5321 110.654 55.0306V54.8157C110.654 54.6859 110.668 54.5583 110.694 54.4329C110.726 54.3076 110.764 54.1845 110.809 54.0636C110.853 53.9382 110.898 53.8151 110.943 53.6942C111.1 53.2868 111.321 52.9241 111.608 52.6063C111.894 52.2839 112.237 52.0287 112.635 51.8407C113.038 51.6527 113.488 51.5586 113.985 51.5586ZM113.864 52.2436C113.34 52.2436 112.899 52.3645 112.541 52.6063C112.188 52.8436 111.919 53.1592 111.735 53.5532C111.552 53.9427 111.46 54.3635 111.46 54.8157V55.0306C111.46 55.4022 111.512 55.7537 111.614 56.085C111.717 56.4163 111.87 56.7118 112.071 56.9714C112.277 57.2266 112.53 57.4281 112.83 57.5758C113.13 57.7236 113.479 57.7975 113.878 57.7975C114.272 57.7975 114.619 57.7236 114.919 57.5758C115.219 57.4281 115.469 57.2266 115.671 56.9714C115.872 56.7118 116.024 56.4163 116.127 56.085C116.23 55.7537 116.282 55.4022 116.282 55.0306V54.8157C116.282 54.4755 116.23 54.1509 116.127 53.842C116.024 53.533 115.87 53.2599 115.664 53.0226C115.463 52.7809 115.21 52.5906 114.905 52.4518C114.605 52.313 114.258 52.2436 113.864 52.2436ZM118.189 54.8292V54.6075C118.189 54.0792 118.265 53.5912 118.417 53.1435C118.57 52.6958 118.787 52.3085 119.069 51.9817C119.355 51.6549 119.698 51.4019 120.096 51.2229C120.495 51.0393 120.938 50.9475 121.426 50.9475C121.919 50.9475 122.364 51.0393 122.762 51.2229C123.161 51.4019 123.503 51.6549 123.79 51.9817C124.076 52.3085 124.296 52.6958 124.448 53.1435C124.6 53.5912 124.676 54.0792 124.676 54.6075V54.8292C124.676 55.3574 124.6 55.8455 124.448 56.2932C124.296 56.7364 124.076 57.1214 123.79 57.4482C123.508 57.7751 123.168 58.0303 122.769 58.2138C122.371 58.3929 121.927 58.4825 121.439 58.4825C120.947 58.4825 120.502 58.3929 120.103 58.2138C119.705 58.0303 119.362 57.7751 119.076 57.4482C118.789 57.1214 118.57 56.7364 118.417 56.2932C118.265 55.8455 118.189 55.3574 118.189 54.8292ZM118.988 54.6075V54.8292C118.988 55.2276 119.042 55.6059 119.149 55.9641C119.257 56.3178 119.414 56.6334 119.62 56.911C119.825 57.1841 120.081 57.399 120.385 57.5557C120.69 57.7124 121.041 57.7907 121.439 57.7907C121.833 57.7907 122.18 57.7124 122.48 57.5557C122.785 57.399 123.04 57.1841 123.246 56.911C123.452 56.6334 123.606 56.3178 123.709 55.9641C123.817 55.6059 123.871 55.2276 123.871 54.8292V54.6075C123.871 54.2136 123.817 53.8397 123.709 53.486C123.606 53.1323 123.45 52.8167 123.239 52.5391C123.033 52.2615 122.778 52.0422 122.474 51.881C122.169 51.7198 121.82 51.6392 121.426 51.6392C121.032 51.6392 120.683 51.7198 120.378 51.881C120.078 52.0422 119.823 52.2615 119.613 52.5391C119.407 52.8167 119.25 53.1323 119.143 53.486C119.04 53.8397 118.988 54.2136 118.988 54.6075ZM128.76 51.0818V58.3481H127.96V51.0818H128.76ZM131.405 51.0818V51.7668H125.408V51.0818H131.405ZM137.047 57.0453V53.298C137.047 52.9533 136.975 52.6555 136.832 52.4048C136.688 52.1541 136.478 51.9616 136.2 51.8273C135.923 51.6929 135.58 51.6258 135.173 51.6258C134.797 51.6258 134.461 51.6929 134.166 51.8273C133.875 51.9571 133.644 52.1339 133.474 52.3578C133.308 52.5772 133.225 52.8212 133.225 53.0898L132.42 53.0831C132.42 52.81 132.487 52.5458 132.621 52.2906C132.755 52.0354 132.946 51.8071 133.192 51.6056C133.438 51.4042 133.731 51.2452 134.072 51.1288C134.416 51.008 134.795 50.9475 135.207 50.9475C135.726 50.9475 136.183 51.0348 136.577 51.2094C136.975 51.384 137.286 51.6459 137.51 51.9952C137.734 52.3444 137.846 52.7831 137.846 53.3114V56.8237C137.846 57.0744 137.864 57.3341 137.899 57.6027C137.94 57.8713 137.996 58.093 138.067 58.2676V58.3481H137.214C137.161 58.187 137.118 57.9855 137.087 57.7437C137.06 57.4975 137.047 57.2647 137.047 57.0453ZM137.235 54.1173L137.248 54.7351H135.67C135.258 54.7351 134.889 54.7732 134.562 54.8493C134.239 54.9209 133.966 55.0284 133.743 55.1716C133.519 55.3104 133.346 55.4783 133.225 55.6753C133.109 55.8723 133.051 56.0962 133.051 56.3469C133.051 56.6066 133.116 56.8438 133.246 57.0587C133.38 57.2736 133.568 57.446 133.81 57.5758C134.056 57.7012 134.347 57.7639 134.683 57.7639C135.13 57.7639 135.524 57.6811 135.865 57.5154C136.209 57.3498 136.494 57.1326 136.718 56.864C136.941 56.5954 137.091 56.3021 137.167 55.9842L137.517 56.4476C137.458 56.6715 137.351 56.902 137.194 57.1393C137.042 57.3721 136.843 57.5915 136.597 57.7975C136.35 57.9989 136.059 58.1646 135.724 58.2944C135.392 58.4198 135.016 58.4825 134.595 58.4825C134.121 58.4825 133.707 58.3929 133.353 58.2138C133.004 58.0347 132.731 57.7907 132.534 57.4818C132.341 57.1684 132.245 56.8147 132.245 56.4208C132.245 56.0626 132.321 55.7425 132.473 55.4604C132.625 55.1739 132.845 54.9321 133.131 54.7351C133.422 54.5337 133.772 54.3814 134.179 54.2785C134.591 54.171 135.052 54.1173 135.562 54.1173H137.235ZM142.809 58.4825C142.334 58.4825 141.898 58.3952 141.499 58.2205C141.105 58.0459 140.76 57.7997 140.465 57.4818C140.174 57.164 139.948 56.7879 139.787 56.3536C139.63 55.9148 139.552 55.4358 139.552 54.9165V54.6277C139.552 54.068 139.634 53.5621 139.8 53.1099C139.966 52.6578 140.194 52.2705 140.485 51.9481C140.776 51.6258 141.107 51.3796 141.479 51.2094C141.855 51.0348 142.249 50.9475 142.661 50.9475C143.122 50.9475 143.532 51.0303 143.89 51.196C144.248 51.3572 144.548 51.5877 144.79 51.8877C145.036 52.1832 145.222 52.5346 145.347 52.9421C145.472 53.345 145.535 53.7905 145.535 54.2785V54.7687H140.035V54.0837H144.736V53.9897C144.727 53.5823 144.644 53.2017 144.488 52.848C144.335 52.4899 144.107 52.1989 143.803 51.975C143.498 51.7512 143.118 51.6392 142.661 51.6392C142.321 51.6392 142.007 51.7109 141.721 51.8541C141.439 51.9974 141.195 52.2033 140.989 52.472C140.787 52.7361 140.631 53.0517 140.519 53.4189C140.411 53.7815 140.357 54.1845 140.357 54.6277V54.9165C140.357 55.3194 140.416 55.6955 140.532 56.0447C140.653 56.3894 140.823 56.6939 141.042 56.958C141.266 57.2222 141.53 57.4281 141.835 57.5758C142.139 57.7236 142.475 57.7975 142.842 57.7975C143.272 57.7975 143.653 57.7191 143.984 57.5624C144.315 57.4012 144.613 57.1483 144.877 56.8035L145.381 57.1931C145.224 57.4259 145.027 57.6408 144.79 57.8378C144.557 58.0347 144.277 58.1914 143.95 58.3079C143.623 58.4243 143.243 58.4825 142.809 58.4825ZM151.136 57.2468L154.024 51.0818H154.823L151.418 58.3481H150.854L147.456 51.0818H148.255L151.136 57.2468ZM148.007 51.0818V58.3481H147.207V51.0818H148.007ZM154.212 58.3481V51.0818H155.018V58.3481H154.212ZM163.217 57.7907C163.558 57.7907 163.876 57.7281 164.171 57.6027C164.471 57.4729 164.717 57.2826 164.91 57.0319C165.107 56.7767 165.219 56.4655 165.246 56.0984H166.011C165.989 56.5595 165.848 56.9714 165.588 57.3341C165.333 57.6923 164.997 57.9743 164.581 58.1803C164.169 58.3817 163.714 58.4825 163.217 58.4825C162.712 58.4825 162.264 58.3907 161.874 58.2071C161.489 58.0236 161.167 57.7684 160.907 57.4415C160.648 57.1102 160.451 56.7252 160.316 56.2864C160.186 55.8432 160.122 55.3664 160.122 54.856V54.574C160.122 54.0636 160.186 53.589 160.316 53.1502C160.451 52.707 160.648 52.322 160.907 51.9952C161.167 51.6638 161.489 51.4064 161.874 51.2229C162.259 51.0393 162.705 50.9475 163.211 50.9475C163.73 50.9475 164.196 51.0527 164.608 51.2631C165.024 51.4736 165.355 51.7713 165.601 52.1563C165.852 52.5414 165.989 52.998 166.011 53.5263H165.246C165.223 53.1368 165.12 52.801 164.937 52.519C164.753 52.2369 164.511 52.0198 164.211 51.8676C163.911 51.7153 163.578 51.6392 163.211 51.6392C162.799 51.6392 162.447 51.7198 162.156 51.881C161.865 52.0377 161.628 52.2548 161.445 52.5324C161.265 52.8055 161.133 53.1189 161.048 53.4726C160.963 53.8218 160.921 54.1889 160.921 54.574V54.856C160.921 55.2455 160.961 55.6171 161.042 55.9708C161.127 56.32 161.259 56.6312 161.438 56.9043C161.621 57.1774 161.859 57.3945 162.15 57.5557C162.445 57.7124 162.801 57.7907 163.217 57.7907ZM176.978 57.6564V58.3481H170.86V57.7236L174.063 54.0904C174.462 53.6382 174.78 53.242 175.017 52.9018C175.254 52.557 175.424 52.2436 175.527 51.9616C175.635 51.675 175.688 51.3975 175.688 51.1288C175.688 50.7349 175.61 50.3879 175.453 50.0879C175.301 49.7879 175.073 49.5529 174.768 49.3828C174.464 49.2126 174.088 49.1276 173.64 49.1276C173.192 49.1276 172.803 49.2238 172.472 49.4163C172.14 49.6089 171.885 49.8775 171.706 50.2222C171.531 50.5625 171.444 50.9498 171.444 51.384H170.645C170.645 50.8468 170.764 50.3543 171.001 49.9066C171.243 49.4589 171.587 49.103 172.035 48.8388C172.483 48.5702 173.018 48.4359 173.64 48.4359C174.231 48.4359 174.739 48.5411 175.165 48.7515C175.59 48.9574 175.917 49.2552 176.145 49.6447C176.378 50.0342 176.494 50.5043 176.494 51.055C176.494 51.3505 176.441 51.6482 176.333 51.9481C176.23 52.2481 176.087 52.5481 175.903 52.848C175.724 53.1435 175.518 53.4368 175.285 53.7278C175.057 54.0188 174.818 54.3053 174.567 54.5874L171.84 57.6564H176.978ZM184.378 52.6197V54.265C184.378 54.9814 184.311 55.6059 184.177 56.1387C184.043 56.667 183.846 57.1058 183.586 57.455C183.331 57.7997 183.017 58.0571 182.646 58.2273C182.279 58.3974 181.858 58.4825 181.383 58.4825C181.007 58.4825 180.662 58.4287 180.349 58.3213C180.036 58.2138 179.756 58.0504 179.51 57.831C179.268 57.6072 179.062 57.3274 178.892 56.9916C178.722 56.6558 178.592 56.2618 178.502 55.8096C178.413 55.353 178.368 54.8381 178.368 54.265V52.6197C178.368 51.8989 178.435 51.2766 178.569 50.7528C178.708 50.2289 178.905 49.7947 179.16 49.4499C179.42 49.1052 179.736 48.85 180.107 48.6843C180.479 48.5142 180.9 48.4291 181.37 48.4291C181.746 48.4291 182.091 48.4851 182.404 48.597C182.722 48.7045 183.002 48.8657 183.243 49.0806C183.49 49.2955 183.696 49.5708 183.861 49.9066C184.031 50.2379 184.159 50.6296 184.244 51.0818C184.334 51.534 184.378 52.0466 184.378 52.6197ZM183.579 54.3591V52.519C183.579 52.0757 183.548 51.6728 183.485 51.3102C183.427 50.9475 183.34 50.6296 183.223 50.3565C183.107 50.0834 182.959 49.8551 182.78 49.6715C182.605 49.488 182.4 49.3514 182.162 49.2619C181.929 49.1679 181.665 49.1209 181.37 49.1209C181.007 49.1209 180.687 49.1947 180.409 49.3425C180.136 49.4857 179.908 49.7006 179.724 49.9872C179.541 50.2692 179.402 50.6229 179.308 51.0482C179.219 51.4736 179.174 51.9638 179.174 52.519V54.3591C179.174 54.7978 179.203 55.1985 179.261 55.5612C179.319 55.9193 179.409 56.2372 179.53 56.5148C179.651 56.7924 179.798 57.0274 179.973 57.2199C180.152 57.408 180.358 57.5512 180.591 57.6497C180.828 57.7437 181.092 57.7907 181.383 57.7907C181.755 57.7907 182.077 57.7169 182.35 57.5691C182.623 57.4169 182.852 57.1953 183.035 56.9043C183.219 56.6088 183.355 56.2484 183.445 55.8231C183.534 55.3933 183.579 54.9053 183.579 54.3591ZM192.007 52.6197V54.265C192.007 54.9814 191.94 55.6059 191.806 56.1387C191.672 56.667 191.475 57.1058 191.215 57.455C190.96 57.7997 190.646 58.0571 190.275 58.2273C189.908 58.3974 189.487 58.4825 189.012 58.4825C188.636 58.4825 188.291 58.4287 187.978 58.3213C187.665 58.2138 187.385 58.0504 187.139 57.831C186.897 57.6072 186.691 57.3274 186.521 56.9916C186.351 56.6558 186.221 56.2618 186.131 55.8096C186.042 55.353 185.997 54.8381 185.997 54.265V52.6197C185.997 51.8989 186.064 51.2766 186.198 50.7528C186.337 50.2289 186.534 49.7947 186.789 49.4499C187.049 49.1052 187.365 48.85 187.736 48.6843C188.108 48.5142 188.529 48.4291 188.999 48.4291C189.375 48.4291 189.72 48.4851 190.033 48.597C190.351 48.7045 190.631 48.8657 190.872 49.0806C191.119 49.2955 191.325 49.5708 191.49 49.9066C191.66 50.2379 191.788 50.6296 191.873 51.0818C191.963 51.534 192.007 52.0466 192.007 52.6197ZM191.208 54.3591V52.519C191.208 52.0757 191.177 51.6728 191.114 51.3102C191.056 50.9475 190.969 50.6296 190.852 50.3565C190.736 50.0834 190.588 49.8551 190.409 49.6715C190.234 49.488 190.028 49.3514 189.791 49.2619C189.558 49.1679 189.294 49.1209 188.999 49.1209C188.636 49.1209 188.316 49.1947 188.038 49.3425C187.765 49.4857 187.537 49.7006 187.353 49.9872C187.17 50.2692 187.031 50.6229 186.937 51.0482C186.848 51.4736 186.803 51.9638 186.803 52.519V54.3591C186.803 54.7978 186.832 55.1985 186.89 55.5612C186.948 55.9193 187.038 56.2372 187.159 56.5148C187.28 56.7924 187.427 57.0274 187.602 57.2199C187.781 57.408 187.987 57.5512 188.22 57.6497C188.457 57.7437 188.721 57.7907 189.012 57.7907C189.384 57.7907 189.706 57.7169 189.979 57.5691C190.252 57.4169 190.481 57.1953 190.664 56.9043C190.848 56.6088 190.984 56.2484 191.074 55.8231C191.163 55.3933 191.208 54.9053 191.208 54.3591ZM199.865 57.6564V58.3481H193.747V57.7236L196.95 54.0904C197.349 53.6382 197.666 53.242 197.904 52.9018C198.141 52.557 198.311 52.2436 198.414 51.9616C198.522 51.675 198.575 51.3975 198.575 51.1288C198.575 50.7349 198.497 50.3879 198.34 50.0879C198.188 49.7879 197.96 49.5529 197.655 49.3828C197.351 49.2126 196.975 49.1276 196.527 49.1276C196.079 49.1276 195.69 49.2238 195.358 49.4163C195.027 49.6089 194.772 49.8775 194.593 50.2222C194.418 50.5625 194.331 50.9498 194.331 51.384H193.532C193.532 50.8468 193.65 50.3543 193.888 49.9066C194.13 49.4589 194.474 49.103 194.922 48.8388C195.37 48.5702 195.905 48.4359 196.527 48.4359C197.118 48.4359 197.626 48.5411 198.051 48.7515C198.477 48.9574 198.804 49.2552 199.032 49.6447C199.265 50.0342 199.381 50.5043 199.381 51.055C199.381 51.3505 199.327 51.6482 199.22 51.9481C199.117 52.2481 198.974 52.5481 198.79 52.848C198.611 53.1435 198.405 53.4368 198.172 53.7278C197.944 54.0188 197.704 54.3053 197.454 54.5874L194.727 57.6564H199.865ZM209.387 51.0818V51.7803H205.707V58.3481H204.908V51.0818H209.387ZM210.086 54.8292V54.6075C210.086 54.0792 210.162 53.5912 210.314 53.1435C210.466 52.6958 210.684 52.3085 210.966 51.9817C211.252 51.6549 211.595 51.4019 211.993 51.2229C212.392 51.0393 212.835 50.9475 213.323 50.9475C213.815 50.9475 214.261 51.0393 214.659 51.2229C215.058 51.4019 215.4 51.6549 215.687 51.9817C215.973 52.3085 216.193 52.6958 216.345 53.1435C216.497 53.5912 216.573 54.0792 216.573 54.6075V54.8292C216.573 55.3574 216.497 55.8455 216.345 56.2932C216.193 56.7364 215.973 57.1214 215.687 57.4482C215.405 57.7751 215.064 58.0303 214.666 58.2138C214.267 58.3929 213.824 58.4825 213.336 58.4825C212.844 58.4825 212.398 58.3929 212 58.2138C211.601 58.0303 211.259 57.7751 210.972 57.4482C210.686 57.1214 210.466 56.7364 210.314 56.2932C210.162 55.8455 210.086 55.3574 210.086 54.8292ZM210.885 54.6075V54.8292C210.885 55.2276 210.939 55.6059 211.046 55.9641C211.154 56.3178 211.31 56.6334 211.516 56.911C211.722 57.1841 211.977 57.399 212.282 57.5557C212.586 57.7124 212.938 57.7907 213.336 57.7907C213.73 57.7907 214.077 57.7124 214.377 57.5557C214.682 57.399 214.937 57.1841 215.143 56.911C215.349 56.6334 215.503 56.3178 215.606 55.9641C215.714 55.6059 215.767 55.2276 215.767 54.8292V54.6075C215.767 54.2136 215.714 53.8397 215.606 53.486C215.503 53.1323 215.346 52.8167 215.136 52.5391C214.93 52.2615 214.675 52.0422 214.37 51.881C214.066 51.7198 213.717 51.6392 213.323 51.6392C212.929 51.6392 212.58 51.7198 212.275 51.881C211.975 52.0422 211.72 52.2615 211.51 52.5391C211.304 52.8167 211.147 53.1323 211.039 53.486C210.937 53.8397 210.885 54.2136 210.885 54.6075ZM219.045 51.0818H219.844L219.723 53.7009C219.691 54.3994 219.613 55.006 219.488 55.5209C219.367 56.0313 219.217 56.4678 219.038 56.8304C218.859 57.1886 218.662 57.4908 218.447 57.737C218.236 57.9788 218.022 58.1825 217.802 58.3481H217.366L217.379 57.6631L217.581 57.6564C217.71 57.4997 217.845 57.3229 217.983 57.1259C218.127 56.9244 218.263 56.6782 218.393 56.3872C218.523 56.0962 218.635 55.7335 218.729 55.2992C218.823 54.865 218.886 54.3322 218.917 53.7009L219.045 51.0818ZM219.306 51.0818H223.329V58.3481H222.53V51.834H219.306V51.0818ZM217.057 57.6564H224.088V60.4837H223.282V58.3481H217.822V60.4837H217.057V57.6564ZM230.058 57.0453V53.298C230.058 52.9533 229.987 52.6555 229.843 52.4048C229.7 52.1541 229.49 51.9616 229.212 51.8273C228.934 51.6929 228.592 51.6258 228.184 51.6258C227.808 51.6258 227.473 51.6929 227.177 51.8273C226.886 51.9571 226.656 52.1339 226.485 52.3578C226.32 52.5772 226.237 52.8212 226.237 53.0898L225.431 53.0831C225.431 52.81 225.498 52.5458 225.633 52.2906C225.767 52.0354 225.957 51.8071 226.203 51.6056C226.45 51.4042 226.743 51.2452 227.083 51.1288C227.428 51.008 227.806 50.9475 228.218 50.9475C228.737 50.9475 229.194 51.0348 229.588 51.2094C229.987 51.384 230.298 51.6459 230.522 51.9952C230.745 52.3444 230.857 52.7831 230.857 53.3114V56.8237C230.857 57.0744 230.875 57.3341 230.911 57.6027C230.951 57.8713 231.007 58.093 231.079 58.2676V58.3481H230.226C230.172 58.187 230.13 57.9855 230.098 57.7437C230.072 57.4975 230.058 57.2647 230.058 57.0453ZM230.246 54.1173L230.26 54.7351H228.681C228.27 54.7351 227.9 54.7732 227.573 54.8493C227.251 54.9209 226.978 55.0284 226.754 55.1716C226.53 55.3104 226.358 55.4783 226.237 55.6753C226.121 55.8723 226.062 56.0962 226.062 56.3469C226.062 56.6066 226.127 56.8438 226.257 57.0587C226.391 57.2736 226.579 57.446 226.821 57.5758C227.067 57.7012 227.358 57.7639 227.694 57.7639C228.142 57.7639 228.536 57.6811 228.876 57.5154C229.221 57.3498 229.505 57.1326 229.729 56.864C229.953 56.5954 230.103 56.3021 230.179 55.9842L230.528 56.4476C230.47 56.6715 230.363 56.902 230.206 57.1393C230.054 57.3721 229.854 57.5915 229.608 57.7975C229.362 57.9989 229.071 58.1646 228.735 58.2944C228.404 58.4198 228.028 58.4825 227.607 58.4825C227.132 58.4825 226.718 58.3929 226.365 58.2138C226.015 58.0347 225.742 57.7907 225.545 57.4818C225.353 57.1684 225.256 56.8147 225.256 56.4208C225.256 56.0626 225.333 55.7425 225.485 55.4604C225.637 55.1739 225.856 54.9321 226.143 54.7351C226.434 54.5337 226.783 54.3814 227.191 54.2785C227.602 54.171 228.064 54.1173 228.574 54.1173H230.246Z" fill="white"/>
</svg>
