<?xml version="1.0" encoding="utf-8"?><svg viewBox="0 0 44 44" xmlns="http://www.w3.org/2000/svg" xmlns:xlink="http://www.w3.org/1999/xlink"><style>:root>svg{display:none}:root>svg:target{display:block}</style><svg fill="none" viewBox="0 0 44 44" id="Calling" xmlns="http://www.w3.org/2000/svg"><path fill-rule="evenodd" clip-rule="evenodd" d="M9.869 4.17c2.047.028 3.507 1.562 5.353 3.504.457.478.95 1 1.502 1.55 2.674 2.678 1.913 4.861 1.3 6.614-.668 1.912-1.245 3.562 2.212 7.02 3.458 3.457 5.106 2.88 7.016 2.207 1.755-.612 3.933-1.379 6.613 1.298a80.958 80.958 0 0 0 1.535 1.485c1.949 1.855 3.489 3.32 3.514 5.373.02 1.75-1.043 3.535-3.668 6.16l-1.163-.788.985.959c-.581.596-2.127 2.183-5.154 2.202h-.055c-4.568 0-10.525-3.638-17.704-10.815C4.946 23.732 1.303 17.757 1.33 13.179c.016-3.025 1.602-4.574 2.198-5.155l.05-.055.124-.125C6.334 5.214 8.142 4.132 9.87 4.17Zm-.035 2.75h-.015c-.823 0-2.073.825-3.817 2.52l-.35.343h.004c.002 0-.03.034-.081.086l-.123.122c-.443.431-1.362 1.328-1.371 3.203-.015 2.624 1.71 7.495 10.017 15.8 8.267 8.264 13.13 10.01 15.761 10.01h.039c1.875-.011 2.77-.93 3.2-1.372a3.89 3.89 0 0 1 .313-.295c1.827-1.839 2.762-3.204 2.753-4.083-.01-.894-1.124-1.95-2.662-3.415a80.461 80.461 0 0 1-1.582-1.533c-1.456-1.45-2.173-1.202-3.758-.645-2.191.768-5.192 1.82-9.87-2.86-4.678-4.677-3.63-7.678-2.865-9.87.554-1.585.807-2.305-.647-3.76-.568-.57-1.08-1.108-1.55-1.603-1.457-1.53-2.507-2.635-3.396-2.648Zm15.781 3.773a9.447 9.447 0 0 1 7.504 7.502 1.374 1.374 0 1 1-2.698.527 6.71 6.71 0 0 0-5.33-5.33 1.373 1.373 0 1 1 .524-2.7Zm-.11-6.512c7.477.83 13.283 6.63 14.12 14.104a1.375 1.375 0 0 1-2.73.308C36.198 12.403 31.391 7.6 25.2 6.913a1.374 1.374 0 0 1-1.213-1.518 1.361 1.361 0 0 1 1.518-1.214Z" fill="#F6F9FF"/></svg><svg fill="none" viewBox="0 0 25 24" id="close" xmlns="http://www.w3.org/2000/svg"><path d="M18.889 4 12.5 10.389 6.111 4 4.5 5.611 10.889 12 4.5 18.389 6.111 20l6.389-6.389L18.889 20l1.611-1.611L14.111 12 20.5 5.611 18.889 4Z" fill="#848A93"/></svg><svg fill="none" viewBox="0 0 23 23" id="downloads" xmlns="http://www.w3.org/2000/svg"><g clip-path="url(#ca)" stroke="#2D2D2E" stroke-linecap="round" stroke-linejoin="round"><path d="M.822 17.25v1.643a3.286 3.286 0 0 0 3.285 3.286h14.786a3.286 3.286 0 0 0 3.286-3.286V17.25M6.572 9.857l4.928 5.75 4.929-5.75M11.5 15.607V.821"/></g><defs><clipPath id="ca"><path fill="#fff" d="M0 0h23v23H0z"/></clipPath></defs></svg><svg fill="none" viewBox="0 0 23 23" id="downloads_3d" xmlns="http://www.w3.org/2000/svg"><path d="M5.75 3.354 8.146.958l2.395 2.396" stroke="#2D2D2E" stroke-linecap="round" stroke-linejoin="round"/><path d="M21.323 16.292 9.409 14.854a1.263 1.263 0 0 1-1.263-1.263V.958" stroke="#2D2D2E" stroke-linecap="round" stroke-linejoin="round"/><path d="m20.043 13.736 1.983 2.746-2.746 1.984M8.146 14.854l-7.084 5.838M4.895 21.117l-3.834-.425.426-3.834" stroke="#2D2D2E" stroke-linecap="round" stroke-linejoin="round"/></svg><svg fill="none" viewBox="0 0 23 23" id="downloads__light" xmlns="http://www.w3.org/2000/svg"><g clip-path="url(#ia)" stroke="#E4E4E4" stroke-linecap="round" stroke-linejoin="round"><path d="M.822 17.25v1.643a3.286 3.286 0 0 0 3.285 3.286h14.786a3.286 3.286 0 0 0 3.286-3.286V17.25M6.572 9.857l4.928 5.75 4.929-5.75M11.5 15.607V.822"/></g><defs><clipPath id="ia"><path fill="#fff" d="M0 0h23v23H0z"/></clipPath></defs></svg><svg fill="none" viewBox="0 0 23 23" id="downloads_desc" xmlns="http://www.w3.org/2000/svg"><path d="M20.536 20.536a1.643 1.643 0 0 1-1.643 1.642H4.107a1.643 1.643 0 0 1-1.643-1.642V2.464A1.643 1.643 0 0 1 4.107.821h8.215l8.214 8.215v11.5Z" stroke="#2D2D2E" stroke-linecap="round" stroke-linejoin="round"/><path d="M12.322.821v8.215h8.214" stroke="#2D2D2E" stroke-linecap="round" stroke-linejoin="round"/><path d="M5.235 18.622v-5.031h.848v.605h.05c.044-.089.107-.183.188-.283a.998.998 0 0 1 .329-.26c.138-.073.314-.11.529-.11.282 0 .537.073.764.217.23.143.41.355.544.636.135.28.202.623.202 1.03 0 .401-.066.743-.198 1.024a1.506 1.506 0 0 1-.538.643 1.385 1.385 0 0 1-.772.221c-.21 0-.383-.035-.522-.104a1.061 1.061 0 0 1-.333-.253 1.634 1.634 0 0 1-.193-.283h-.036v1.948h-.862Zm.846-3.201c0 .236.033.443.1.621a.949.949 0 0 0 .293.417.746.746 0 0 0 .467.148c.19 0 .35-.051.478-.153a.94.94 0 0 0 .291-.421c.067-.18.1-.384.1-.613a1.74 1.74 0 0 0-.098-.605.909.909 0 0 0-.29-.414.76.76 0 0 0-.481-.15.758.758 0 0 0-.47.145.893.893 0 0 0-.293.407c-.065.175-.097.38-.097.617ZM11.557 17.314c-.288 0-.545-.073-.772-.221a1.506 1.506 0 0 1-.538-.643c-.132-.281-.198-.623-.198-1.025 0-.406.067-.75.2-1.029a1.48 1.48 0 0 1 .546-.636c.228-.144.483-.217.764-.217.215 0 .391.037.53.11a.998.998 0 0 1 .328.26c.08.1.144.194.188.283h.036v-1.825h.865v4.88h-.848v-.577h-.053a1.473 1.473 0 0 1-.193.283 1.061 1.061 0 0 1-.333.253c-.139.07-.313.104-.522.104Zm.24-.707c.183 0 .339-.05.467-.148.13-.1.227-.239.293-.417.067-.178.1-.385.1-.622 0-.236-.033-.442-.1-.617a.878.878 0 0 0-.29-.407.751.751 0 0 0-.47-.145.76.76 0 0 0-.48.15.909.909 0 0 0-.291.414 1.738 1.738 0 0 0-.098.606c0 .228.032.432.098.612a.956.956 0 0 0 .293.421c.13.102.29.153.478.153ZM17.05 13.591v.667h-2.164v-.667h2.163Zm-1.623 3.66v-4.006c0-.246.05-.45.152-.614a.965.965 0 0 1 .415-.367c.173-.08.365-.121.576-.121.15 0 .282.011.398.035.116.024.202.046.258.065l-.172.667a1.457 1.457 0 0 0-.138-.034.836.836 0 0 0-.186-.019c-.16 0-.274.04-.34.117-.066.076-.098.186-.098.329v3.947h-.865Z" fill="#2D2D2E"/></svg><svg fill="none" viewBox="0 0 23 23" id="downloads_desc__light" xmlns="http://www.w3.org/2000/svg"><path d="M20.536 20.536a1.643 1.643 0 0 1-1.643 1.643H4.107a1.643 1.643 0 0 1-1.643-1.643V2.464A1.643 1.643 0 0 1 4.107.822h8.215l8.214 8.214v11.5Z" stroke="#E4E4E4" stroke-linecap="round" stroke-linejoin="round"/><path d="M12.322.822v8.214h8.214" stroke="#E4E4E4" stroke-linecap="round" stroke-linejoin="round"/><path d="M5.235 18.622v-5.031h.848v.605h.05c.044-.089.107-.183.188-.283a.998.998 0 0 1 .329-.26c.138-.073.314-.11.529-.11.282 0 .537.073.764.217.23.143.41.355.544.636.135.28.202.623.202 1.03 0 .401-.066.743-.198 1.024a1.506 1.506 0 0 1-.538.643 1.385 1.385 0 0 1-.772.221c-.21 0-.383-.035-.522-.104a1.061 1.061 0 0 1-.333-.253 1.634 1.634 0 0 1-.193-.283h-.036v1.948h-.862Zm.846-3.201c0 .236.033.443.1.621a.949.949 0 0 0 .293.417.746.746 0 0 0 .467.148c.19 0 .35-.051.478-.153a.94.94 0 0 0 .291-.421c.067-.18.1-.384.1-.613a1.74 1.74 0 0 0-.098-.605.909.909 0 0 0-.29-.414.76.76 0 0 0-.481-.15.758.758 0 0 0-.47.145.893.893 0 0 0-.293.407c-.065.175-.097.38-.097.617ZM11.557 17.314c-.288 0-.545-.073-.772-.221a1.506 1.506 0 0 1-.538-.643c-.132-.281-.198-.623-.198-1.025 0-.406.067-.75.2-1.029a1.48 1.48 0 0 1 .546-.636c.228-.144.483-.217.764-.217.215 0 .391.037.53.11a.998.998 0 0 1 .328.26c.08.1.144.194.188.283h.036v-1.825h.865v4.88h-.848v-.577h-.053a1.473 1.473 0 0 1-.193.283 1.061 1.061 0 0 1-.333.253c-.139.07-.313.104-.522.104Zm.24-.707c.183 0 .339-.05.467-.148.13-.1.227-.239.293-.417.067-.178.1-.385.1-.622 0-.236-.033-.442-.1-.617a.878.878 0 0 0-.29-.407.751.751 0 0 0-.47-.145.76.76 0 0 0-.48.15.909.909 0 0 0-.291.414 1.738 1.738 0 0 0-.098.606c0 .228.032.432.098.612a.956.956 0 0 0 .293.421c.13.102.29.153.478.153ZM17.05 13.591v.667h-2.164v-.667h2.163Zm-1.623 3.66v-4.006c0-.246.05-.45.152-.614a.965.965 0 0 1 .415-.367c.173-.08.365-.121.576-.121.15 0 .282.011.398.035.116.024.202.046.258.065l-.172.667a1.457 1.457 0 0 0-.138-.034.836.836 0 0 0-.186-.019c-.16 0-.274.04-.34.117-.066.076-.098.186-.098.329v3.947h-.865Z" fill="#fff"/></svg><svg fill="none" viewBox="0 0 23 23" id="downloads_pass" xmlns="http://www.w3.org/2000/svg"><path d="M14.786 4.107H4.929c-.908 0-1.643.735-1.643 1.643v14.785c0 .908.735 1.643 1.642 1.643h9.858c.907 0 1.643-.735 1.643-1.643V5.75c0-.908-.736-1.643-1.643-1.643ZM6.571 8.214h6.572M6.571 12.321h6.572M6.571 16.428h3.286" stroke="#2D2D2E" stroke-linecap="round" stroke-linejoin="round"/><path d="M7.393.821H18.07a1.643 1.643 0 0 1 1.643 1.643v15.607" stroke="#2D2D2E" stroke-linecap="round" stroke-linejoin="round"/></svg><svg fill="none" viewBox="0 0 23 23" id="downloads_pass__light" xmlns="http://www.w3.org/2000/svg"><path d="M14.786 4.107H4.929c-.908 0-1.643.736-1.643 1.643v14.786c0 .907.735 1.643 1.642 1.643h9.858c.907 0 1.643-.736 1.643-1.643V5.75c0-.907-.736-1.643-1.643-1.643ZM6.571 8.214h6.572M6.571 12.322h6.572M6.571 16.429h3.286" stroke="#E4E4E4" stroke-linecap="round" stroke-linejoin="round"/><path d="M7.393.822H18.07a1.643 1.643 0 0 1 1.643 1.642v15.607" stroke="#E4E4E4" stroke-linecap="round" stroke-linejoin="round"/></svg><svg viewBox="0 0 32 32" id="header__close" xmlns="http://www.w3.org/2000/svg"><path d="M25.583 4 16 13.583 6.417 4 4 6.417 13.583 16 4 25.583 6.417 28 16 18.417 25.583 28 28 25.583 18.417 16 28 6.417 25.583 4Z"/></svg><svg viewBox="0 0 44 43" id="header__search" xmlns="http://www.w3.org/2000/svg"><g clip-path="url(#ka)"><path d="m35.266 33.549-8.074-8.253c1.61-1.951 2.415-4.201 2.415-6.75 0-1.916-.463-3.683-1.39-5.3a10.322 10.322 0 0 0-3.79-3.836 10.122 10.122 0 0 0-5.218-1.411c-1.878 0-3.613.47-5.205 1.41a10.353 10.353 0 0 0-3.778 3.837c-.926 1.617-1.389 3.384-1.389 5.3s.463 3.683 1.39 5.3a10.353 10.353 0 0 0 3.777 3.836c1.592.94 3.332 1.41 5.218 1.41 2.579 0 4.846-.86 6.802-2.583l8.048 8.226a.815.815 0 0 0 .597.264c.225 0 .42-.084.584-.25a.833.833 0 0 0 .247-.607.812.812 0 0 0-.234-.593Zm-16.044-6.117c-1.592 0-3.06-.4-4.4-1.2a8.796 8.796 0 0 1-3.18-3.243 8.8 8.8 0 0 1-1.169-4.443c0-1.6.39-3.08 1.168-4.443a8.796 8.796 0 0 1 3.18-3.243 8.412 8.412 0 0 1 4.388-1.2c1.584 0 3.046.4 4.387 1.2a8.794 8.794 0 0 1 3.18 3.243 8.798 8.798 0 0 1 1.17 4.443 8.91 8.91 0 0 1-.235 2.03 8.686 8.686 0 0 1-.662 1.872 9.835 9.835 0 0 1-1.025 1.648c-.398.519-.848.98-1.35 1.384a9.2 9.2 0 0 1-1.61 1.042 8.388 8.388 0 0 1-1.843.672 8.519 8.519 0 0 1-1.999.238Z"/></g><defs><clipPath id="ka"><path transform="translate(8.5 8)" d="M0 0h27v27H0z"/></clipPath></defs></svg></svg>