<svg width="44" height="44" viewBox="0 0 44 44" fill="none" xmlns="http://www.w3.org/2000/svg">
<path fill-rule="evenodd" clip-rule="evenodd" d="M9.86871 4.17042C11.9165 4.19792 13.3759 5.73242 15.222 7.67392C15.6785 8.15242 16.1717 8.67492 16.7235 9.22492C19.3984 11.9016 18.6375 14.0851 18.0234 15.8378C17.356 17.7499 16.7785 19.3999 20.2362 22.8576C23.6939 26.3153 25.342 25.7378 27.2524 25.0649C29.0069 24.4526 31.1849 23.6863 33.8652 26.3629C34.4097 26.9074 34.923 27.3951 35.3997 27.8479C37.3485 29.7033 38.8885 31.1681 38.9145 33.2214C38.9344 34.9704 37.871 36.7561 35.2457 39.3814L34.0834 38.5931L35.0679 39.5519C34.4867 40.1478 32.9412 41.7354 29.9144 41.7538H29.8594C25.2907 41.7538 19.3342 38.1164 12.1549 30.9389C4.94621 23.7321 1.30337 17.7573 1.33072 13.1794C1.34737 10.1544 2.93321 8.60526 3.52904 8.02409L3.5799 7.96855L3.70321 7.84442C6.33404 5.21359 8.14171 4.13192 9.86871 4.17042ZM9.83387 6.92042H9.81921C8.99593 6.92042 7.74564 7.74542 6.00189 9.43923L5.65173 9.7831L5.65571 9.78226C5.65791 9.78226 5.62579 9.81658 5.57479 9.86859L5.45221 9.99126C5.00854 10.4221 4.09004 11.3186 4.08078 13.1941C4.06621 15.8176 5.79137 20.6888 14.0982 28.9938C22.3647 37.2584 27.2285 39.0038 29.8594 39.0038H29.8979C31.7734 38.9928 32.668 38.0743 33.0989 37.6324C33.229 37.4986 33.3354 37.3978 33.4105 37.3373C35.2384 35.4984 36.1734 34.1326 36.1643 33.2544C36.1532 32.3598 35.0404 31.3038 33.5022 29.8389C33.0127 29.3751 32.481 28.8673 31.92 28.3063C30.4644 26.8561 29.7475 27.1036 28.1617 27.6609C25.9709 28.4291 22.9697 29.4814 18.2929 24.8009C13.6142 20.1241 14.6629 17.1229 15.4274 14.9303C15.981 13.3463 16.234 12.6258 14.7802 11.1701C14.2119 10.6018 13.7004 10.0628 13.2292 9.56776C11.7735 8.03876 10.723 6.93326 9.83387 6.92042ZM25.6154 10.6925C29.4306 11.4332 32.3767 14.3775 33.1192 18.1945C33.2641 18.9425 32.7782 19.663 32.0339 19.8078C31.9441 19.8243 31.8561 19.8335 31.7681 19.8335C31.1227 19.8335 30.5489 19.3788 30.4206 18.7225C29.8926 16.0092 27.8007 13.9173 25.0911 13.3912C24.3449 13.2463 23.8591 12.5258 24.0039 11.7797C24.1487 11.0335 24.8821 10.5458 25.6154 10.6925ZM25.5056 4.18087C32.9819 5.01137 38.7881 10.8102 39.6259 18.2847C39.7102 19.04 39.1676 19.7202 38.4141 19.8045C38.3627 19.81 38.3096 19.8137 38.2582 19.8137C37.5671 19.8137 36.9731 19.2949 36.8942 18.5927C36.1994 12.4034 31.3924 7.60004 25.2012 6.91254C24.4477 6.82821 23.9032 6.14987 23.9876 5.39454C24.0701 4.64104 24.7429 4.08554 25.5056 4.18087Z" fill="#F6F9FF"/>
</svg>
