<svg width="23" height="23" viewBox="0 0 23 23" fill="none" xmlns="http://www.w3.org/2000/svg">
<path d="M20.5358 20.5358C20.5358 20.9715 20.3627 21.3894 20.0546 21.6975C19.7465 22.0056 19.3286 22.1787 18.8929 22.1787H4.10721C3.6715 22.1787 3.25363 22.0056 2.94554 21.6975C2.63744 21.3894 2.46436 20.9715 2.46436 20.5358V2.46439C2.46436 2.02868 2.63744 1.61081 2.94554 1.30271C3.25363 0.994619 3.6715 0.821533 4.10721 0.821533H12.3215L20.5358 9.03582V20.5358Z" stroke="#E4E4E4" stroke-linecap="round" stroke-linejoin="round"/>
<path d="M12.3215 0.821533V9.03582H20.5358" stroke="#E4E4E4" stroke-linecap="round" stroke-linejoin="round"/>
<path d="M5.23486 18.6222V13.591H6.08293V14.1961H6.13296C6.17743 14.1071 6.24016 14.0126 6.32116 13.9126C6.40215 13.8109 6.51173 13.7244 6.6499 13.6529C6.78807 13.5799 6.96436 13.5433 7.17876 13.5433C7.46145 13.5433 7.71634 13.6156 7.94345 13.7601C8.17214 13.903 8.35319 14.1151 8.48659 14.3962C8.62159 14.6757 8.68908 15.0187 8.68908 15.4253C8.68908 15.8271 8.62318 16.1685 8.49136 16.4496C8.35954 16.7307 8.18008 16.9451 7.95298 17.0928C7.72587 17.2405 7.46859 17.3144 7.18114 17.3144C6.9715 17.3144 6.7976 17.2794 6.65943 17.2096C6.52126 17.1397 6.41009 17.0555 6.32592 16.957C6.24334 16.857 6.17902 16.7625 6.13296 16.6736H6.09723V18.6222H5.23486ZM6.08055 15.4205C6.08055 15.6571 6.1139 15.8644 6.1806 16.0423C6.2489 16.2201 6.34657 16.3591 6.47362 16.4592C6.60226 16.5576 6.7579 16.6069 6.94053 16.6069C7.13111 16.6069 7.29072 16.556 7.41936 16.4544C7.548 16.3512 7.64488 16.2106 7.70999 16.0327C7.77669 15.8533 7.81004 15.6492 7.81004 15.4205C7.81004 15.1934 7.77749 14.9917 7.71237 14.8154C7.64726 14.6391 7.55038 14.501 7.42174 14.4009C7.2931 14.3009 7.1327 14.2508 6.94053 14.2508C6.75631 14.2508 6.59988 14.2993 6.47124 14.3962C6.3426 14.493 6.24492 14.6288 6.17822 14.8035C6.11311 14.9782 6.08055 15.1839 6.08055 15.4205Z" fill="white"/>
<path d="M11.5569 17.3144C11.2694 17.3144 11.0122 17.2405 10.7851 17.0928C10.558 16.9451 10.3785 16.7307 10.2467 16.4496C10.1149 16.1685 10.0489 15.8271 10.0489 15.4253C10.0489 15.0187 10.1157 14.6757 10.2491 14.3962C10.384 14.1151 10.5659 13.903 10.7946 13.7601C11.0233 13.6156 11.2782 13.5433 11.5593 13.5433C11.7737 13.5433 11.95 13.5799 12.0881 13.6529C12.2263 13.7244 12.3359 13.8109 12.4169 13.9126C12.4979 14.0126 12.5606 14.1071 12.6051 14.1961H12.6408V12.3713H13.5056V17.2501H12.6575V16.6736H12.6051C12.5606 16.7625 12.4963 16.857 12.4121 16.957C12.3279 17.0555 12.2168 17.1397 12.0786 17.2096C11.9404 17.2794 11.7665 17.3144 11.5569 17.3144ZM11.7975 16.6069C11.9801 16.6069 12.1358 16.5576 12.2644 16.4592C12.3931 16.3591 12.4907 16.2201 12.5574 16.0423C12.6241 15.8644 12.6575 15.6571 12.6575 15.4205C12.6575 15.1839 12.6241 14.9782 12.5574 14.8035C12.4923 14.6288 12.3954 14.493 12.2668 14.3962C12.1397 14.2993 11.9833 14.2508 11.7975 14.2508C11.6053 14.2508 11.4449 14.3009 11.3163 14.4009C11.1877 14.501 11.0908 14.6391 11.0257 14.8154C10.9605 14.9917 10.928 15.1934 10.928 15.4205C10.928 15.6492 10.9605 15.8533 11.0257 16.0327C11.0924 16.2106 11.19 16.3512 11.3187 16.4544C11.4489 16.556 11.6085 16.6069 11.7975 16.6069Z" fill="white"/>
<path d="M17.0493 13.591V14.258H14.8863V13.591H17.0493ZM15.427 17.2501V13.2455C15.427 12.9994 15.4778 12.7945 15.5795 12.6309C15.6827 12.4674 15.8209 12.3451 15.994 12.2641C16.1671 12.1831 16.3593 12.1426 16.5705 12.1426C16.7198 12.1426 16.8524 12.1545 16.9683 12.1783C17.0843 12.2021 17.17 12.2236 17.2256 12.2426L17.0541 12.9097C17.0176 12.8985 16.9715 12.8874 16.9159 12.8763C16.8603 12.8636 16.7984 12.8572 16.7301 12.8572C16.5697 12.8572 16.4561 12.8962 16.3894 12.974C16.3243 13.0502 16.2918 13.1598 16.2918 13.3027V17.2501H15.427Z" fill="white"/>
</svg>
