<svg width="44" height="43" viewBox="0 0 44 43" xmlns="http://www.w3.org/2000/svg">
<g clip-path="url(#clip0_915_2324)">
<path d="M35.2662 33.5488L27.1922 25.2959C28.8018 23.3447 29.6066 21.0947 29.6066 18.5459C29.6066 16.6299 29.1437 14.8633 28.2177 13.2461C27.2917 11.6289 26.0283 10.3501 24.4273 9.40967C22.8263 8.46924 21.0869 7.99902 19.209 7.99902C17.3312 7.99902 15.5961 8.46924 14.0037 9.40967C12.4114 10.3501 11.1523 11.6289 10.2263 13.2461C9.30038 14.8633 8.8374 16.6299 8.8374 18.5459C8.8374 20.4619 9.30038 22.2285 10.2263 23.8457C11.1523 25.4629 12.4114 26.7417 14.0037 27.6821C15.5961 28.6226 17.3355 29.0928 19.222 29.0928C21.8009 29.0928 24.0682 28.2314 26.0239 26.5088L34.072 34.7354C34.2451 34.9111 34.4441 34.999 34.6691 34.999C34.8941 34.999 35.0888 34.9155 35.2533 34.7485C35.4177 34.5815 35.4999 34.3794 35.4999 34.1421C35.4999 33.9048 35.422 33.707 35.2662 33.5488ZM19.222 27.4316C17.6297 27.4316 16.1629 27.0317 14.8215 26.2319C13.4802 25.4321 12.4201 24.3511 11.6412 22.9888C10.8624 21.6265 10.473 20.1455 10.473 18.5459C10.473 16.9463 10.8624 15.4653 11.6412 14.103C12.4201 12.7407 13.4802 11.6597 14.8215 10.8599C16.1629 10.0601 17.6254 9.66016 19.209 9.66016C20.7927 9.66016 22.2552 10.0601 23.5965 10.8599C24.9379 11.6597 25.998 12.7407 26.7768 14.103C27.5557 15.4653 27.9451 16.9463 27.9451 18.5459C27.9451 19.2314 27.8672 19.9082 27.7114 20.5762C27.5557 21.2441 27.335 21.8682 27.0494 22.4482C26.7638 23.0283 26.422 23.5776 26.0239 24.0962C25.6259 24.6147 25.1759 25.0762 24.6739 25.4805C24.172 25.8848 23.6355 26.2319 23.0643 26.522C22.4932 26.812 21.8787 27.0361 21.2211 27.1943C20.5634 27.3525 19.897 27.4316 19.222 27.4316Z"/>
</g>
<defs>
<clipPath id="clip0_915_2324">
<rect width="27" height="27" transform="translate(8.5 8)"/>
</clipPath>
</defs>
</svg>
